G04 #@! TF.GenerationSoftware,KiCad,Pcbnew,(5.1.6)-1*
G04 #@! TF.CreationDate,2020-11-07T02:00:21+01:00*
G04 #@! TF.ProjectId,Mouse module 2,4d6f7573-6520-46d6-9f64-756c6520322e,rev?*
G04 #@! TF.SameCoordinates,Original*
G04 #@! TF.FileFunction,Copper,L1,Top*
G04 #@! TF.FilePolarity,Positive*
%FSLAX46Y46*%
G04 Gerber Fmt 4.6, Leading zero omitted, Abs format (unit mm)*
G04 Created by KiCad (PCBNEW (5.1.6)-1) date 2020-11-07 02:00:21*
%MOMM*%
%LPD*%
G01*
G04 APERTURE LIST*
G04 #@! TA.AperFunction,ComponentPad*
%ADD10O,1.508000X3.016000*%
G04 #@! TD*
G04 #@! TA.AperFunction,ComponentPad*
%ADD11C,1.600000*%
G04 #@! TD*
G04 #@! TA.AperFunction,ComponentPad*
%ADD12C,5.400000*%
G04 #@! TD*
G04 #@! TA.AperFunction,ComponentPad*
%ADD13O,1.700000X1.700000*%
G04 #@! TD*
G04 #@! TA.AperFunction,ComponentPad*
%ADD14R,1.700000X1.700000*%
G04 #@! TD*
G04 #@! TA.AperFunction,ComponentPad*
%ADD15C,1.700000*%
G04 #@! TD*
G04 #@! TA.AperFunction,ComponentPad*
%ADD16O,1.600000X1.600000*%
G04 #@! TD*
G04 #@! TA.AperFunction,ComponentPad*
%ADD17R,1.600000X1.600000*%
G04 #@! TD*
G04 #@! TA.AperFunction,Conductor*
%ADD18C,0.500000*%
G04 #@! TD*
G04 #@! TA.AperFunction,Conductor*
%ADD19C,0.400000*%
G04 #@! TD*
G04 #@! TA.AperFunction,Conductor*
%ADD20C,0.254000*%
G04 #@! TD*
G04 APERTURE END LIST*
D10*
X85338000Y-70300000D03*
X82938000Y-72300000D03*
X77438000Y-72300000D03*
X85338000Y-60750000D03*
X82938000Y-62750000D03*
X77438000Y-62750000D03*
X85338000Y-51100000D03*
X82938000Y-53100000D03*
X77438000Y-53100000D03*
X85338000Y-41500000D03*
X82938000Y-43500000D03*
X77438000Y-43500000D03*
X85338000Y-31900000D03*
X82938000Y-33900000D03*
X77438000Y-33900000D03*
D11*
X55500000Y-69500000D03*
X50500000Y-69500000D03*
X42700000Y-69500000D03*
X47700000Y-69500000D03*
X37000000Y-47500000D03*
X37000000Y-42500000D03*
X34900000Y-69500000D03*
X39900000Y-69500000D03*
X54000000Y-31500000D03*
X54000000Y-26500000D03*
D12*
X23500000Y-23500000D03*
X23500000Y-81500000D03*
X83500000Y-81500000D03*
X83500000Y-23500000D03*
D13*
X59310000Y-28140000D03*
X61850000Y-28140000D03*
X59310000Y-30680000D03*
X61850000Y-30680000D03*
X59310000Y-33220000D03*
X61850000Y-33220000D03*
X59310000Y-35760000D03*
X61850000Y-35760000D03*
X59310000Y-38300000D03*
X61850000Y-38300000D03*
X59310000Y-40840000D03*
X61850000Y-40840000D03*
X59310000Y-43380000D03*
X61850000Y-43380000D03*
X59310000Y-45920000D03*
X61850000Y-45920000D03*
X59310000Y-48460000D03*
X61850000Y-48460000D03*
X59310000Y-51000000D03*
X61850000Y-51000000D03*
X59310000Y-53540000D03*
X61850000Y-53540000D03*
X59310000Y-56080000D03*
X61850000Y-56080000D03*
X59310000Y-58620000D03*
X61850000Y-58620000D03*
X59310000Y-61160000D03*
X61850000Y-61160000D03*
X59310000Y-63700000D03*
X61850000Y-63700000D03*
X59310000Y-66240000D03*
X61850000Y-66240000D03*
X59310000Y-68780000D03*
X61850000Y-68780000D03*
X59310000Y-71320000D03*
X61850000Y-71320000D03*
X59310000Y-73860000D03*
X61850000Y-73860000D03*
X59310000Y-76400000D03*
D14*
X61850000Y-76400000D03*
D15*
X50780000Y-75310000D03*
X48240000Y-75310000D03*
X45700000Y-75310000D03*
X43160000Y-75310000D03*
X40620000Y-75310000D03*
X38080000Y-75310000D03*
X35540000Y-75310000D03*
X33000000Y-75310000D03*
X50780000Y-77850000D03*
X48240000Y-77850000D03*
X45700000Y-77850000D03*
X43160000Y-77850000D03*
X40620000Y-77850000D03*
X38080000Y-77850000D03*
X35540000Y-77850000D03*
G04 #@! TA.AperFunction,ComponentPad*
G36*
G01*
X33600000Y-78700000D02*
X32400000Y-78700000D01*
G75*
G02*
X32150000Y-78450000I0J250000D01*
G01*
X32150000Y-77250000D01*
G75*
G02*
X32400000Y-77000000I250000J0D01*
G01*
X33600000Y-77000000D01*
G75*
G02*
X33850000Y-77250000I0J-250000D01*
G01*
X33850000Y-78450000D01*
G75*
G02*
X33600000Y-78700000I-250000J0D01*
G01*
G37*
G04 #@! TD.AperFunction*
D11*
X70000000Y-27440000D03*
D16*
X70000000Y-37600000D03*
X66000000Y-27440000D03*
D11*
X66000000Y-37600000D03*
D16*
X40940000Y-43000000D03*
D11*
X51100000Y-43000000D03*
D16*
X51160000Y-47000000D03*
D11*
X41000000Y-47000000D03*
D16*
X49660000Y-28000000D03*
D11*
X39500000Y-28000000D03*
X31500000Y-55800000D03*
D16*
X31500000Y-65960000D03*
X49660000Y-24000000D03*
D11*
X39500000Y-24000000D03*
X31500000Y-42500000D03*
D16*
X31500000Y-52660000D03*
D11*
X35000000Y-39500000D03*
D16*
X35000000Y-29340000D03*
D11*
X54500000Y-33900000D03*
D16*
X54500000Y-44060000D03*
X54970000Y-50700000D03*
X47350000Y-65940000D03*
X54970000Y-53240000D03*
X47350000Y-63400000D03*
X54970000Y-55780000D03*
X47350000Y-60860000D03*
X54970000Y-58320000D03*
X47350000Y-58320000D03*
X54970000Y-60860000D03*
X47350000Y-55780000D03*
X54970000Y-63400000D03*
X47350000Y-53240000D03*
X54970000Y-65940000D03*
D17*
X47350000Y-50700000D03*
D16*
X48620000Y-32000000D03*
X41000000Y-39620000D03*
X48620000Y-34540000D03*
X41000000Y-37080000D03*
X48620000Y-37080000D03*
X41000000Y-34540000D03*
X48620000Y-39620000D03*
D17*
X41000000Y-32000000D03*
X43000000Y-65950000D03*
D16*
X35380000Y-50710000D03*
X43000000Y-63410000D03*
X35380000Y-53250000D03*
X43000000Y-60870000D03*
X35380000Y-55790000D03*
X43000000Y-58330000D03*
X35380000Y-58330000D03*
X43000000Y-55790000D03*
X35380000Y-60870000D03*
X43000000Y-53250000D03*
X35380000Y-63410000D03*
X43000000Y-50710000D03*
X35380000Y-65950000D03*
D18*
X55270000Y-61160000D02*
X54970000Y-60860000D01*
X59310000Y-61160000D02*
X55270000Y-61160000D01*
X52690000Y-50700000D02*
X54970000Y-50700000D01*
X51140000Y-52250000D02*
X52690000Y-50700000D01*
X55500000Y-69500000D02*
X51140000Y-65140000D01*
X51140000Y-65140000D02*
X51140000Y-52250000D01*
X41310000Y-50549998D02*
X41310000Y-73460000D01*
X41310000Y-73460000D02*
X43160000Y-75310000D01*
X46910000Y-44949998D02*
X41310000Y-50549998D01*
X48620000Y-32000000D02*
X46910000Y-33710000D01*
X46910000Y-33710000D02*
X46910000Y-44949998D01*
D19*
X55920001Y-62449999D02*
X54970000Y-63400000D01*
X59870003Y-62449999D02*
X55920001Y-62449999D01*
X60599999Y-61720003D02*
X59870003Y-62449999D01*
X60599999Y-42090001D02*
X60599999Y-61720003D01*
X61850000Y-40840000D02*
X60599999Y-42090001D01*
X54970000Y-55780000D02*
X57040000Y-53710000D01*
X58749997Y-39550001D02*
X60599999Y-39550001D01*
X57040000Y-41259998D02*
X58749997Y-39550001D01*
X60599999Y-39550001D02*
X61850000Y-38300000D01*
X57040000Y-53710000D02*
X57040000Y-41259998D01*
X62760000Y-30680000D02*
X61850000Y-30680000D01*
X66000000Y-27440000D02*
X62760000Y-30680000D01*
X70000000Y-27440000D02*
X66000000Y-27440000D01*
X79238000Y-37600000D02*
X82938000Y-33900000D01*
X70000000Y-37600000D02*
X79238000Y-37600000D01*
X35000000Y-38000000D02*
X35000000Y-39500000D01*
X41000000Y-32000000D02*
X35000000Y-38000000D01*
X53860000Y-34540000D02*
X54500000Y-33900000D01*
X48620000Y-34540000D02*
X53860000Y-34540000D01*
X62670001Y-37010001D02*
X72160000Y-46500000D01*
X57610001Y-37010001D02*
X62670001Y-37010001D01*
X54500000Y-33900000D02*
X57610001Y-37010001D01*
X76338000Y-46500000D02*
X82938000Y-53100000D01*
X72160000Y-46500000D02*
X76338000Y-46500000D01*
X80737999Y-64950001D02*
X82938000Y-62750000D01*
X54970000Y-65940000D02*
X55959999Y-64950001D01*
X55959999Y-64950001D02*
X80737999Y-64950001D01*
X51160000Y-43060000D02*
X51100000Y-43000000D01*
X51160000Y-47000000D02*
X51160000Y-43060000D01*
X48620000Y-40520000D02*
X48620000Y-39620000D01*
X51100000Y-43000000D02*
X48620000Y-40520000D01*
X41000000Y-47000000D02*
X40200001Y-47799999D01*
X40200001Y-50969999D02*
X35380000Y-55790000D01*
X40200001Y-47799999D02*
X40200001Y-50969999D01*
X36340000Y-28000000D02*
X35000000Y-29340000D01*
X39500000Y-28000000D02*
X36340000Y-28000000D01*
X41000000Y-34540000D02*
X42670000Y-32870000D01*
X42670000Y-31170000D02*
X39500000Y-28000000D01*
X42670000Y-32870000D02*
X42670000Y-31170000D01*
X31510000Y-65950000D02*
X31500000Y-65960000D01*
X35380000Y-65950000D02*
X31510000Y-65950000D01*
X31500000Y-55800000D02*
X31500000Y-52660000D01*
X39868630Y-37080000D02*
X41000000Y-37080000D01*
X31500000Y-45448630D02*
X39868630Y-37080000D01*
X31500000Y-52660000D02*
X31500000Y-45448630D01*
X54500000Y-42960000D02*
X48620000Y-37080000D01*
X54500000Y-44060000D02*
X54500000Y-42960000D01*
X45550000Y-55780000D02*
X43000000Y-58330000D01*
X47350000Y-55780000D02*
X45550000Y-55780000D01*
D20*
G36*
X81642008Y-20711096D02*
G01*
X81634411Y-20716172D01*
X81334231Y-21154626D01*
X83500000Y-23320395D01*
X83514143Y-23306253D01*
X83693748Y-23485858D01*
X83679605Y-23500000D01*
X85845374Y-25665769D01*
X86283828Y-25365589D01*
X86290001Y-25354078D01*
X86290001Y-30134498D01*
X86230369Y-30074026D01*
X86004091Y-29920531D01*
X85752215Y-29814130D01*
X85679814Y-29799714D01*
X85465000Y-29922323D01*
X85465000Y-31773000D01*
X85485000Y-31773000D01*
X85485000Y-32027000D01*
X85465000Y-32027000D01*
X85465000Y-33877677D01*
X85679814Y-34000286D01*
X85752215Y-33985870D01*
X86004091Y-33879469D01*
X86230369Y-33725974D01*
X86290001Y-33665502D01*
X86290001Y-39734498D01*
X86230369Y-39674026D01*
X86004091Y-39520531D01*
X85752215Y-39414130D01*
X85679814Y-39399714D01*
X85465000Y-39522323D01*
X85465000Y-41373000D01*
X85485000Y-41373000D01*
X85485000Y-41627000D01*
X85465000Y-41627000D01*
X85465000Y-43477677D01*
X85679814Y-43600286D01*
X85752215Y-43585870D01*
X86004091Y-43479469D01*
X86230369Y-43325974D01*
X86290001Y-43265502D01*
X86290001Y-49334498D01*
X86230369Y-49274026D01*
X86004091Y-49120531D01*
X85752215Y-49014130D01*
X85679814Y-48999714D01*
X85465000Y-49122323D01*
X85465000Y-50973000D01*
X85485000Y-50973000D01*
X85485000Y-51227000D01*
X85465000Y-51227000D01*
X85465000Y-53077677D01*
X85679814Y-53200286D01*
X85752215Y-53185870D01*
X86004091Y-53079469D01*
X86230369Y-52925974D01*
X86290000Y-52865502D01*
X86290000Y-58984498D01*
X86230369Y-58924026D01*
X86004091Y-58770531D01*
X85752215Y-58664130D01*
X85679814Y-58649714D01*
X85465000Y-58772323D01*
X85465000Y-60623000D01*
X85485000Y-60623000D01*
X85485000Y-60877000D01*
X85465000Y-60877000D01*
X85465000Y-62727677D01*
X85679814Y-62850286D01*
X85752215Y-62835870D01*
X86004091Y-62729469D01*
X86230369Y-62575974D01*
X86290000Y-62515502D01*
X86290000Y-68534497D01*
X86230369Y-68474026D01*
X86004091Y-68320531D01*
X85752215Y-68214130D01*
X85679814Y-68199714D01*
X85465000Y-68322323D01*
X85465000Y-70173000D01*
X85485000Y-70173000D01*
X85485000Y-70427000D01*
X85465000Y-70427000D01*
X85465000Y-72277677D01*
X85679814Y-72400286D01*
X85752215Y-72385870D01*
X86004091Y-72279469D01*
X86230369Y-72125974D01*
X86290000Y-72065503D01*
X86290000Y-79644065D01*
X86288904Y-79642008D01*
X86283828Y-79634411D01*
X85845374Y-79334231D01*
X83679605Y-81500000D01*
X83693748Y-81514143D01*
X83514143Y-81693748D01*
X83500000Y-81679605D01*
X81334231Y-83845374D01*
X81634411Y-84283828D01*
X81645920Y-84290000D01*
X25355935Y-84290000D01*
X25357992Y-84288904D01*
X25365589Y-84283828D01*
X25665769Y-83845374D01*
X23500000Y-81679605D01*
X23485858Y-81693748D01*
X23306253Y-81514143D01*
X23320395Y-81500000D01*
X23679605Y-81500000D01*
X25845374Y-83665769D01*
X26283828Y-83365589D01*
X26594296Y-82786644D01*
X26785852Y-82158254D01*
X26851134Y-81504569D01*
X26850247Y-81495431D01*
X80148866Y-81495431D01*
X80212366Y-82149293D01*
X80402208Y-82778203D01*
X80711096Y-83357992D01*
X80716172Y-83365589D01*
X81154626Y-83665769D01*
X83320395Y-81500000D01*
X81154626Y-79334231D01*
X80716172Y-79634411D01*
X80405704Y-80213356D01*
X80214148Y-80841746D01*
X80148866Y-81495431D01*
X26850247Y-81495431D01*
X26787634Y-80850707D01*
X26597792Y-80221797D01*
X26288904Y-79642008D01*
X26283828Y-79634411D01*
X25845374Y-79334231D01*
X23679605Y-81500000D01*
X23320395Y-81500000D01*
X21154626Y-79334231D01*
X20716172Y-79634411D01*
X20710000Y-79645920D01*
X20710000Y-79154626D01*
X21334231Y-79154626D01*
X23500000Y-81320395D01*
X25665769Y-79154626D01*
X25365589Y-78716172D01*
X24786644Y-78405704D01*
X24158254Y-78214148D01*
X23504569Y-78148866D01*
X22850707Y-78212366D01*
X22221797Y-78402208D01*
X21642008Y-78711096D01*
X21634411Y-78716172D01*
X21334231Y-79154626D01*
X20710000Y-79154626D01*
X20710000Y-77250000D01*
X31511928Y-77250000D01*
X31511928Y-78450000D01*
X31528992Y-78623254D01*
X31579528Y-78789850D01*
X31661595Y-78943386D01*
X31772038Y-79077962D01*
X31906614Y-79188405D01*
X32060150Y-79270472D01*
X32226746Y-79321008D01*
X32400000Y-79338072D01*
X33600000Y-79338072D01*
X33773254Y-79321008D01*
X33939850Y-79270472D01*
X34093386Y-79188405D01*
X34227962Y-79077962D01*
X34338405Y-78943386D01*
X34373142Y-78878397D01*
X34691208Y-78878397D01*
X34768843Y-79127472D01*
X35032883Y-79253371D01*
X35316411Y-79325339D01*
X35608531Y-79340611D01*
X35898019Y-79298599D01*
X36173747Y-79200919D01*
X36311157Y-79127472D01*
X36388792Y-78878397D01*
X37231208Y-78878397D01*
X37308843Y-79127472D01*
X37572883Y-79253371D01*
X37856411Y-79325339D01*
X38148531Y-79340611D01*
X38438019Y-79298599D01*
X38713747Y-79200919D01*
X38851157Y-79127472D01*
X38928792Y-78878397D01*
X39771208Y-78878397D01*
X39848843Y-79127472D01*
X40112883Y-79253371D01*
X40396411Y-79325339D01*
X40688531Y-79340611D01*
X40978019Y-79298599D01*
X41253747Y-79200919D01*
X41391157Y-79127472D01*
X41468792Y-78878397D01*
X40620000Y-78029605D01*
X39771208Y-78878397D01*
X38928792Y-78878397D01*
X38080000Y-78029605D01*
X37231208Y-78878397D01*
X36388792Y-78878397D01*
X35540000Y-78029605D01*
X34691208Y-78878397D01*
X34373142Y-78878397D01*
X34420472Y-78789850D01*
X34453580Y-78680707D01*
X34511603Y-78698792D01*
X35360395Y-77850000D01*
X35719605Y-77850000D01*
X36568397Y-78698792D01*
X36810000Y-78623486D01*
X37051603Y-78698792D01*
X37900395Y-77850000D01*
X38259605Y-77850000D01*
X39108397Y-78698792D01*
X39350000Y-78623486D01*
X39591603Y-78698792D01*
X40440395Y-77850000D01*
X39591603Y-77001208D01*
X39350000Y-77076514D01*
X39108397Y-77001208D01*
X38259605Y-77850000D01*
X37900395Y-77850000D01*
X37051603Y-77001208D01*
X36810000Y-77076514D01*
X36568397Y-77001208D01*
X35719605Y-77850000D01*
X35360395Y-77850000D01*
X34511603Y-77001208D01*
X34453580Y-77019293D01*
X34420472Y-76910150D01*
X34338405Y-76756614D01*
X34227962Y-76622038D01*
X34093386Y-76511595D01*
X33966392Y-76443715D01*
X34071710Y-76338397D01*
X34691208Y-76338397D01*
X34766514Y-76580000D01*
X34691208Y-76821603D01*
X35540000Y-77670395D01*
X36388792Y-76821603D01*
X36313486Y-76580000D01*
X36388792Y-76338397D01*
X37231208Y-76338397D01*
X37306514Y-76580000D01*
X37231208Y-76821603D01*
X38080000Y-77670395D01*
X38928792Y-76821603D01*
X38853486Y-76580000D01*
X38928792Y-76338397D01*
X39771208Y-76338397D01*
X39846514Y-76580000D01*
X39771208Y-76821603D01*
X40620000Y-77670395D01*
X41468792Y-76821603D01*
X41393486Y-76580000D01*
X41468792Y-76338397D01*
X40620000Y-75489605D01*
X39771208Y-76338397D01*
X38928792Y-76338397D01*
X38080000Y-75489605D01*
X37231208Y-76338397D01*
X36388792Y-76338397D01*
X35540000Y-75489605D01*
X34691208Y-76338397D01*
X34071710Y-76338397D01*
X34153475Y-76256632D01*
X34269311Y-76083271D01*
X34511603Y-76158792D01*
X35360395Y-75310000D01*
X35719605Y-75310000D01*
X36568397Y-76158792D01*
X36810000Y-76083486D01*
X37051603Y-76158792D01*
X37900395Y-75310000D01*
X38259605Y-75310000D01*
X39108397Y-76158792D01*
X39350000Y-76083486D01*
X39591603Y-76158792D01*
X40440395Y-75310000D01*
X39591603Y-74461208D01*
X39350000Y-74536514D01*
X39108397Y-74461208D01*
X38259605Y-75310000D01*
X37900395Y-75310000D01*
X37051603Y-74461208D01*
X36810000Y-74536514D01*
X36568397Y-74461208D01*
X35719605Y-75310000D01*
X35360395Y-75310000D01*
X34511603Y-74461208D01*
X34269311Y-74536729D01*
X34153475Y-74363368D01*
X34071710Y-74281603D01*
X34691208Y-74281603D01*
X35540000Y-75130395D01*
X36388792Y-74281603D01*
X37231208Y-74281603D01*
X38080000Y-75130395D01*
X38928792Y-74281603D01*
X38851157Y-74032528D01*
X38587117Y-73906629D01*
X38303589Y-73834661D01*
X38011469Y-73819389D01*
X37721981Y-73861401D01*
X37446253Y-73959081D01*
X37308843Y-74032528D01*
X37231208Y-74281603D01*
X36388792Y-74281603D01*
X36311157Y-74032528D01*
X36047117Y-73906629D01*
X35763589Y-73834661D01*
X35471469Y-73819389D01*
X35181981Y-73861401D01*
X34906253Y-73959081D01*
X34768843Y-74032528D01*
X34691208Y-74281603D01*
X34071710Y-74281603D01*
X33946632Y-74156525D01*
X33703411Y-73994010D01*
X33433158Y-73882068D01*
X33146260Y-73825000D01*
X32853740Y-73825000D01*
X32566842Y-73882068D01*
X32296589Y-73994010D01*
X32053368Y-74156525D01*
X31846525Y-74363368D01*
X31684010Y-74606589D01*
X31572068Y-74876842D01*
X31515000Y-75163740D01*
X31515000Y-75456260D01*
X31572068Y-75743158D01*
X31684010Y-76013411D01*
X31846525Y-76256632D01*
X32033608Y-76443715D01*
X31906614Y-76511595D01*
X31772038Y-76622038D01*
X31661595Y-76756614D01*
X31579528Y-76910150D01*
X31528992Y-77076746D01*
X31511928Y-77250000D01*
X20710000Y-77250000D01*
X20710000Y-70492702D01*
X34086903Y-70492702D01*
X34158486Y-70736671D01*
X34413996Y-70857571D01*
X34688184Y-70926300D01*
X34970512Y-70940217D01*
X35250130Y-70898787D01*
X35516292Y-70803603D01*
X35641514Y-70736671D01*
X35713097Y-70492702D01*
X34900000Y-69679605D01*
X34086903Y-70492702D01*
X20710000Y-70492702D01*
X20710000Y-69570512D01*
X33459783Y-69570512D01*
X33501213Y-69850130D01*
X33596397Y-70116292D01*
X33663329Y-70241514D01*
X33907298Y-70313097D01*
X34720395Y-69500000D01*
X35079605Y-69500000D01*
X35892702Y-70313097D01*
X36136671Y-70241514D01*
X36257571Y-69986004D01*
X36326300Y-69711816D01*
X36340217Y-69429488D01*
X36298787Y-69149870D01*
X36203603Y-68883708D01*
X36136671Y-68758486D01*
X35892702Y-68686903D01*
X35079605Y-69500000D01*
X34720395Y-69500000D01*
X33907298Y-68686903D01*
X33663329Y-68758486D01*
X33542429Y-69013996D01*
X33473700Y-69288184D01*
X33459783Y-69570512D01*
X20710000Y-69570512D01*
X20710000Y-68507298D01*
X34086903Y-68507298D01*
X34900000Y-69320395D01*
X35713097Y-68507298D01*
X35641514Y-68263329D01*
X35386004Y-68142429D01*
X35111816Y-68073700D01*
X34829488Y-68059783D01*
X34549870Y-68101213D01*
X34283708Y-68196397D01*
X34158486Y-68263329D01*
X34086903Y-68507298D01*
X20710000Y-68507298D01*
X20710000Y-65818665D01*
X30065000Y-65818665D01*
X30065000Y-66101335D01*
X30120147Y-66378574D01*
X30228320Y-66639727D01*
X30385363Y-66874759D01*
X30585241Y-67074637D01*
X30820273Y-67231680D01*
X31081426Y-67339853D01*
X31358665Y-67395000D01*
X31641335Y-67395000D01*
X31918574Y-67339853D01*
X32179727Y-67231680D01*
X32414759Y-67074637D01*
X32614637Y-66874759D01*
X32674612Y-66785000D01*
X34212070Y-66785000D01*
X34265363Y-66864759D01*
X34465241Y-67064637D01*
X34700273Y-67221680D01*
X34961426Y-67329853D01*
X35238665Y-67385000D01*
X35521335Y-67385000D01*
X35798574Y-67329853D01*
X36059727Y-67221680D01*
X36294759Y-67064637D01*
X36494637Y-66864759D01*
X36651680Y-66629727D01*
X36759853Y-66368574D01*
X36815000Y-66091335D01*
X36815000Y-65808665D01*
X36759853Y-65531426D01*
X36651680Y-65270273D01*
X36494637Y-65035241D01*
X36294759Y-64835363D01*
X36062241Y-64680000D01*
X36294759Y-64524637D01*
X36494637Y-64324759D01*
X36651680Y-64089727D01*
X36759853Y-63828574D01*
X36815000Y-63551335D01*
X36815000Y-63268665D01*
X36759853Y-62991426D01*
X36651680Y-62730273D01*
X36494637Y-62495241D01*
X36294759Y-62295363D01*
X36059727Y-62138320D01*
X36049135Y-62133933D01*
X36235131Y-62022385D01*
X36443519Y-61833414D01*
X36611037Y-61607420D01*
X36731246Y-61353087D01*
X36771904Y-61219039D01*
X36649915Y-60997000D01*
X35507000Y-60997000D01*
X35507000Y-61017000D01*
X35253000Y-61017000D01*
X35253000Y-60997000D01*
X34110085Y-60997000D01*
X33988096Y-61219039D01*
X34028754Y-61353087D01*
X34148963Y-61607420D01*
X34316481Y-61833414D01*
X34524869Y-62022385D01*
X34710865Y-62133933D01*
X34700273Y-62138320D01*
X34465241Y-62295363D01*
X34265363Y-62495241D01*
X34108320Y-62730273D01*
X34000147Y-62991426D01*
X33945000Y-63268665D01*
X33945000Y-63551335D01*
X34000147Y-63828574D01*
X34108320Y-64089727D01*
X34265363Y-64324759D01*
X34465241Y-64524637D01*
X34697759Y-64680000D01*
X34465241Y-64835363D01*
X34265363Y-65035241D01*
X34212070Y-65115000D01*
X32661248Y-65115000D01*
X32614637Y-65045241D01*
X32414759Y-64845363D01*
X32179727Y-64688320D01*
X31918574Y-64580147D01*
X31641335Y-64525000D01*
X31358665Y-64525000D01*
X31081426Y-64580147D01*
X30820273Y-64688320D01*
X30585241Y-64845363D01*
X30385363Y-65045241D01*
X30228320Y-65280273D01*
X30120147Y-65541426D01*
X30065000Y-65818665D01*
X20710000Y-65818665D01*
X20710000Y-42358665D01*
X30065000Y-42358665D01*
X30065000Y-42641335D01*
X30120147Y-42918574D01*
X30228320Y-43179727D01*
X30385363Y-43414759D01*
X30585241Y-43614637D01*
X30820273Y-43771680D01*
X31081426Y-43879853D01*
X31358665Y-43935000D01*
X31641335Y-43935000D01*
X31880296Y-43887467D01*
X30938574Y-44829189D01*
X30906710Y-44855339D01*
X30880562Y-44887201D01*
X30802364Y-44982485D01*
X30724828Y-45127544D01*
X30677082Y-45284942D01*
X30660960Y-45448630D01*
X30665001Y-45489658D01*
X30665000Y-51492070D01*
X30585241Y-51545363D01*
X30385363Y-51745241D01*
X30228320Y-51980273D01*
X30120147Y-52241426D01*
X30065000Y-52518665D01*
X30065000Y-52801335D01*
X30120147Y-53078574D01*
X30228320Y-53339727D01*
X30385363Y-53574759D01*
X30585241Y-53774637D01*
X30665001Y-53827931D01*
X30665000Y-54632070D01*
X30585241Y-54685363D01*
X30385363Y-54885241D01*
X30228320Y-55120273D01*
X30120147Y-55381426D01*
X30065000Y-55658665D01*
X30065000Y-55941335D01*
X30120147Y-56218574D01*
X30228320Y-56479727D01*
X30385363Y-56714759D01*
X30585241Y-56914637D01*
X30820273Y-57071680D01*
X31081426Y-57179853D01*
X31358665Y-57235000D01*
X31641335Y-57235000D01*
X31918574Y-57179853D01*
X32179727Y-57071680D01*
X32414759Y-56914637D01*
X32614637Y-56714759D01*
X32771680Y-56479727D01*
X32879853Y-56218574D01*
X32935000Y-55941335D01*
X32935000Y-55658665D01*
X32879853Y-55381426D01*
X32771680Y-55120273D01*
X32614637Y-54885241D01*
X32414759Y-54685363D01*
X32335000Y-54632070D01*
X32335000Y-53827930D01*
X32414759Y-53774637D01*
X32614637Y-53574759D01*
X32771680Y-53339727D01*
X32867388Y-53108665D01*
X33945000Y-53108665D01*
X33945000Y-53391335D01*
X34000147Y-53668574D01*
X34108320Y-53929727D01*
X34265363Y-54164759D01*
X34465241Y-54364637D01*
X34697759Y-54520000D01*
X34465241Y-54675363D01*
X34265363Y-54875241D01*
X34108320Y-55110273D01*
X34000147Y-55371426D01*
X33945000Y-55648665D01*
X33945000Y-55931335D01*
X34000147Y-56208574D01*
X34108320Y-56469727D01*
X34265363Y-56704759D01*
X34465241Y-56904637D01*
X34697759Y-57060000D01*
X34465241Y-57215363D01*
X34265363Y-57415241D01*
X34108320Y-57650273D01*
X34000147Y-57911426D01*
X33945000Y-58188665D01*
X33945000Y-58471335D01*
X34000147Y-58748574D01*
X34108320Y-59009727D01*
X34265363Y-59244759D01*
X34465241Y-59444637D01*
X34700273Y-59601680D01*
X34710865Y-59606067D01*
X34524869Y-59717615D01*
X34316481Y-59906586D01*
X34148963Y-60132580D01*
X34028754Y-60386913D01*
X33988096Y-60520961D01*
X34110085Y-60743000D01*
X35253000Y-60743000D01*
X35253000Y-60723000D01*
X35507000Y-60723000D01*
X35507000Y-60743000D01*
X36649915Y-60743000D01*
X36771904Y-60520961D01*
X36731246Y-60386913D01*
X36611037Y-60132580D01*
X36443519Y-59906586D01*
X36235131Y-59717615D01*
X36049135Y-59606067D01*
X36059727Y-59601680D01*
X36294759Y-59444637D01*
X36494637Y-59244759D01*
X36651680Y-59009727D01*
X36759853Y-58748574D01*
X36815000Y-58471335D01*
X36815000Y-58188665D01*
X36759853Y-57911426D01*
X36651680Y-57650273D01*
X36494637Y-57415241D01*
X36294759Y-57215363D01*
X36062241Y-57060000D01*
X36294759Y-56904637D01*
X36494637Y-56704759D01*
X36651680Y-56469727D01*
X36759853Y-56208574D01*
X36815000Y-55931335D01*
X36815000Y-55648665D01*
X36796285Y-55554582D01*
X40425000Y-51925869D01*
X40425001Y-68164230D01*
X40318574Y-68120147D01*
X40041335Y-68065000D01*
X39758665Y-68065000D01*
X39481426Y-68120147D01*
X39220273Y-68228320D01*
X38985241Y-68385363D01*
X38785363Y-68585241D01*
X38628320Y-68820273D01*
X38520147Y-69081426D01*
X38465000Y-69358665D01*
X38465000Y-69641335D01*
X38520147Y-69918574D01*
X38628320Y-70179727D01*
X38785363Y-70414759D01*
X38985241Y-70614637D01*
X39220273Y-70771680D01*
X39481426Y-70879853D01*
X39758665Y-70935000D01*
X40041335Y-70935000D01*
X40318574Y-70879853D01*
X40425001Y-70835770D01*
X40425001Y-73416521D01*
X40420719Y-73460000D01*
X40437805Y-73633490D01*
X40488412Y-73800313D01*
X40502413Y-73826508D01*
X40261981Y-73861401D01*
X39986253Y-73959081D01*
X39848843Y-74032528D01*
X39771208Y-74281603D01*
X40620000Y-75130395D01*
X40634143Y-75116253D01*
X40813748Y-75295858D01*
X40799605Y-75310000D01*
X41648397Y-76158792D01*
X41890689Y-76083271D01*
X42006525Y-76256632D01*
X42213368Y-76463475D01*
X42387760Y-76580000D01*
X42213368Y-76696525D01*
X42006525Y-76903368D01*
X41890689Y-77076729D01*
X41648397Y-77001208D01*
X40799605Y-77850000D01*
X41648397Y-78698792D01*
X41890689Y-78623271D01*
X42006525Y-78796632D01*
X42213368Y-79003475D01*
X42456589Y-79165990D01*
X42726842Y-79277932D01*
X43013740Y-79335000D01*
X43306260Y-79335000D01*
X43593158Y-79277932D01*
X43863411Y-79165990D01*
X44106632Y-79003475D01*
X44313475Y-78796632D01*
X44430000Y-78622240D01*
X44546525Y-78796632D01*
X44753368Y-79003475D01*
X44996589Y-79165990D01*
X45266842Y-79277932D01*
X45553740Y-79335000D01*
X45846260Y-79335000D01*
X46133158Y-79277932D01*
X46403411Y-79165990D01*
X46646632Y-79003475D01*
X46853475Y-78796632D01*
X46970000Y-78622240D01*
X47086525Y-78796632D01*
X47293368Y-79003475D01*
X47536589Y-79165990D01*
X47806842Y-79277932D01*
X48093740Y-79335000D01*
X48386260Y-79335000D01*
X48673158Y-79277932D01*
X48943411Y-79165990D01*
X49186632Y-79003475D01*
X49393475Y-78796632D01*
X49510000Y-78622240D01*
X49626525Y-78796632D01*
X49833368Y-79003475D01*
X50076589Y-79165990D01*
X50346842Y-79277932D01*
X50633740Y-79335000D01*
X50926260Y-79335000D01*
X51213158Y-79277932D01*
X51483411Y-79165990D01*
X51500418Y-79154626D01*
X81334231Y-79154626D01*
X83500000Y-81320395D01*
X85665769Y-79154626D01*
X85365589Y-78716172D01*
X84786644Y-78405704D01*
X84158254Y-78214148D01*
X83504569Y-78148866D01*
X82850707Y-78212366D01*
X82221797Y-78402208D01*
X81642008Y-78711096D01*
X81634411Y-78716172D01*
X81334231Y-79154626D01*
X51500418Y-79154626D01*
X51726632Y-79003475D01*
X51933475Y-78796632D01*
X52095990Y-78553411D01*
X52207932Y-78283158D01*
X52265000Y-77996260D01*
X52265000Y-77703740D01*
X52207932Y-77416842D01*
X52095990Y-77146589D01*
X51933475Y-76903368D01*
X51726632Y-76696525D01*
X51552240Y-76580000D01*
X51726632Y-76463475D01*
X51933475Y-76256632D01*
X52095990Y-76013411D01*
X52207932Y-75743158D01*
X52265000Y-75456260D01*
X52265000Y-75163740D01*
X52207932Y-74876842D01*
X52095990Y-74606589D01*
X51933475Y-74363368D01*
X51726632Y-74156525D01*
X51483411Y-73994010D01*
X51213158Y-73882068D01*
X50926260Y-73825000D01*
X50633740Y-73825000D01*
X50346842Y-73882068D01*
X50076589Y-73994010D01*
X49833368Y-74156525D01*
X49626525Y-74363368D01*
X49510000Y-74537760D01*
X49393475Y-74363368D01*
X49186632Y-74156525D01*
X48943411Y-73994010D01*
X48673158Y-73882068D01*
X48386260Y-73825000D01*
X48093740Y-73825000D01*
X47806842Y-73882068D01*
X47536589Y-73994010D01*
X47293368Y-74156525D01*
X47086525Y-74363368D01*
X46970000Y-74537760D01*
X46853475Y-74363368D01*
X46646632Y-74156525D01*
X46403411Y-73994010D01*
X46133158Y-73882068D01*
X45846260Y-73825000D01*
X45553740Y-73825000D01*
X45266842Y-73882068D01*
X44996589Y-73994010D01*
X44753368Y-74156525D01*
X44546525Y-74363368D01*
X44430000Y-74537760D01*
X44313475Y-74363368D01*
X44106632Y-74156525D01*
X43863411Y-73994010D01*
X43593158Y-73882068D01*
X43306260Y-73825000D01*
X43013740Y-73825000D01*
X42941040Y-73839461D01*
X42195000Y-73093422D01*
X42195000Y-70844054D01*
X42281426Y-70879853D01*
X42558665Y-70935000D01*
X42841335Y-70935000D01*
X43118574Y-70879853D01*
X43379727Y-70771680D01*
X43614759Y-70614637D01*
X43736694Y-70492702D01*
X46886903Y-70492702D01*
X46958486Y-70736671D01*
X47213996Y-70857571D01*
X47488184Y-70926300D01*
X47770512Y-70940217D01*
X48050130Y-70898787D01*
X48316292Y-70803603D01*
X48441514Y-70736671D01*
X48513097Y-70492702D01*
X49686903Y-70492702D01*
X49758486Y-70736671D01*
X50013996Y-70857571D01*
X50288184Y-70926300D01*
X50570512Y-70940217D01*
X50850130Y-70898787D01*
X51116292Y-70803603D01*
X51241514Y-70736671D01*
X51313097Y-70492702D01*
X50500000Y-69679605D01*
X49686903Y-70492702D01*
X48513097Y-70492702D01*
X47700000Y-69679605D01*
X46886903Y-70492702D01*
X43736694Y-70492702D01*
X43814637Y-70414759D01*
X43971680Y-70179727D01*
X44079853Y-69918574D01*
X44135000Y-69641335D01*
X44135000Y-69570512D01*
X46259783Y-69570512D01*
X46301213Y-69850130D01*
X46396397Y-70116292D01*
X46463329Y-70241514D01*
X46707298Y-70313097D01*
X47520395Y-69500000D01*
X47879605Y-69500000D01*
X48692702Y-70313097D01*
X48936671Y-70241514D01*
X49057571Y-69986004D01*
X49097653Y-69826101D01*
X49101213Y-69850130D01*
X49196397Y-70116292D01*
X49263329Y-70241514D01*
X49507298Y-70313097D01*
X50320395Y-69500000D01*
X50679605Y-69500000D01*
X51492702Y-70313097D01*
X51736671Y-70241514D01*
X51857571Y-69986004D01*
X51926300Y-69711816D01*
X51940217Y-69429488D01*
X51898787Y-69149870D01*
X51803603Y-68883708D01*
X51736671Y-68758486D01*
X51492702Y-68686903D01*
X50679605Y-69500000D01*
X50320395Y-69500000D01*
X49507298Y-68686903D01*
X49263329Y-68758486D01*
X49142429Y-69013996D01*
X49102347Y-69173899D01*
X49098787Y-69149870D01*
X49003603Y-68883708D01*
X48936671Y-68758486D01*
X48692702Y-68686903D01*
X47879605Y-69500000D01*
X47520395Y-69500000D01*
X46707298Y-68686903D01*
X46463329Y-68758486D01*
X46342429Y-69013996D01*
X46273700Y-69288184D01*
X46259783Y-69570512D01*
X44135000Y-69570512D01*
X44135000Y-69358665D01*
X44079853Y-69081426D01*
X43971680Y-68820273D01*
X43814637Y-68585241D01*
X43736694Y-68507298D01*
X46886903Y-68507298D01*
X47700000Y-69320395D01*
X48513097Y-68507298D01*
X49686903Y-68507298D01*
X50500000Y-69320395D01*
X51313097Y-68507298D01*
X51241514Y-68263329D01*
X50986004Y-68142429D01*
X50711816Y-68073700D01*
X50429488Y-68059783D01*
X50149870Y-68101213D01*
X49883708Y-68196397D01*
X49758486Y-68263329D01*
X49686903Y-68507298D01*
X48513097Y-68507298D01*
X48441514Y-68263329D01*
X48186004Y-68142429D01*
X47911816Y-68073700D01*
X47629488Y-68059783D01*
X47349870Y-68101213D01*
X47083708Y-68196397D01*
X46958486Y-68263329D01*
X46886903Y-68507298D01*
X43736694Y-68507298D01*
X43614759Y-68385363D01*
X43379727Y-68228320D01*
X43118574Y-68120147D01*
X42841335Y-68065000D01*
X42558665Y-68065000D01*
X42281426Y-68120147D01*
X42195000Y-68155946D01*
X42195000Y-67387580D01*
X42200000Y-67388072D01*
X43800000Y-67388072D01*
X43924482Y-67375812D01*
X44044180Y-67339502D01*
X44154494Y-67280537D01*
X44251185Y-67201185D01*
X44330537Y-67104494D01*
X44389502Y-66994180D01*
X44425812Y-66874482D01*
X44438072Y-66750000D01*
X44438072Y-66289039D01*
X45958096Y-66289039D01*
X45998754Y-66423087D01*
X46118963Y-66677420D01*
X46286481Y-66903414D01*
X46494869Y-67092385D01*
X46736119Y-67237070D01*
X47000960Y-67331909D01*
X47223000Y-67210624D01*
X47223000Y-66067000D01*
X47477000Y-66067000D01*
X47477000Y-67210624D01*
X47699040Y-67331909D01*
X47963881Y-67237070D01*
X48205131Y-67092385D01*
X48413519Y-66903414D01*
X48581037Y-66677420D01*
X48701246Y-66423087D01*
X48741904Y-66289039D01*
X48619915Y-66067000D01*
X47477000Y-66067000D01*
X47223000Y-66067000D01*
X46080085Y-66067000D01*
X45958096Y-66289039D01*
X44438072Y-66289039D01*
X44438072Y-65150000D01*
X44425812Y-65025518D01*
X44389502Y-64905820D01*
X44330537Y-64795506D01*
X44251185Y-64698815D01*
X44154494Y-64619463D01*
X44044180Y-64560498D01*
X43924482Y-64524188D01*
X43916039Y-64523357D01*
X44114637Y-64324759D01*
X44271680Y-64089727D01*
X44379853Y-63828574D01*
X44435000Y-63551335D01*
X44435000Y-63268665D01*
X44379853Y-62991426D01*
X44271680Y-62730273D01*
X44114637Y-62495241D01*
X43914759Y-62295363D01*
X43679727Y-62138320D01*
X43669135Y-62133933D01*
X43855131Y-62022385D01*
X44063519Y-61833414D01*
X44231037Y-61607420D01*
X44351246Y-61353087D01*
X44391904Y-61219039D01*
X44269915Y-60997000D01*
X43127000Y-60997000D01*
X43127000Y-61017000D01*
X42873000Y-61017000D01*
X42873000Y-60997000D01*
X42853000Y-60997000D01*
X42853000Y-60743000D01*
X42873000Y-60743000D01*
X42873000Y-60723000D01*
X43127000Y-60723000D01*
X43127000Y-60743000D01*
X44269915Y-60743000D01*
X44283284Y-60718665D01*
X45915000Y-60718665D01*
X45915000Y-61001335D01*
X45970147Y-61278574D01*
X46078320Y-61539727D01*
X46235363Y-61774759D01*
X46435241Y-61974637D01*
X46667759Y-62130000D01*
X46435241Y-62285363D01*
X46235363Y-62485241D01*
X46078320Y-62720273D01*
X45970147Y-62981426D01*
X45915000Y-63258665D01*
X45915000Y-63541335D01*
X45970147Y-63818574D01*
X46078320Y-64079727D01*
X46235363Y-64314759D01*
X46435241Y-64514637D01*
X46670273Y-64671680D01*
X46680865Y-64676067D01*
X46494869Y-64787615D01*
X46286481Y-64976586D01*
X46118963Y-65202580D01*
X45998754Y-65456913D01*
X45958096Y-65590961D01*
X46080085Y-65813000D01*
X47223000Y-65813000D01*
X47223000Y-65793000D01*
X47477000Y-65793000D01*
X47477000Y-65813000D01*
X48619915Y-65813000D01*
X48741904Y-65590961D01*
X48701246Y-65456913D01*
X48581037Y-65202580D01*
X48413519Y-64976586D01*
X48205131Y-64787615D01*
X48019135Y-64676067D01*
X48029727Y-64671680D01*
X48264759Y-64514637D01*
X48464637Y-64314759D01*
X48621680Y-64079727D01*
X48729853Y-63818574D01*
X48785000Y-63541335D01*
X48785000Y-63258665D01*
X48729853Y-62981426D01*
X48621680Y-62720273D01*
X48464637Y-62485241D01*
X48264759Y-62285363D01*
X48032241Y-62130000D01*
X48264759Y-61974637D01*
X48464637Y-61774759D01*
X48621680Y-61539727D01*
X48729853Y-61278574D01*
X48785000Y-61001335D01*
X48785000Y-60718665D01*
X48729853Y-60441426D01*
X48621680Y-60180273D01*
X48464637Y-59945241D01*
X48264759Y-59745363D01*
X48029727Y-59588320D01*
X48019135Y-59583933D01*
X48205131Y-59472385D01*
X48413519Y-59283414D01*
X48581037Y-59057420D01*
X48701246Y-58803087D01*
X48741904Y-58669039D01*
X48619915Y-58447000D01*
X47477000Y-58447000D01*
X47477000Y-58467000D01*
X47223000Y-58467000D01*
X47223000Y-58447000D01*
X46080085Y-58447000D01*
X45958096Y-58669039D01*
X45998754Y-58803087D01*
X46118963Y-59057420D01*
X46286481Y-59283414D01*
X46494869Y-59472385D01*
X46680865Y-59583933D01*
X46670273Y-59588320D01*
X46435241Y-59745363D01*
X46235363Y-59945241D01*
X46078320Y-60180273D01*
X45970147Y-60441426D01*
X45915000Y-60718665D01*
X44283284Y-60718665D01*
X44391904Y-60520961D01*
X44351246Y-60386913D01*
X44231037Y-60132580D01*
X44063519Y-59906586D01*
X43855131Y-59717615D01*
X43669135Y-59606067D01*
X43679727Y-59601680D01*
X43914759Y-59444637D01*
X44114637Y-59244759D01*
X44271680Y-59009727D01*
X44379853Y-58748574D01*
X44435000Y-58471335D01*
X44435000Y-58188665D01*
X44416286Y-58094582D01*
X45895869Y-56615000D01*
X46182070Y-56615000D01*
X46235363Y-56694759D01*
X46435241Y-56894637D01*
X46670273Y-57051680D01*
X46680865Y-57056067D01*
X46494869Y-57167615D01*
X46286481Y-57356586D01*
X46118963Y-57582580D01*
X45998754Y-57836913D01*
X45958096Y-57970961D01*
X46080085Y-58193000D01*
X47223000Y-58193000D01*
X47223000Y-58173000D01*
X47477000Y-58173000D01*
X47477000Y-58193000D01*
X48619915Y-58193000D01*
X48741904Y-57970961D01*
X48701246Y-57836913D01*
X48581037Y-57582580D01*
X48413519Y-57356586D01*
X48205131Y-57167615D01*
X48019135Y-57056067D01*
X48029727Y-57051680D01*
X48264759Y-56894637D01*
X48464637Y-56694759D01*
X48621680Y-56459727D01*
X48729853Y-56198574D01*
X48785000Y-55921335D01*
X48785000Y-55638665D01*
X48729853Y-55361426D01*
X48621680Y-55100273D01*
X48464637Y-54865241D01*
X48264759Y-54665363D01*
X48032241Y-54510000D01*
X48264759Y-54354637D01*
X48464637Y-54154759D01*
X48621680Y-53919727D01*
X48729853Y-53658574D01*
X48785000Y-53381335D01*
X48785000Y-53098665D01*
X48729853Y-52821426D01*
X48621680Y-52560273D01*
X48464637Y-52325241D01*
X48266039Y-52126643D01*
X48274482Y-52125812D01*
X48394180Y-52089502D01*
X48504494Y-52030537D01*
X48601185Y-51951185D01*
X48680537Y-51854494D01*
X48739502Y-51744180D01*
X48775812Y-51624482D01*
X48788072Y-51500000D01*
X48785000Y-50985750D01*
X48626250Y-50827000D01*
X47477000Y-50827000D01*
X47477000Y-50847000D01*
X47223000Y-50847000D01*
X47223000Y-50827000D01*
X46073750Y-50827000D01*
X45915000Y-50985750D01*
X45911928Y-51500000D01*
X45924188Y-51624482D01*
X45960498Y-51744180D01*
X46019463Y-51854494D01*
X46098815Y-51951185D01*
X46195506Y-52030537D01*
X46305820Y-52089502D01*
X46425518Y-52125812D01*
X46433961Y-52126643D01*
X46235363Y-52325241D01*
X46078320Y-52560273D01*
X45970147Y-52821426D01*
X45915000Y-53098665D01*
X45915000Y-53381335D01*
X45970147Y-53658574D01*
X46078320Y-53919727D01*
X46235363Y-54154759D01*
X46435241Y-54354637D01*
X46667759Y-54510000D01*
X46435241Y-54665363D01*
X46235363Y-54865241D01*
X46182070Y-54945000D01*
X45591018Y-54945000D01*
X45550000Y-54940960D01*
X45508982Y-54945000D01*
X45508981Y-54945000D01*
X45386311Y-54957082D01*
X45305878Y-54981481D01*
X45228913Y-55004828D01*
X45083854Y-55082364D01*
X45037662Y-55120273D01*
X44956709Y-55186709D01*
X44930563Y-55218568D01*
X44435000Y-55714131D01*
X44435000Y-55648665D01*
X44379853Y-55371426D01*
X44271680Y-55110273D01*
X44114637Y-54875241D01*
X43914759Y-54675363D01*
X43682241Y-54520000D01*
X43914759Y-54364637D01*
X44114637Y-54164759D01*
X44271680Y-53929727D01*
X44379853Y-53668574D01*
X44435000Y-53391335D01*
X44435000Y-53108665D01*
X44379853Y-52831426D01*
X44271680Y-52570273D01*
X44114637Y-52335241D01*
X43914759Y-52135363D01*
X43682241Y-51980000D01*
X43914759Y-51824637D01*
X44114637Y-51624759D01*
X44271680Y-51389727D01*
X44379853Y-51128574D01*
X44435000Y-50851335D01*
X44435000Y-50568665D01*
X44379853Y-50291426D01*
X44271680Y-50030273D01*
X44184635Y-49900000D01*
X45911928Y-49900000D01*
X45915000Y-50414250D01*
X46073750Y-50573000D01*
X47223000Y-50573000D01*
X47223000Y-49423750D01*
X47477000Y-49423750D01*
X47477000Y-50573000D01*
X48626250Y-50573000D01*
X48785000Y-50414250D01*
X48788072Y-49900000D01*
X48775812Y-49775518D01*
X48739502Y-49655820D01*
X48680537Y-49545506D01*
X48601185Y-49448815D01*
X48504494Y-49369463D01*
X48394180Y-49310498D01*
X48274482Y-49274188D01*
X48150000Y-49261928D01*
X47635750Y-49265000D01*
X47477000Y-49423750D01*
X47223000Y-49423750D01*
X47064250Y-49265000D01*
X46550000Y-49261928D01*
X46425518Y-49274188D01*
X46305820Y-49310498D01*
X46195506Y-49369463D01*
X46098815Y-49448815D01*
X46019463Y-49545506D01*
X45960498Y-49655820D01*
X45924188Y-49775518D01*
X45911928Y-49900000D01*
X44184635Y-49900000D01*
X44114637Y-49795241D01*
X43914759Y-49595363D01*
X43679727Y-49438320D01*
X43675152Y-49436425D01*
X47505049Y-45606528D01*
X47538817Y-45578815D01*
X47567819Y-45543477D01*
X47649410Y-45444058D01*
X47651658Y-45439853D01*
X47731589Y-45290311D01*
X47782195Y-45123488D01*
X47795000Y-44993475D01*
X47795000Y-44993467D01*
X47799281Y-44949998D01*
X47795000Y-44906529D01*
X47795000Y-40794612D01*
X47839813Y-40824555D01*
X47844828Y-40841086D01*
X47922364Y-40986145D01*
X48026709Y-41113291D01*
X48058579Y-41139446D01*
X49683714Y-42764583D01*
X49665000Y-42858665D01*
X49665000Y-43141335D01*
X49720147Y-43418574D01*
X49828320Y-43679727D01*
X49985363Y-43914759D01*
X50185241Y-44114637D01*
X50325001Y-44208021D01*
X50325000Y-45832070D01*
X50245241Y-45885363D01*
X50045363Y-46085241D01*
X49888320Y-46320273D01*
X49780147Y-46581426D01*
X49725000Y-46858665D01*
X49725000Y-47141335D01*
X49780147Y-47418574D01*
X49888320Y-47679727D01*
X50045363Y-47914759D01*
X50245241Y-48114637D01*
X50480273Y-48271680D01*
X50741426Y-48379853D01*
X51018665Y-48435000D01*
X51301335Y-48435000D01*
X51578574Y-48379853D01*
X51839727Y-48271680D01*
X52074759Y-48114637D01*
X52274637Y-47914759D01*
X52431680Y-47679727D01*
X52539853Y-47418574D01*
X52595000Y-47141335D01*
X52595000Y-46858665D01*
X52539853Y-46581426D01*
X52431680Y-46320273D01*
X52274637Y-46085241D01*
X52074759Y-45885363D01*
X51995000Y-45832070D01*
X51995000Y-44127840D01*
X52014759Y-44114637D01*
X52214637Y-43914759D01*
X52371680Y-43679727D01*
X52479853Y-43418574D01*
X52535000Y-43141335D01*
X52535000Y-42858665D01*
X52479853Y-42581426D01*
X52371680Y-42320273D01*
X52214637Y-42085241D01*
X52014759Y-41885363D01*
X51779727Y-41728320D01*
X51518574Y-41620147D01*
X51241335Y-41565000D01*
X50958665Y-41565000D01*
X50864583Y-41583714D01*
X49767077Y-40486209D01*
X49891680Y-40299727D01*
X49999853Y-40038574D01*
X50055000Y-39761335D01*
X50055000Y-39695868D01*
X53444868Y-43085736D01*
X53385363Y-43145241D01*
X53228320Y-43380273D01*
X53120147Y-43641426D01*
X53065000Y-43918665D01*
X53065000Y-44201335D01*
X53120147Y-44478574D01*
X53228320Y-44739727D01*
X53385363Y-44974759D01*
X53585241Y-45174637D01*
X53820273Y-45331680D01*
X54081426Y-45439853D01*
X54358665Y-45495000D01*
X54641335Y-45495000D01*
X54918574Y-45439853D01*
X55179727Y-45331680D01*
X55414759Y-45174637D01*
X55614637Y-44974759D01*
X55771680Y-44739727D01*
X55879853Y-44478574D01*
X55935000Y-44201335D01*
X55935000Y-43918665D01*
X55879853Y-43641426D01*
X55771680Y-43380273D01*
X55614637Y-43145241D01*
X55414759Y-42945363D01*
X55332163Y-42890174D01*
X55322918Y-42796312D01*
X55320287Y-42787637D01*
X55275172Y-42638913D01*
X55197636Y-42493854D01*
X55119439Y-42398570D01*
X55119437Y-42398568D01*
X55093291Y-42366709D01*
X55061432Y-42340563D01*
X50036285Y-37315418D01*
X50055000Y-37221335D01*
X50055000Y-36938665D01*
X49999853Y-36661426D01*
X49891680Y-36400273D01*
X49734637Y-36165241D01*
X49534759Y-35965363D01*
X49302241Y-35810000D01*
X49534759Y-35654637D01*
X49734637Y-35454759D01*
X49787930Y-35375000D01*
X53818982Y-35375000D01*
X53860000Y-35379040D01*
X53901018Y-35375000D01*
X53901019Y-35375000D01*
X54023689Y-35362918D01*
X54181087Y-35315172D01*
X54202214Y-35303879D01*
X54358665Y-35335000D01*
X54641335Y-35335000D01*
X54735418Y-35316285D01*
X56990564Y-37571433D01*
X57016710Y-37603292D01*
X57048569Y-37629438D01*
X57048571Y-37629440D01*
X57108856Y-37678914D01*
X57143855Y-37707637D01*
X57288914Y-37785173D01*
X57446312Y-37832919D01*
X57568982Y-37845001D01*
X57568983Y-37845001D01*
X57610001Y-37849041D01*
X57651019Y-37845001D01*
X57891115Y-37845001D01*
X57882068Y-37866842D01*
X57825000Y-38153740D01*
X57825000Y-38446260D01*
X57882068Y-38733158D01*
X57994010Y-39003411D01*
X58042759Y-39076370D01*
X56478574Y-40640557D01*
X56446710Y-40666707D01*
X56365907Y-40765166D01*
X56342364Y-40793853D01*
X56264828Y-40938912D01*
X56217082Y-41096310D01*
X56200960Y-41259998D01*
X56205001Y-41301027D01*
X56205000Y-49965378D01*
X56084637Y-49785241D01*
X55884759Y-49585363D01*
X55649727Y-49428320D01*
X55388574Y-49320147D01*
X55111335Y-49265000D01*
X54828665Y-49265000D01*
X54551426Y-49320147D01*
X54290273Y-49428320D01*
X54055241Y-49585363D01*
X53855363Y-49785241D01*
X53835479Y-49815000D01*
X52733466Y-49815000D01*
X52689999Y-49810719D01*
X52646533Y-49815000D01*
X52646523Y-49815000D01*
X52516510Y-49827805D01*
X52349687Y-49878411D01*
X52195941Y-49960589D01*
X52195939Y-49960590D01*
X52195940Y-49960590D01*
X52094953Y-50043468D01*
X52094951Y-50043470D01*
X52061183Y-50071183D01*
X52033470Y-50104951D01*
X50544951Y-51593471D01*
X50511184Y-51621183D01*
X50483471Y-51654951D01*
X50483468Y-51654954D01*
X50400590Y-51755941D01*
X50318412Y-51909687D01*
X50267805Y-52076510D01*
X50250719Y-52250000D01*
X50255001Y-52293479D01*
X50255000Y-65096531D01*
X50250719Y-65140000D01*
X50255000Y-65183469D01*
X50255000Y-65183476D01*
X50267805Y-65313489D01*
X50318411Y-65480312D01*
X50400589Y-65634058D01*
X50511183Y-65768817D01*
X50544956Y-65796534D01*
X54071983Y-69323561D01*
X54065000Y-69358665D01*
X54065000Y-69641335D01*
X54120147Y-69918574D01*
X54228320Y-70179727D01*
X54385363Y-70414759D01*
X54585241Y-70614637D01*
X54820273Y-70771680D01*
X55081426Y-70879853D01*
X55358665Y-70935000D01*
X55641335Y-70935000D01*
X55918574Y-70879853D01*
X56179727Y-70771680D01*
X56414759Y-70614637D01*
X56614637Y-70414759D01*
X56771680Y-70179727D01*
X56879853Y-69918574D01*
X56935000Y-69641335D01*
X56935000Y-69358665D01*
X56879853Y-69081426D01*
X56771680Y-68820273D01*
X56614637Y-68585241D01*
X56414759Y-68385363D01*
X56179727Y-68228320D01*
X55918574Y-68120147D01*
X55641335Y-68065000D01*
X55358665Y-68065000D01*
X55323561Y-68071983D01*
X54576399Y-67324821D01*
X54828665Y-67375000D01*
X55111335Y-67375000D01*
X55388574Y-67319853D01*
X55649727Y-67211680D01*
X55884759Y-67054637D01*
X56084637Y-66854759D01*
X56241680Y-66619727D01*
X56349853Y-66358574D01*
X56405000Y-66081335D01*
X56405000Y-65798665D01*
X56402282Y-65785001D01*
X57891115Y-65785001D01*
X57882068Y-65806842D01*
X57825000Y-66093740D01*
X57825000Y-66386260D01*
X57882068Y-66673158D01*
X57994010Y-66943411D01*
X58156525Y-67186632D01*
X58363368Y-67393475D01*
X58537760Y-67510000D01*
X58363368Y-67626525D01*
X58156525Y-67833368D01*
X57994010Y-68076589D01*
X57882068Y-68346842D01*
X57825000Y-68633740D01*
X57825000Y-68926260D01*
X57882068Y-69213158D01*
X57994010Y-69483411D01*
X58156525Y-69726632D01*
X58363368Y-69933475D01*
X58545534Y-70055195D01*
X58428645Y-70124822D01*
X58212412Y-70319731D01*
X58038359Y-70553080D01*
X57913175Y-70815901D01*
X57868524Y-70963110D01*
X57989845Y-71193000D01*
X59183000Y-71193000D01*
X59183000Y-71173000D01*
X59437000Y-71173000D01*
X59437000Y-71193000D01*
X59457000Y-71193000D01*
X59457000Y-71447000D01*
X59437000Y-71447000D01*
X59437000Y-71467000D01*
X59183000Y-71467000D01*
X59183000Y-71447000D01*
X57989845Y-71447000D01*
X57868524Y-71676890D01*
X57913175Y-71824099D01*
X58038359Y-72086920D01*
X58212412Y-72320269D01*
X58428645Y-72515178D01*
X58545534Y-72584805D01*
X58363368Y-72706525D01*
X58156525Y-72913368D01*
X57994010Y-73156589D01*
X57882068Y-73426842D01*
X57825000Y-73713740D01*
X57825000Y-74006260D01*
X57882068Y-74293158D01*
X57994010Y-74563411D01*
X58156525Y-74806632D01*
X58363368Y-75013475D01*
X58537760Y-75130000D01*
X58363368Y-75246525D01*
X58156525Y-75453368D01*
X57994010Y-75696589D01*
X57882068Y-75966842D01*
X57825000Y-76253740D01*
X57825000Y-76546260D01*
X57882068Y-76833158D01*
X57994010Y-77103411D01*
X58156525Y-77346632D01*
X58363368Y-77553475D01*
X58606589Y-77715990D01*
X58876842Y-77827932D01*
X59163740Y-77885000D01*
X59456260Y-77885000D01*
X59743158Y-77827932D01*
X60013411Y-77715990D01*
X60256632Y-77553475D01*
X60388487Y-77421620D01*
X60410498Y-77494180D01*
X60469463Y-77604494D01*
X60548815Y-77701185D01*
X60645506Y-77780537D01*
X60755820Y-77839502D01*
X60875518Y-77875812D01*
X61000000Y-77888072D01*
X62700000Y-77888072D01*
X62824482Y-77875812D01*
X62944180Y-77839502D01*
X63054494Y-77780537D01*
X63151185Y-77701185D01*
X63230537Y-77604494D01*
X63289502Y-77494180D01*
X63325812Y-77374482D01*
X63338072Y-77250000D01*
X63338072Y-75550000D01*
X63325812Y-75425518D01*
X63289502Y-75305820D01*
X63230537Y-75195506D01*
X63151185Y-75098815D01*
X63054494Y-75019463D01*
X62944180Y-74960498D01*
X62871620Y-74938487D01*
X63003475Y-74806632D01*
X63165990Y-74563411D01*
X63277932Y-74293158D01*
X63335000Y-74006260D01*
X63335000Y-73713740D01*
X63277932Y-73426842D01*
X63165990Y-73156589D01*
X63003475Y-72913368D01*
X62796632Y-72706525D01*
X62622240Y-72590000D01*
X62796632Y-72473475D01*
X63003475Y-72266632D01*
X63165990Y-72023411D01*
X63277932Y-71753158D01*
X63332710Y-71477770D01*
X76049000Y-71477770D01*
X76049000Y-73122229D01*
X76069098Y-73326290D01*
X76148523Y-73588118D01*
X76277501Y-73829419D01*
X76451077Y-74040922D01*
X76662580Y-74214499D01*
X76903881Y-74343477D01*
X77165709Y-74422902D01*
X77438000Y-74449720D01*
X77710290Y-74422902D01*
X77972118Y-74343477D01*
X78213419Y-74214499D01*
X78424922Y-74040923D01*
X78598499Y-73829420D01*
X78727477Y-73588119D01*
X78806902Y-73326291D01*
X78827000Y-73122230D01*
X78827000Y-71477770D01*
X81549000Y-71477770D01*
X81549000Y-73122229D01*
X81569098Y-73326290D01*
X81648523Y-73588118D01*
X81777501Y-73829419D01*
X81951077Y-74040922D01*
X82162580Y-74214499D01*
X82403881Y-74343477D01*
X82665709Y-74422902D01*
X82938000Y-74449720D01*
X83210290Y-74422902D01*
X83472118Y-74343477D01*
X83713419Y-74214499D01*
X83924922Y-74040923D01*
X84098499Y-73829420D01*
X84227477Y-73588119D01*
X84306902Y-73326291D01*
X84327000Y-73122230D01*
X84327000Y-72005672D01*
X84445631Y-72125974D01*
X84671909Y-72279469D01*
X84923785Y-72385870D01*
X84996186Y-72400286D01*
X85211000Y-72277677D01*
X85211000Y-70427000D01*
X83949000Y-70427000D01*
X83949000Y-70588415D01*
X83924923Y-70559077D01*
X83713420Y-70385501D01*
X83472119Y-70256523D01*
X83210291Y-70177098D01*
X82938000Y-70150280D01*
X82665710Y-70177098D01*
X82403882Y-70256523D01*
X82162581Y-70385501D01*
X81951078Y-70559077D01*
X81777502Y-70770580D01*
X81648524Y-71011881D01*
X81569098Y-71273709D01*
X81549000Y-71477770D01*
X78827000Y-71477770D01*
X78806902Y-71273709D01*
X78727477Y-71011881D01*
X78598499Y-70770580D01*
X78424923Y-70559077D01*
X78213420Y-70385501D01*
X77972119Y-70256523D01*
X77710291Y-70177098D01*
X77438000Y-70150280D01*
X77165710Y-70177098D01*
X76903882Y-70256523D01*
X76662581Y-70385501D01*
X76451078Y-70559077D01*
X76277502Y-70770580D01*
X76148524Y-71011881D01*
X76069098Y-71273709D01*
X76049000Y-71477770D01*
X63332710Y-71477770D01*
X63335000Y-71466260D01*
X63335000Y-71173740D01*
X63277932Y-70886842D01*
X63165990Y-70616589D01*
X63003475Y-70373368D01*
X62796632Y-70166525D01*
X62622240Y-70050000D01*
X62796632Y-69933475D01*
X63003475Y-69726632D01*
X63165990Y-69483411D01*
X63192669Y-69419000D01*
X83949000Y-69419000D01*
X83949000Y-70173000D01*
X85211000Y-70173000D01*
X85211000Y-68322323D01*
X84996186Y-68199714D01*
X84923785Y-68214130D01*
X84671909Y-68320531D01*
X84445631Y-68474026D01*
X84253646Y-68668716D01*
X84103332Y-68897120D01*
X84000466Y-69150460D01*
X83949000Y-69419000D01*
X63192669Y-69419000D01*
X63277932Y-69213158D01*
X63335000Y-68926260D01*
X63335000Y-68633740D01*
X63277932Y-68346842D01*
X63165990Y-68076589D01*
X63003475Y-67833368D01*
X62796632Y-67626525D01*
X62614466Y-67504805D01*
X62731355Y-67435178D01*
X62947588Y-67240269D01*
X63121641Y-67006920D01*
X63246825Y-66744099D01*
X63291476Y-66596890D01*
X63170155Y-66367000D01*
X61977000Y-66367000D01*
X61977000Y-66387000D01*
X61723000Y-66387000D01*
X61723000Y-66367000D01*
X61703000Y-66367000D01*
X61703000Y-66113000D01*
X61723000Y-66113000D01*
X61723000Y-66093000D01*
X61977000Y-66093000D01*
X61977000Y-66113000D01*
X63170155Y-66113000D01*
X63291476Y-65883110D01*
X63261718Y-65785001D01*
X80696981Y-65785001D01*
X80737999Y-65789041D01*
X80779017Y-65785001D01*
X80779018Y-65785001D01*
X80901688Y-65772919D01*
X81059086Y-65725173D01*
X81204145Y-65647637D01*
X81331290Y-65543292D01*
X81357445Y-65511422D01*
X82189812Y-64679055D01*
X82403881Y-64793477D01*
X82665709Y-64872902D01*
X82938000Y-64899720D01*
X83210290Y-64872902D01*
X83472118Y-64793477D01*
X83713419Y-64664499D01*
X83924922Y-64490923D01*
X84098499Y-64279420D01*
X84227477Y-64038119D01*
X84306902Y-63776291D01*
X84327000Y-63572230D01*
X84327000Y-62455672D01*
X84445631Y-62575974D01*
X84671909Y-62729469D01*
X84923785Y-62835870D01*
X84996186Y-62850286D01*
X85211000Y-62727677D01*
X85211000Y-60877000D01*
X83949000Y-60877000D01*
X83949000Y-61038415D01*
X83924923Y-61009077D01*
X83713420Y-60835501D01*
X83472119Y-60706523D01*
X83210291Y-60627098D01*
X82938000Y-60600280D01*
X82665710Y-60627098D01*
X82403882Y-60706523D01*
X82162581Y-60835501D01*
X81951078Y-61009077D01*
X81777502Y-61220580D01*
X81648524Y-61461881D01*
X81569098Y-61723709D01*
X81549000Y-61927770D01*
X81549000Y-62958132D01*
X80392132Y-64115001D01*
X78686383Y-64115001D01*
X78727477Y-64038119D01*
X78806902Y-63776291D01*
X78827000Y-63572230D01*
X78827000Y-61927770D01*
X78806902Y-61723709D01*
X78727477Y-61461881D01*
X78598499Y-61220580D01*
X78424923Y-61009077D01*
X78213420Y-60835501D01*
X77972119Y-60706523D01*
X77710291Y-60627098D01*
X77438000Y-60600280D01*
X77165710Y-60627098D01*
X76903882Y-60706523D01*
X76662581Y-60835501D01*
X76451078Y-61009077D01*
X76277502Y-61220580D01*
X76148524Y-61461881D01*
X76069098Y-61723709D01*
X76049000Y-61927770D01*
X76049000Y-63572229D01*
X76069098Y-63776290D01*
X76148523Y-64038118D01*
X76189618Y-64115001D01*
X63281544Y-64115001D01*
X63335000Y-63846260D01*
X63335000Y-63553740D01*
X63277932Y-63266842D01*
X63165990Y-62996589D01*
X63003475Y-62753368D01*
X62796632Y-62546525D01*
X62622240Y-62430000D01*
X62796632Y-62313475D01*
X63003475Y-62106632D01*
X63165990Y-61863411D01*
X63277932Y-61593158D01*
X63335000Y-61306260D01*
X63335000Y-61013740D01*
X63277932Y-60726842D01*
X63165990Y-60456589D01*
X63003475Y-60213368D01*
X62796632Y-60006525D01*
X62622240Y-59890000D01*
X62653668Y-59869000D01*
X83949000Y-59869000D01*
X83949000Y-60623000D01*
X85211000Y-60623000D01*
X85211000Y-58772323D01*
X84996186Y-58649714D01*
X84923785Y-58664130D01*
X84671909Y-58770531D01*
X84445631Y-58924026D01*
X84253646Y-59118716D01*
X84103332Y-59347120D01*
X84000466Y-59600460D01*
X83949000Y-59869000D01*
X62653668Y-59869000D01*
X62796632Y-59773475D01*
X63003475Y-59566632D01*
X63165990Y-59323411D01*
X63277932Y-59053158D01*
X63335000Y-58766260D01*
X63335000Y-58473740D01*
X63277932Y-58186842D01*
X63165990Y-57916589D01*
X63003475Y-57673368D01*
X62796632Y-57466525D01*
X62622240Y-57350000D01*
X62796632Y-57233475D01*
X63003475Y-57026632D01*
X63165990Y-56783411D01*
X63277932Y-56513158D01*
X63335000Y-56226260D01*
X63335000Y-55933740D01*
X63277932Y-55646842D01*
X63165990Y-55376589D01*
X63003475Y-55133368D01*
X62796632Y-54926525D01*
X62622240Y-54810000D01*
X62796632Y-54693475D01*
X63003475Y-54486632D01*
X63165990Y-54243411D01*
X63277932Y-53973158D01*
X63335000Y-53686260D01*
X63335000Y-53393740D01*
X63277932Y-53106842D01*
X63165990Y-52836589D01*
X63003475Y-52593368D01*
X62796632Y-52386525D01*
X62633869Y-52277770D01*
X76049000Y-52277770D01*
X76049000Y-53922229D01*
X76069098Y-54126290D01*
X76148523Y-54388118D01*
X76277501Y-54629419D01*
X76451077Y-54840922D01*
X76662580Y-55014499D01*
X76903881Y-55143477D01*
X77165709Y-55222902D01*
X77438000Y-55249720D01*
X77710290Y-55222902D01*
X77972118Y-55143477D01*
X78213419Y-55014499D01*
X78424922Y-54840923D01*
X78598499Y-54629420D01*
X78727477Y-54388119D01*
X78806902Y-54126291D01*
X78827000Y-53922230D01*
X78827000Y-52277770D01*
X78806902Y-52073709D01*
X78727477Y-51811881D01*
X78598499Y-51570580D01*
X78424923Y-51359077D01*
X78213420Y-51185501D01*
X77972119Y-51056523D01*
X77710291Y-50977098D01*
X77438000Y-50950280D01*
X77165710Y-50977098D01*
X76903882Y-51056523D01*
X76662581Y-51185501D01*
X76451078Y-51359077D01*
X76277502Y-51570580D01*
X76148524Y-51811881D01*
X76069098Y-52073709D01*
X76049000Y-52277770D01*
X62633869Y-52277770D01*
X62622240Y-52270000D01*
X62796632Y-52153475D01*
X63003475Y-51946632D01*
X63165990Y-51703411D01*
X63277932Y-51433158D01*
X63335000Y-51146260D01*
X63335000Y-50853740D01*
X63277932Y-50566842D01*
X63165990Y-50296589D01*
X63003475Y-50053368D01*
X62796632Y-49846525D01*
X62622240Y-49730000D01*
X62796632Y-49613475D01*
X63003475Y-49406632D01*
X63165990Y-49163411D01*
X63277932Y-48893158D01*
X63335000Y-48606260D01*
X63335000Y-48313740D01*
X63277932Y-48026842D01*
X63165990Y-47756589D01*
X63003475Y-47513368D01*
X62796632Y-47306525D01*
X62614466Y-47184805D01*
X62731355Y-47115178D01*
X62947588Y-46920269D01*
X63121641Y-46686920D01*
X63246825Y-46424099D01*
X63291476Y-46276890D01*
X63170155Y-46047000D01*
X61977000Y-46047000D01*
X61977000Y-46067000D01*
X61723000Y-46067000D01*
X61723000Y-46047000D01*
X61703000Y-46047000D01*
X61703000Y-45793000D01*
X61723000Y-45793000D01*
X61723000Y-45773000D01*
X61977000Y-45773000D01*
X61977000Y-45793000D01*
X63170155Y-45793000D01*
X63291476Y-45563110D01*
X63246825Y-45415901D01*
X63121641Y-45153080D01*
X62947588Y-44919731D01*
X62731355Y-44724822D01*
X62614466Y-44655195D01*
X62796632Y-44533475D01*
X63003475Y-44326632D01*
X63165990Y-44083411D01*
X63277932Y-43813158D01*
X63335000Y-43526260D01*
X63335000Y-43233740D01*
X63277932Y-42946842D01*
X63165990Y-42676589D01*
X63003475Y-42433368D01*
X62796632Y-42226525D01*
X62622240Y-42110000D01*
X62796632Y-41993475D01*
X63003475Y-41786632D01*
X63165990Y-41543411D01*
X63277932Y-41273158D01*
X63335000Y-40986260D01*
X63335000Y-40693740D01*
X63277932Y-40406842D01*
X63165990Y-40136589D01*
X63003475Y-39893368D01*
X62796632Y-39686525D01*
X62622240Y-39570000D01*
X62796632Y-39453475D01*
X63003475Y-39246632D01*
X63165990Y-39003411D01*
X63258706Y-38779573D01*
X71540559Y-47061427D01*
X71566709Y-47093291D01*
X71693854Y-47197636D01*
X71838913Y-47275172D01*
X71996311Y-47322918D01*
X72118981Y-47335000D01*
X72118991Y-47335000D01*
X72159999Y-47339039D01*
X72201007Y-47335000D01*
X75992133Y-47335000D01*
X81549000Y-52891869D01*
X81549000Y-53922229D01*
X81569098Y-54126290D01*
X81648523Y-54388118D01*
X81777501Y-54629419D01*
X81951077Y-54840922D01*
X82162580Y-55014499D01*
X82403881Y-55143477D01*
X82665709Y-55222902D01*
X82938000Y-55249720D01*
X83210290Y-55222902D01*
X83472118Y-55143477D01*
X83713419Y-55014499D01*
X83924922Y-54840923D01*
X84098499Y-54629420D01*
X84227477Y-54388119D01*
X84306902Y-54126291D01*
X84327000Y-53922230D01*
X84327000Y-52805672D01*
X84445631Y-52925974D01*
X84671909Y-53079469D01*
X84923785Y-53185870D01*
X84996186Y-53200286D01*
X85211000Y-53077677D01*
X85211000Y-51227000D01*
X83949000Y-51227000D01*
X83949000Y-51388415D01*
X83924923Y-51359077D01*
X83713420Y-51185501D01*
X83472119Y-51056523D01*
X83210291Y-50977098D01*
X82938000Y-50950280D01*
X82665710Y-50977098D01*
X82403882Y-51056523D01*
X82189814Y-51170945D01*
X81237869Y-50219000D01*
X83949000Y-50219000D01*
X83949000Y-50973000D01*
X85211000Y-50973000D01*
X85211000Y-49122323D01*
X84996186Y-48999714D01*
X84923785Y-49014130D01*
X84671909Y-49120531D01*
X84445631Y-49274026D01*
X84253646Y-49468716D01*
X84103332Y-49697120D01*
X84000466Y-49950460D01*
X83949000Y-50219000D01*
X81237869Y-50219000D01*
X76957446Y-45938579D01*
X76931291Y-45906709D01*
X76804146Y-45802364D01*
X76659087Y-45724828D01*
X76501689Y-45677082D01*
X76379019Y-45665000D01*
X76379018Y-45665000D01*
X76338000Y-45660960D01*
X76296982Y-45665000D01*
X72505868Y-45665000D01*
X69518638Y-42677770D01*
X76049000Y-42677770D01*
X76049000Y-44322229D01*
X76069098Y-44526290D01*
X76148523Y-44788118D01*
X76277501Y-45029419D01*
X76451077Y-45240922D01*
X76662580Y-45414499D01*
X76903881Y-45543477D01*
X77165709Y-45622902D01*
X77438000Y-45649720D01*
X77710290Y-45622902D01*
X77972118Y-45543477D01*
X78213419Y-45414499D01*
X78424922Y-45240923D01*
X78598499Y-45029420D01*
X78727477Y-44788119D01*
X78806902Y-44526291D01*
X78827000Y-44322230D01*
X78827000Y-42677770D01*
X81549000Y-42677770D01*
X81549000Y-44322229D01*
X81569098Y-44526290D01*
X81648523Y-44788118D01*
X81777501Y-45029419D01*
X81951077Y-45240922D01*
X82162580Y-45414499D01*
X82403881Y-45543477D01*
X82665709Y-45622902D01*
X82938000Y-45649720D01*
X83210290Y-45622902D01*
X83472118Y-45543477D01*
X83713419Y-45414499D01*
X83924922Y-45240923D01*
X84098499Y-45029420D01*
X84227477Y-44788119D01*
X84306902Y-44526291D01*
X84327000Y-44322230D01*
X84327000Y-43205672D01*
X84445631Y-43325974D01*
X84671909Y-43479469D01*
X84923785Y-43585870D01*
X84996186Y-43600286D01*
X85211000Y-43477677D01*
X85211000Y-41627000D01*
X83949000Y-41627000D01*
X83949000Y-41788415D01*
X83924923Y-41759077D01*
X83713420Y-41585501D01*
X83472119Y-41456523D01*
X83210291Y-41377098D01*
X82938000Y-41350280D01*
X82665710Y-41377098D01*
X82403882Y-41456523D01*
X82162581Y-41585501D01*
X81951078Y-41759077D01*
X81777502Y-41970580D01*
X81648524Y-42211881D01*
X81569098Y-42473709D01*
X81549000Y-42677770D01*
X78827000Y-42677770D01*
X78806902Y-42473709D01*
X78727477Y-42211881D01*
X78598499Y-41970580D01*
X78424923Y-41759077D01*
X78213420Y-41585501D01*
X77972119Y-41456523D01*
X77710291Y-41377098D01*
X77438000Y-41350280D01*
X77165710Y-41377098D01*
X76903882Y-41456523D01*
X76662581Y-41585501D01*
X76451078Y-41759077D01*
X76277502Y-41970580D01*
X76148524Y-42211881D01*
X76069098Y-42473709D01*
X76049000Y-42677770D01*
X69518638Y-42677770D01*
X67459868Y-40619000D01*
X83949000Y-40619000D01*
X83949000Y-41373000D01*
X85211000Y-41373000D01*
X85211000Y-39522323D01*
X84996186Y-39399714D01*
X84923785Y-39414130D01*
X84671909Y-39520531D01*
X84445631Y-39674026D01*
X84253646Y-39868716D01*
X84103332Y-40097120D01*
X84000466Y-40350460D01*
X83949000Y-40619000D01*
X67459868Y-40619000D01*
X65871263Y-39030395D01*
X66070512Y-39040217D01*
X66350130Y-38998787D01*
X66616292Y-38903603D01*
X66741514Y-38836671D01*
X66813097Y-38592702D01*
X66000000Y-37779605D01*
X65985858Y-37793748D01*
X65806253Y-37614143D01*
X65820395Y-37600000D01*
X66179605Y-37600000D01*
X66992702Y-38413097D01*
X67236671Y-38341514D01*
X67357571Y-38086004D01*
X67426300Y-37811816D01*
X67440217Y-37529488D01*
X67429724Y-37458665D01*
X68565000Y-37458665D01*
X68565000Y-37741335D01*
X68620147Y-38018574D01*
X68728320Y-38279727D01*
X68885363Y-38514759D01*
X69085241Y-38714637D01*
X69320273Y-38871680D01*
X69581426Y-38979853D01*
X69858665Y-39035000D01*
X70141335Y-39035000D01*
X70418574Y-38979853D01*
X70679727Y-38871680D01*
X70914759Y-38714637D01*
X71114637Y-38514759D01*
X71167930Y-38435000D01*
X79196982Y-38435000D01*
X79238000Y-38439040D01*
X79279018Y-38435000D01*
X79279019Y-38435000D01*
X79401689Y-38422918D01*
X79559087Y-38375172D01*
X79704146Y-38297636D01*
X79831291Y-38193291D01*
X79857446Y-38161421D01*
X82189813Y-35829055D01*
X82403881Y-35943477D01*
X82665709Y-36022902D01*
X82938000Y-36049720D01*
X83210290Y-36022902D01*
X83472118Y-35943477D01*
X83713419Y-35814499D01*
X83924922Y-35640923D01*
X84098499Y-35429420D01*
X84227477Y-35188119D01*
X84306902Y-34926291D01*
X84327000Y-34722230D01*
X84327000Y-33605672D01*
X84445631Y-33725974D01*
X84671909Y-33879469D01*
X84923785Y-33985870D01*
X84996186Y-34000286D01*
X85211000Y-33877677D01*
X85211000Y-32027000D01*
X83949000Y-32027000D01*
X83949000Y-32188415D01*
X83924923Y-32159077D01*
X83713420Y-31985501D01*
X83472119Y-31856523D01*
X83210291Y-31777098D01*
X82938000Y-31750280D01*
X82665710Y-31777098D01*
X82403882Y-31856523D01*
X82162581Y-31985501D01*
X81951078Y-32159077D01*
X81777502Y-32370580D01*
X81648524Y-32611881D01*
X81569098Y-32873709D01*
X81549000Y-33077770D01*
X81549000Y-34108132D01*
X78892133Y-36765000D01*
X71167930Y-36765000D01*
X71114637Y-36685241D01*
X70914759Y-36485363D01*
X70679727Y-36328320D01*
X70418574Y-36220147D01*
X70141335Y-36165000D01*
X69858665Y-36165000D01*
X69581426Y-36220147D01*
X69320273Y-36328320D01*
X69085241Y-36485363D01*
X68885363Y-36685241D01*
X68728320Y-36920273D01*
X68620147Y-37181426D01*
X68565000Y-37458665D01*
X67429724Y-37458665D01*
X67398787Y-37249870D01*
X67303603Y-36983708D01*
X67236671Y-36858486D01*
X66992702Y-36786903D01*
X66179605Y-37600000D01*
X65820395Y-37600000D01*
X65007298Y-36786903D01*
X64763329Y-36858486D01*
X64642429Y-37113996D01*
X64573700Y-37388184D01*
X64559783Y-37670512D01*
X64568202Y-37727335D01*
X63448165Y-36607298D01*
X65186903Y-36607298D01*
X66000000Y-37420395D01*
X66813097Y-36607298D01*
X66741514Y-36363329D01*
X66486004Y-36242429D01*
X66211816Y-36173700D01*
X65929488Y-36159783D01*
X65649870Y-36201213D01*
X65383708Y-36296397D01*
X65258486Y-36363329D01*
X65186903Y-36607298D01*
X63448165Y-36607298D01*
X63289447Y-36448580D01*
X63263292Y-36416710D01*
X63205112Y-36368963D01*
X63277932Y-36193158D01*
X63335000Y-35906260D01*
X63335000Y-35613740D01*
X63277932Y-35326842D01*
X63165990Y-35056589D01*
X63003475Y-34813368D01*
X62796632Y-34606525D01*
X62622240Y-34490000D01*
X62796632Y-34373475D01*
X63003475Y-34166632D01*
X63165990Y-33923411D01*
X63277932Y-33653158D01*
X63335000Y-33366260D01*
X63335000Y-33077770D01*
X76049000Y-33077770D01*
X76049000Y-34722229D01*
X76069098Y-34926290D01*
X76148523Y-35188118D01*
X76277501Y-35429419D01*
X76451077Y-35640922D01*
X76662580Y-35814499D01*
X76903881Y-35943477D01*
X77165709Y-36022902D01*
X77438000Y-36049720D01*
X77710290Y-36022902D01*
X77972118Y-35943477D01*
X78213419Y-35814499D01*
X78424922Y-35640923D01*
X78598499Y-35429420D01*
X78727477Y-35188119D01*
X78806902Y-34926291D01*
X78827000Y-34722230D01*
X78827000Y-33077770D01*
X78806902Y-32873709D01*
X78727477Y-32611881D01*
X78598499Y-32370580D01*
X78424923Y-32159077D01*
X78213420Y-31985501D01*
X77972119Y-31856523D01*
X77710291Y-31777098D01*
X77438000Y-31750280D01*
X77165710Y-31777098D01*
X76903882Y-31856523D01*
X76662581Y-31985501D01*
X76451078Y-32159077D01*
X76277502Y-32370580D01*
X76148524Y-32611881D01*
X76069098Y-32873709D01*
X76049000Y-33077770D01*
X63335000Y-33077770D01*
X63335000Y-33073740D01*
X63277932Y-32786842D01*
X63165990Y-32516589D01*
X63003475Y-32273368D01*
X62796632Y-32066525D01*
X62622240Y-31950000D01*
X62796632Y-31833475D01*
X63003475Y-31626632D01*
X63138571Y-31424446D01*
X63226146Y-31377636D01*
X63353291Y-31273291D01*
X63379446Y-31241421D01*
X63601867Y-31019000D01*
X83949000Y-31019000D01*
X83949000Y-31773000D01*
X85211000Y-31773000D01*
X85211000Y-29922323D01*
X84996186Y-29799714D01*
X84923785Y-29814130D01*
X84671909Y-29920531D01*
X84445631Y-30074026D01*
X84253646Y-30268716D01*
X84103332Y-30497120D01*
X84000466Y-30750460D01*
X83949000Y-31019000D01*
X63601867Y-31019000D01*
X65764583Y-28856286D01*
X65858665Y-28875000D01*
X66141335Y-28875000D01*
X66418574Y-28819853D01*
X66679727Y-28711680D01*
X66914759Y-28554637D01*
X67114637Y-28354759D01*
X67167930Y-28275000D01*
X68832070Y-28275000D01*
X68885363Y-28354759D01*
X69085241Y-28554637D01*
X69320273Y-28711680D01*
X69581426Y-28819853D01*
X69858665Y-28875000D01*
X70141335Y-28875000D01*
X70418574Y-28819853D01*
X70679727Y-28711680D01*
X70914759Y-28554637D01*
X71114637Y-28354759D01*
X71271680Y-28119727D01*
X71379853Y-27858574D01*
X71435000Y-27581335D01*
X71435000Y-27298665D01*
X71379853Y-27021426D01*
X71271680Y-26760273D01*
X71114637Y-26525241D01*
X70914759Y-26325363D01*
X70679727Y-26168320D01*
X70418574Y-26060147D01*
X70141335Y-26005000D01*
X69858665Y-26005000D01*
X69581426Y-26060147D01*
X69320273Y-26168320D01*
X69085241Y-26325363D01*
X68885363Y-26525241D01*
X68832070Y-26605000D01*
X67167930Y-26605000D01*
X67114637Y-26525241D01*
X66914759Y-26325363D01*
X66679727Y-26168320D01*
X66418574Y-26060147D01*
X66141335Y-26005000D01*
X65858665Y-26005000D01*
X65581426Y-26060147D01*
X65320273Y-26168320D01*
X65085241Y-26325363D01*
X64885363Y-26525241D01*
X64728320Y-26760273D01*
X64620147Y-27021426D01*
X64565000Y-27298665D01*
X64565000Y-27581335D01*
X64583714Y-27675417D01*
X62758252Y-29500880D01*
X62614466Y-29404805D01*
X62731355Y-29335178D01*
X62947588Y-29140269D01*
X63121641Y-28906920D01*
X63246825Y-28644099D01*
X63291476Y-28496890D01*
X63170155Y-28267000D01*
X61977000Y-28267000D01*
X61977000Y-28287000D01*
X61723000Y-28287000D01*
X61723000Y-28267000D01*
X61703000Y-28267000D01*
X61703000Y-28013000D01*
X61723000Y-28013000D01*
X61723000Y-26819186D01*
X61977000Y-26819186D01*
X61977000Y-28013000D01*
X63170155Y-28013000D01*
X63291476Y-27783110D01*
X63246825Y-27635901D01*
X63121641Y-27373080D01*
X62947588Y-27139731D01*
X62731355Y-26944822D01*
X62481252Y-26795843D01*
X62206891Y-26698519D01*
X61977000Y-26819186D01*
X61723000Y-26819186D01*
X61493109Y-26698519D01*
X61218748Y-26795843D01*
X60968645Y-26944822D01*
X60752412Y-27139731D01*
X60581100Y-27369406D01*
X60463475Y-27193368D01*
X60256632Y-26986525D01*
X60013411Y-26824010D01*
X59743158Y-26712068D01*
X59456260Y-26655000D01*
X59163740Y-26655000D01*
X58876842Y-26712068D01*
X58606589Y-26824010D01*
X58363368Y-26986525D01*
X58156525Y-27193368D01*
X57994010Y-27436589D01*
X57882068Y-27706842D01*
X57825000Y-27993740D01*
X57825000Y-28286260D01*
X57882068Y-28573158D01*
X57994010Y-28843411D01*
X58156525Y-29086632D01*
X58363368Y-29293475D01*
X58537760Y-29410000D01*
X58363368Y-29526525D01*
X58156525Y-29733368D01*
X57994010Y-29976589D01*
X57882068Y-30246842D01*
X57825000Y-30533740D01*
X57825000Y-30826260D01*
X57882068Y-31113158D01*
X57994010Y-31383411D01*
X58156525Y-31626632D01*
X58363368Y-31833475D01*
X58537760Y-31950000D01*
X58363368Y-32066525D01*
X58156525Y-32273368D01*
X57994010Y-32516589D01*
X57882068Y-32786842D01*
X57825000Y-33073740D01*
X57825000Y-33366260D01*
X57882068Y-33653158D01*
X57994010Y-33923411D01*
X58156525Y-34166632D01*
X58363368Y-34373475D01*
X58545534Y-34495195D01*
X58428645Y-34564822D01*
X58212412Y-34759731D01*
X58038359Y-34993080D01*
X57913175Y-35255901D01*
X57868524Y-35403110D01*
X57989845Y-35633000D01*
X59183000Y-35633000D01*
X59183000Y-35613000D01*
X59437000Y-35613000D01*
X59437000Y-35633000D01*
X59457000Y-35633000D01*
X59457000Y-35887000D01*
X59437000Y-35887000D01*
X59437000Y-35907000D01*
X59183000Y-35907000D01*
X59183000Y-35887000D01*
X57989845Y-35887000D01*
X57878623Y-36097754D01*
X55916285Y-34135418D01*
X55935000Y-34041335D01*
X55935000Y-33758665D01*
X55879853Y-33481426D01*
X55771680Y-33220273D01*
X55614637Y-32985241D01*
X55414759Y-32785363D01*
X55179727Y-32628320D01*
X54982691Y-32546705D01*
X55114637Y-32414759D01*
X55271680Y-32179727D01*
X55379853Y-31918574D01*
X55435000Y-31641335D01*
X55435000Y-31358665D01*
X55379853Y-31081426D01*
X55271680Y-30820273D01*
X55114637Y-30585241D01*
X54914759Y-30385363D01*
X54679727Y-30228320D01*
X54418574Y-30120147D01*
X54141335Y-30065000D01*
X53858665Y-30065000D01*
X53581426Y-30120147D01*
X53320273Y-30228320D01*
X53085241Y-30385363D01*
X52885363Y-30585241D01*
X52728320Y-30820273D01*
X52620147Y-31081426D01*
X52565000Y-31358665D01*
X52565000Y-31641335D01*
X52620147Y-31918574D01*
X52728320Y-32179727D01*
X52885363Y-32414759D01*
X53085241Y-32614637D01*
X53320273Y-32771680D01*
X53517309Y-32853295D01*
X53385363Y-32985241D01*
X53228320Y-33220273D01*
X53120147Y-33481426D01*
X53075675Y-33705000D01*
X49787930Y-33705000D01*
X49734637Y-33625241D01*
X49534759Y-33425363D01*
X49302241Y-33270000D01*
X49534759Y-33114637D01*
X49734637Y-32914759D01*
X49891680Y-32679727D01*
X49999853Y-32418574D01*
X50055000Y-32141335D01*
X50055000Y-31858665D01*
X49999853Y-31581426D01*
X49891680Y-31320273D01*
X49734637Y-31085241D01*
X49534759Y-30885363D01*
X49299727Y-30728320D01*
X49038574Y-30620147D01*
X48761335Y-30565000D01*
X48478665Y-30565000D01*
X48201426Y-30620147D01*
X47940273Y-30728320D01*
X47705241Y-30885363D01*
X47505363Y-31085241D01*
X47348320Y-31320273D01*
X47240147Y-31581426D01*
X47185000Y-31858665D01*
X47185000Y-32141335D01*
X47191983Y-32176439D01*
X46314956Y-33053466D01*
X46281183Y-33081183D01*
X46170589Y-33215942D01*
X46088411Y-33369688D01*
X46054515Y-33481426D01*
X46039391Y-33531284D01*
X46037805Y-33536511D01*
X46025000Y-33666524D01*
X46025000Y-33666531D01*
X46020719Y-33710000D01*
X46025000Y-33753469D01*
X46025001Y-44583418D01*
X41035001Y-49573419D01*
X41035001Y-48435000D01*
X41141335Y-48435000D01*
X41418574Y-48379853D01*
X41679727Y-48271680D01*
X41914759Y-48114637D01*
X42114637Y-47914759D01*
X42271680Y-47679727D01*
X42379853Y-47418574D01*
X42435000Y-47141335D01*
X42435000Y-46858665D01*
X42379853Y-46581426D01*
X42271680Y-46320273D01*
X42114637Y-46085241D01*
X41914759Y-45885363D01*
X41679727Y-45728320D01*
X41418574Y-45620147D01*
X41141335Y-45565000D01*
X40858665Y-45565000D01*
X40581426Y-45620147D01*
X40320273Y-45728320D01*
X40085241Y-45885363D01*
X39885363Y-46085241D01*
X39728320Y-46320273D01*
X39620147Y-46581426D01*
X39565000Y-46858665D01*
X39565000Y-47141335D01*
X39583604Y-47234863D01*
X39512843Y-47321086D01*
X39502365Y-47333854D01*
X39424829Y-47478913D01*
X39377083Y-47636311D01*
X39360961Y-47799999D01*
X39365001Y-47841018D01*
X39365002Y-50624129D01*
X36815000Y-53174132D01*
X36815000Y-53108665D01*
X36759853Y-52831426D01*
X36651680Y-52570273D01*
X36494637Y-52335241D01*
X36294759Y-52135363D01*
X36059727Y-51978320D01*
X36049135Y-51973933D01*
X36235131Y-51862385D01*
X36443519Y-51673414D01*
X36611037Y-51447420D01*
X36731246Y-51193087D01*
X36771904Y-51059039D01*
X36649915Y-50837000D01*
X35507000Y-50837000D01*
X35507000Y-50857000D01*
X35253000Y-50857000D01*
X35253000Y-50837000D01*
X34110085Y-50837000D01*
X33988096Y-51059039D01*
X34028754Y-51193087D01*
X34148963Y-51447420D01*
X34316481Y-51673414D01*
X34524869Y-51862385D01*
X34710865Y-51973933D01*
X34700273Y-51978320D01*
X34465241Y-52135363D01*
X34265363Y-52335241D01*
X34108320Y-52570273D01*
X34000147Y-52831426D01*
X33945000Y-53108665D01*
X32867388Y-53108665D01*
X32879853Y-53078574D01*
X32935000Y-52801335D01*
X32935000Y-52518665D01*
X32879853Y-52241426D01*
X32771680Y-51980273D01*
X32614637Y-51745241D01*
X32414759Y-51545363D01*
X32335000Y-51492070D01*
X32335000Y-50360961D01*
X33988096Y-50360961D01*
X34110085Y-50583000D01*
X35253000Y-50583000D01*
X35253000Y-49439376D01*
X35507000Y-49439376D01*
X35507000Y-50583000D01*
X36649915Y-50583000D01*
X36771904Y-50360961D01*
X36731246Y-50226913D01*
X36611037Y-49972580D01*
X36443519Y-49746586D01*
X36235131Y-49557615D01*
X35993881Y-49412930D01*
X35729040Y-49318091D01*
X35507000Y-49439376D01*
X35253000Y-49439376D01*
X35030960Y-49318091D01*
X34766119Y-49412930D01*
X34524869Y-49557615D01*
X34316481Y-49746586D01*
X34148963Y-49972580D01*
X34028754Y-50226913D01*
X33988096Y-50360961D01*
X32335000Y-50360961D01*
X32335000Y-48492702D01*
X36186903Y-48492702D01*
X36258486Y-48736671D01*
X36513996Y-48857571D01*
X36788184Y-48926300D01*
X37070512Y-48940217D01*
X37350130Y-48898787D01*
X37616292Y-48803603D01*
X37741514Y-48736671D01*
X37813097Y-48492702D01*
X37000000Y-47679605D01*
X36186903Y-48492702D01*
X32335000Y-48492702D01*
X32335000Y-47570512D01*
X35559783Y-47570512D01*
X35601213Y-47850130D01*
X35696397Y-48116292D01*
X35763329Y-48241514D01*
X36007298Y-48313097D01*
X36820395Y-47500000D01*
X37179605Y-47500000D01*
X37992702Y-48313097D01*
X38236671Y-48241514D01*
X38357571Y-47986004D01*
X38426300Y-47711816D01*
X38440217Y-47429488D01*
X38398787Y-47149870D01*
X38303603Y-46883708D01*
X38236671Y-46758486D01*
X37992702Y-46686903D01*
X37179605Y-47500000D01*
X36820395Y-47500000D01*
X36007298Y-46686903D01*
X35763329Y-46758486D01*
X35642429Y-47013996D01*
X35573700Y-47288184D01*
X35559783Y-47570512D01*
X32335000Y-47570512D01*
X32335000Y-46507298D01*
X36186903Y-46507298D01*
X37000000Y-47320395D01*
X37813097Y-46507298D01*
X37741514Y-46263329D01*
X37486004Y-46142429D01*
X37211816Y-46073700D01*
X36929488Y-46059783D01*
X36649870Y-46101213D01*
X36383708Y-46196397D01*
X36258486Y-46263329D01*
X36186903Y-46507298D01*
X32335000Y-46507298D01*
X32335000Y-45794497D01*
X35565000Y-42564497D01*
X35565000Y-42641335D01*
X35620147Y-42918574D01*
X35728320Y-43179727D01*
X35885363Y-43414759D01*
X36085241Y-43614637D01*
X36320273Y-43771680D01*
X36581426Y-43879853D01*
X36858665Y-43935000D01*
X37141335Y-43935000D01*
X37418574Y-43879853D01*
X37679727Y-43771680D01*
X37914759Y-43614637D01*
X38114637Y-43414759D01*
X38271680Y-43179727D01*
X38379853Y-42918574D01*
X38391769Y-42858665D01*
X39505000Y-42858665D01*
X39505000Y-43141335D01*
X39560147Y-43418574D01*
X39668320Y-43679727D01*
X39825363Y-43914759D01*
X40025241Y-44114637D01*
X40260273Y-44271680D01*
X40521426Y-44379853D01*
X40798665Y-44435000D01*
X41081335Y-44435000D01*
X41358574Y-44379853D01*
X41619727Y-44271680D01*
X41854759Y-44114637D01*
X42054637Y-43914759D01*
X42211680Y-43679727D01*
X42319853Y-43418574D01*
X42375000Y-43141335D01*
X42375000Y-42858665D01*
X42319853Y-42581426D01*
X42211680Y-42320273D01*
X42054637Y-42085241D01*
X41854759Y-41885363D01*
X41619727Y-41728320D01*
X41358574Y-41620147D01*
X41081335Y-41565000D01*
X40798665Y-41565000D01*
X40521426Y-41620147D01*
X40260273Y-41728320D01*
X40025241Y-41885363D01*
X39825363Y-42085241D01*
X39668320Y-42320273D01*
X39560147Y-42581426D01*
X39505000Y-42858665D01*
X38391769Y-42858665D01*
X38435000Y-42641335D01*
X38435000Y-42358665D01*
X38379853Y-42081426D01*
X38271680Y-41820273D01*
X38114637Y-41585241D01*
X37914759Y-41385363D01*
X37679727Y-41228320D01*
X37418574Y-41120147D01*
X37141335Y-41065000D01*
X37064498Y-41065000D01*
X40010051Y-38119447D01*
X40085241Y-38194637D01*
X40317759Y-38350000D01*
X40085241Y-38505363D01*
X39885363Y-38705241D01*
X39728320Y-38940273D01*
X39620147Y-39201426D01*
X39565000Y-39478665D01*
X39565000Y-39761335D01*
X39620147Y-40038574D01*
X39728320Y-40299727D01*
X39885363Y-40534759D01*
X40085241Y-40734637D01*
X40320273Y-40891680D01*
X40581426Y-40999853D01*
X40858665Y-41055000D01*
X41141335Y-41055000D01*
X41418574Y-40999853D01*
X41679727Y-40891680D01*
X41914759Y-40734637D01*
X42114637Y-40534759D01*
X42271680Y-40299727D01*
X42379853Y-40038574D01*
X42435000Y-39761335D01*
X42435000Y-39478665D01*
X42379853Y-39201426D01*
X42271680Y-38940273D01*
X42114637Y-38705241D01*
X41914759Y-38505363D01*
X41682241Y-38350000D01*
X41914759Y-38194637D01*
X42114637Y-37994759D01*
X42271680Y-37759727D01*
X42379853Y-37498574D01*
X42435000Y-37221335D01*
X42435000Y-36938665D01*
X42379853Y-36661426D01*
X42271680Y-36400273D01*
X42114637Y-36165241D01*
X41914759Y-35965363D01*
X41682241Y-35810000D01*
X41914759Y-35654637D01*
X42114637Y-35454759D01*
X42271680Y-35219727D01*
X42379853Y-34958574D01*
X42435000Y-34681335D01*
X42435000Y-34398665D01*
X42416286Y-34304582D01*
X43231433Y-33489436D01*
X43263291Y-33463291D01*
X43294050Y-33425812D01*
X43367636Y-33336146D01*
X43445172Y-33191087D01*
X43445172Y-33191086D01*
X43492918Y-33033689D01*
X43505000Y-32911019D01*
X43505000Y-32911018D01*
X43509040Y-32870000D01*
X43505000Y-32828982D01*
X43505000Y-31211018D01*
X43509040Y-31170000D01*
X43492918Y-31006311D01*
X43445172Y-30848913D01*
X43367636Y-30703854D01*
X43263291Y-30576709D01*
X43231427Y-30550559D01*
X41029907Y-28349039D01*
X48268096Y-28349039D01*
X48308754Y-28483087D01*
X48428963Y-28737420D01*
X48596481Y-28963414D01*
X48804869Y-29152385D01*
X49046119Y-29297070D01*
X49310960Y-29391909D01*
X49533000Y-29270624D01*
X49533000Y-28127000D01*
X49787000Y-28127000D01*
X49787000Y-29270624D01*
X50009040Y-29391909D01*
X50273881Y-29297070D01*
X50515131Y-29152385D01*
X50723519Y-28963414D01*
X50891037Y-28737420D01*
X51011246Y-28483087D01*
X51051904Y-28349039D01*
X50929915Y-28127000D01*
X49787000Y-28127000D01*
X49533000Y-28127000D01*
X48390085Y-28127000D01*
X48268096Y-28349039D01*
X41029907Y-28349039D01*
X40916285Y-28235418D01*
X40935000Y-28141335D01*
X40935000Y-27858665D01*
X40893685Y-27650961D01*
X48268096Y-27650961D01*
X48390085Y-27873000D01*
X49533000Y-27873000D01*
X49533000Y-26729376D01*
X49787000Y-26729376D01*
X49787000Y-27873000D01*
X50929915Y-27873000D01*
X51051904Y-27650961D01*
X51011246Y-27516913D01*
X50999803Y-27492702D01*
X53186903Y-27492702D01*
X53258486Y-27736671D01*
X53513996Y-27857571D01*
X53788184Y-27926300D01*
X54070512Y-27940217D01*
X54350130Y-27898787D01*
X54616292Y-27803603D01*
X54741514Y-27736671D01*
X54813097Y-27492702D01*
X54000000Y-26679605D01*
X53186903Y-27492702D01*
X50999803Y-27492702D01*
X50891037Y-27262580D01*
X50723519Y-27036586D01*
X50515131Y-26847615D01*
X50273881Y-26702930D01*
X50009040Y-26608091D01*
X49787000Y-26729376D01*
X49533000Y-26729376D01*
X49310960Y-26608091D01*
X49046119Y-26702930D01*
X48804869Y-26847615D01*
X48596481Y-27036586D01*
X48428963Y-27262580D01*
X48308754Y-27516913D01*
X48268096Y-27650961D01*
X40893685Y-27650961D01*
X40879853Y-27581426D01*
X40771680Y-27320273D01*
X40614637Y-27085241D01*
X40414759Y-26885363D01*
X40179727Y-26728320D01*
X39918574Y-26620147D01*
X39669046Y-26570512D01*
X52559783Y-26570512D01*
X52601213Y-26850130D01*
X52696397Y-27116292D01*
X52763329Y-27241514D01*
X53007298Y-27313097D01*
X53820395Y-26500000D01*
X54179605Y-26500000D01*
X54992702Y-27313097D01*
X55236671Y-27241514D01*
X55357571Y-26986004D01*
X55426300Y-26711816D01*
X55440217Y-26429488D01*
X55398787Y-26149870D01*
X55303603Y-25883708D01*
X55283114Y-25845374D01*
X81334231Y-25845374D01*
X81634411Y-26283828D01*
X82213356Y-26594296D01*
X82841746Y-26785852D01*
X83495431Y-26851134D01*
X84149293Y-26787634D01*
X84778203Y-26597792D01*
X85357992Y-26288904D01*
X85365589Y-26283828D01*
X85665769Y-25845374D01*
X83500000Y-23679605D01*
X81334231Y-25845374D01*
X55283114Y-25845374D01*
X55236671Y-25758486D01*
X54992702Y-25686903D01*
X54179605Y-26500000D01*
X53820395Y-26500000D01*
X53007298Y-25686903D01*
X52763329Y-25758486D01*
X52642429Y-26013996D01*
X52573700Y-26288184D01*
X52559783Y-26570512D01*
X39669046Y-26570512D01*
X39641335Y-26565000D01*
X39358665Y-26565000D01*
X39081426Y-26620147D01*
X38820273Y-26728320D01*
X38585241Y-26885363D01*
X38385363Y-27085241D01*
X38332070Y-27165000D01*
X36381018Y-27165000D01*
X36339999Y-27160960D01*
X36298981Y-27165000D01*
X36176311Y-27177082D01*
X36018913Y-27224828D01*
X35873854Y-27302364D01*
X35746709Y-27406709D01*
X35720558Y-27438574D01*
X35235418Y-27923714D01*
X35141335Y-27905000D01*
X34858665Y-27905000D01*
X34581426Y-27960147D01*
X34320273Y-28068320D01*
X34085241Y-28225363D01*
X33885363Y-28425241D01*
X33728320Y-28660273D01*
X33620147Y-28921426D01*
X33565000Y-29198665D01*
X33565000Y-29481335D01*
X33620147Y-29758574D01*
X33728320Y-30019727D01*
X33885363Y-30254759D01*
X34085241Y-30454637D01*
X34320273Y-30611680D01*
X34581426Y-30719853D01*
X34858665Y-30775000D01*
X35141335Y-30775000D01*
X35418574Y-30719853D01*
X35679727Y-30611680D01*
X35914759Y-30454637D01*
X36114637Y-30254759D01*
X36271680Y-30019727D01*
X36379853Y-29758574D01*
X36435000Y-29481335D01*
X36435000Y-29198665D01*
X36416286Y-29104582D01*
X36685868Y-28835000D01*
X38332070Y-28835000D01*
X38385363Y-28914759D01*
X38585241Y-29114637D01*
X38820273Y-29271680D01*
X39081426Y-29379853D01*
X39358665Y-29435000D01*
X39641335Y-29435000D01*
X39735418Y-29416285D01*
X40881060Y-30561928D01*
X40200000Y-30561928D01*
X40075518Y-30574188D01*
X39955820Y-30610498D01*
X39845506Y-30669463D01*
X39748815Y-30748815D01*
X39669463Y-30845506D01*
X39610498Y-30955820D01*
X39574188Y-31075518D01*
X39561928Y-31200000D01*
X39561928Y-32257204D01*
X34438579Y-37380554D01*
X34406709Y-37406709D01*
X34309771Y-37524829D01*
X34302364Y-37533855D01*
X34224828Y-37678914D01*
X34177082Y-37836312D01*
X34160960Y-38000000D01*
X34165000Y-38041019D01*
X34165000Y-38332070D01*
X34085241Y-38385363D01*
X33885363Y-38585241D01*
X33728320Y-38820273D01*
X33620147Y-39081426D01*
X33565000Y-39358665D01*
X33565000Y-39641335D01*
X33620147Y-39918574D01*
X33728320Y-40179727D01*
X33885363Y-40414759D01*
X34085241Y-40614637D01*
X34320273Y-40771680D01*
X34581426Y-40879853D01*
X34837060Y-40930702D01*
X32887467Y-42880296D01*
X32935000Y-42641335D01*
X32935000Y-42358665D01*
X32879853Y-42081426D01*
X32771680Y-41820273D01*
X32614637Y-41585241D01*
X32414759Y-41385363D01*
X32179727Y-41228320D01*
X31918574Y-41120147D01*
X31641335Y-41065000D01*
X31358665Y-41065000D01*
X31081426Y-41120147D01*
X30820273Y-41228320D01*
X30585241Y-41385363D01*
X30385363Y-41585241D01*
X30228320Y-41820273D01*
X30120147Y-42081426D01*
X30065000Y-42358665D01*
X20710000Y-42358665D01*
X20710000Y-25845374D01*
X21334231Y-25845374D01*
X21634411Y-26283828D01*
X22213356Y-26594296D01*
X22841746Y-26785852D01*
X23495431Y-26851134D01*
X24149293Y-26787634D01*
X24778203Y-26597792D01*
X25357992Y-26288904D01*
X25365589Y-26283828D01*
X25665769Y-25845374D01*
X23500000Y-23679605D01*
X21334231Y-25845374D01*
X20710000Y-25845374D01*
X20710000Y-25355935D01*
X20711096Y-25357992D01*
X20716172Y-25365589D01*
X21154626Y-25665769D01*
X23320395Y-23500000D01*
X23679605Y-23500000D01*
X25845374Y-25665769D01*
X26076842Y-25507298D01*
X53186903Y-25507298D01*
X54000000Y-26320395D01*
X54813097Y-25507298D01*
X54741514Y-25263329D01*
X54486004Y-25142429D01*
X54211816Y-25073700D01*
X53929488Y-25059783D01*
X53649870Y-25101213D01*
X53383708Y-25196397D01*
X53258486Y-25263329D01*
X53186903Y-25507298D01*
X26076842Y-25507298D01*
X26283828Y-25365589D01*
X26594296Y-24786644D01*
X26785852Y-24158254D01*
X26815771Y-23858665D01*
X38065000Y-23858665D01*
X38065000Y-24141335D01*
X38120147Y-24418574D01*
X38228320Y-24679727D01*
X38385363Y-24914759D01*
X38585241Y-25114637D01*
X38820273Y-25271680D01*
X39081426Y-25379853D01*
X39358665Y-25435000D01*
X39641335Y-25435000D01*
X39918574Y-25379853D01*
X40179727Y-25271680D01*
X40414759Y-25114637D01*
X40614637Y-24914759D01*
X40771680Y-24679727D01*
X40879853Y-24418574D01*
X40893684Y-24349039D01*
X48268096Y-24349039D01*
X48308754Y-24483087D01*
X48428963Y-24737420D01*
X48596481Y-24963414D01*
X48804869Y-25152385D01*
X49046119Y-25297070D01*
X49310960Y-25391909D01*
X49533000Y-25270624D01*
X49533000Y-24127000D01*
X49787000Y-24127000D01*
X49787000Y-25270624D01*
X50009040Y-25391909D01*
X50273881Y-25297070D01*
X50515131Y-25152385D01*
X50723519Y-24963414D01*
X50891037Y-24737420D01*
X51011246Y-24483087D01*
X51051904Y-24349039D01*
X50929915Y-24127000D01*
X49787000Y-24127000D01*
X49533000Y-24127000D01*
X48390085Y-24127000D01*
X48268096Y-24349039D01*
X40893684Y-24349039D01*
X40935000Y-24141335D01*
X40935000Y-23858665D01*
X40893685Y-23650961D01*
X48268096Y-23650961D01*
X48390085Y-23873000D01*
X49533000Y-23873000D01*
X49533000Y-22729376D01*
X49787000Y-22729376D01*
X49787000Y-23873000D01*
X50929915Y-23873000D01*
X51051904Y-23650961D01*
X51011246Y-23516913D01*
X51001093Y-23495431D01*
X80148866Y-23495431D01*
X80212366Y-24149293D01*
X80402208Y-24778203D01*
X80711096Y-25357992D01*
X80716172Y-25365589D01*
X81154626Y-25665769D01*
X83320395Y-23500000D01*
X81154626Y-21334231D01*
X80716172Y-21634411D01*
X80405704Y-22213356D01*
X80214148Y-22841746D01*
X80148866Y-23495431D01*
X51001093Y-23495431D01*
X50891037Y-23262580D01*
X50723519Y-23036586D01*
X50515131Y-22847615D01*
X50273881Y-22702930D01*
X50009040Y-22608091D01*
X49787000Y-22729376D01*
X49533000Y-22729376D01*
X49310960Y-22608091D01*
X49046119Y-22702930D01*
X48804869Y-22847615D01*
X48596481Y-23036586D01*
X48428963Y-23262580D01*
X48308754Y-23516913D01*
X48268096Y-23650961D01*
X40893685Y-23650961D01*
X40879853Y-23581426D01*
X40771680Y-23320273D01*
X40614637Y-23085241D01*
X40414759Y-22885363D01*
X40179727Y-22728320D01*
X39918574Y-22620147D01*
X39641335Y-22565000D01*
X39358665Y-22565000D01*
X39081426Y-22620147D01*
X38820273Y-22728320D01*
X38585241Y-22885363D01*
X38385363Y-23085241D01*
X38228320Y-23320273D01*
X38120147Y-23581426D01*
X38065000Y-23858665D01*
X26815771Y-23858665D01*
X26851134Y-23504569D01*
X26787634Y-22850707D01*
X26597792Y-22221797D01*
X26288904Y-21642008D01*
X26283828Y-21634411D01*
X25845374Y-21334231D01*
X23679605Y-23500000D01*
X23320395Y-23500000D01*
X23306253Y-23485858D01*
X23485858Y-23306253D01*
X23500000Y-23320395D01*
X25665769Y-21154626D01*
X25365589Y-20716172D01*
X25354080Y-20710000D01*
X81644065Y-20710000D01*
X81642008Y-20711096D01*
G37*
X81642008Y-20711096D02*
X81634411Y-20716172D01*
X81334231Y-21154626D01*
X83500000Y-23320395D01*
X83514143Y-23306253D01*
X83693748Y-23485858D01*
X83679605Y-23500000D01*
X85845374Y-25665769D01*
X86283828Y-25365589D01*
X86290001Y-25354078D01*
X86290001Y-30134498D01*
X86230369Y-30074026D01*
X86004091Y-29920531D01*
X85752215Y-29814130D01*
X85679814Y-29799714D01*
X85465000Y-29922323D01*
X85465000Y-31773000D01*
X85485000Y-31773000D01*
X85485000Y-32027000D01*
X85465000Y-32027000D01*
X85465000Y-33877677D01*
X85679814Y-34000286D01*
X85752215Y-33985870D01*
X86004091Y-33879469D01*
X86230369Y-33725974D01*
X86290001Y-33665502D01*
X86290001Y-39734498D01*
X86230369Y-39674026D01*
X86004091Y-39520531D01*
X85752215Y-39414130D01*
X85679814Y-39399714D01*
X85465000Y-39522323D01*
X85465000Y-41373000D01*
X85485000Y-41373000D01*
X85485000Y-41627000D01*
X85465000Y-41627000D01*
X85465000Y-43477677D01*
X85679814Y-43600286D01*
X85752215Y-43585870D01*
X86004091Y-43479469D01*
X86230369Y-43325974D01*
X86290001Y-43265502D01*
X86290001Y-49334498D01*
X86230369Y-49274026D01*
X86004091Y-49120531D01*
X85752215Y-49014130D01*
X85679814Y-48999714D01*
X85465000Y-49122323D01*
X85465000Y-50973000D01*
X85485000Y-50973000D01*
X85485000Y-51227000D01*
X85465000Y-51227000D01*
X85465000Y-53077677D01*
X85679814Y-53200286D01*
X85752215Y-53185870D01*
X86004091Y-53079469D01*
X86230369Y-52925974D01*
X86290000Y-52865502D01*
X86290000Y-58984498D01*
X86230369Y-58924026D01*
X86004091Y-58770531D01*
X85752215Y-58664130D01*
X85679814Y-58649714D01*
X85465000Y-58772323D01*
X85465000Y-60623000D01*
X85485000Y-60623000D01*
X85485000Y-60877000D01*
X85465000Y-60877000D01*
X85465000Y-62727677D01*
X85679814Y-62850286D01*
X85752215Y-62835870D01*
X86004091Y-62729469D01*
X86230369Y-62575974D01*
X86290000Y-62515502D01*
X86290000Y-68534497D01*
X86230369Y-68474026D01*
X86004091Y-68320531D01*
X85752215Y-68214130D01*
X85679814Y-68199714D01*
X85465000Y-68322323D01*
X85465000Y-70173000D01*
X85485000Y-70173000D01*
X85485000Y-70427000D01*
X85465000Y-70427000D01*
X85465000Y-72277677D01*
X85679814Y-72400286D01*
X85752215Y-72385870D01*
X86004091Y-72279469D01*
X86230369Y-72125974D01*
X86290000Y-72065503D01*
X86290000Y-79644065D01*
X86288904Y-79642008D01*
X86283828Y-79634411D01*
X85845374Y-79334231D01*
X83679605Y-81500000D01*
X83693748Y-81514143D01*
X83514143Y-81693748D01*
X83500000Y-81679605D01*
X81334231Y-83845374D01*
X81634411Y-84283828D01*
X81645920Y-84290000D01*
X25355935Y-84290000D01*
X25357992Y-84288904D01*
X25365589Y-84283828D01*
X25665769Y-83845374D01*
X23500000Y-81679605D01*
X23485858Y-81693748D01*
X23306253Y-81514143D01*
X23320395Y-81500000D01*
X23679605Y-81500000D01*
X25845374Y-83665769D01*
X26283828Y-83365589D01*
X26594296Y-82786644D01*
X26785852Y-82158254D01*
X26851134Y-81504569D01*
X26850247Y-81495431D01*
X80148866Y-81495431D01*
X80212366Y-82149293D01*
X80402208Y-82778203D01*
X80711096Y-83357992D01*
X80716172Y-83365589D01*
X81154626Y-83665769D01*
X83320395Y-81500000D01*
X81154626Y-79334231D01*
X80716172Y-79634411D01*
X80405704Y-80213356D01*
X80214148Y-80841746D01*
X80148866Y-81495431D01*
X26850247Y-81495431D01*
X26787634Y-80850707D01*
X26597792Y-80221797D01*
X26288904Y-79642008D01*
X26283828Y-79634411D01*
X25845374Y-79334231D01*
X23679605Y-81500000D01*
X23320395Y-81500000D01*
X21154626Y-79334231D01*
X20716172Y-79634411D01*
X20710000Y-79645920D01*
X20710000Y-79154626D01*
X21334231Y-79154626D01*
X23500000Y-81320395D01*
X25665769Y-79154626D01*
X25365589Y-78716172D01*
X24786644Y-78405704D01*
X24158254Y-78214148D01*
X23504569Y-78148866D01*
X22850707Y-78212366D01*
X22221797Y-78402208D01*
X21642008Y-78711096D01*
X21634411Y-78716172D01*
X21334231Y-79154626D01*
X20710000Y-79154626D01*
X20710000Y-77250000D01*
X31511928Y-77250000D01*
X31511928Y-78450000D01*
X31528992Y-78623254D01*
X31579528Y-78789850D01*
X31661595Y-78943386D01*
X31772038Y-79077962D01*
X31906614Y-79188405D01*
X32060150Y-79270472D01*
X32226746Y-79321008D01*
X32400000Y-79338072D01*
X33600000Y-79338072D01*
X33773254Y-79321008D01*
X33939850Y-79270472D01*
X34093386Y-79188405D01*
X34227962Y-79077962D01*
X34338405Y-78943386D01*
X34373142Y-78878397D01*
X34691208Y-78878397D01*
X34768843Y-79127472D01*
X35032883Y-79253371D01*
X35316411Y-79325339D01*
X35608531Y-79340611D01*
X35898019Y-79298599D01*
X36173747Y-79200919D01*
X36311157Y-79127472D01*
X36388792Y-78878397D01*
X37231208Y-78878397D01*
X37308843Y-79127472D01*
X37572883Y-79253371D01*
X37856411Y-79325339D01*
X38148531Y-79340611D01*
X38438019Y-79298599D01*
X38713747Y-79200919D01*
X38851157Y-79127472D01*
X38928792Y-78878397D01*
X39771208Y-78878397D01*
X39848843Y-79127472D01*
X40112883Y-79253371D01*
X40396411Y-79325339D01*
X40688531Y-79340611D01*
X40978019Y-79298599D01*
X41253747Y-79200919D01*
X41391157Y-79127472D01*
X41468792Y-78878397D01*
X40620000Y-78029605D01*
X39771208Y-78878397D01*
X38928792Y-78878397D01*
X38080000Y-78029605D01*
X37231208Y-78878397D01*
X36388792Y-78878397D01*
X35540000Y-78029605D01*
X34691208Y-78878397D01*
X34373142Y-78878397D01*
X34420472Y-78789850D01*
X34453580Y-78680707D01*
X34511603Y-78698792D01*
X35360395Y-77850000D01*
X35719605Y-77850000D01*
X36568397Y-78698792D01*
X36810000Y-78623486D01*
X37051603Y-78698792D01*
X37900395Y-77850000D01*
X38259605Y-77850000D01*
X39108397Y-78698792D01*
X39350000Y-78623486D01*
X39591603Y-78698792D01*
X40440395Y-77850000D01*
X39591603Y-77001208D01*
X39350000Y-77076514D01*
X39108397Y-77001208D01*
X38259605Y-77850000D01*
X37900395Y-77850000D01*
X37051603Y-77001208D01*
X36810000Y-77076514D01*
X36568397Y-77001208D01*
X35719605Y-77850000D01*
X35360395Y-77850000D01*
X34511603Y-77001208D01*
X34453580Y-77019293D01*
X34420472Y-76910150D01*
X34338405Y-76756614D01*
X34227962Y-76622038D01*
X34093386Y-76511595D01*
X33966392Y-76443715D01*
X34071710Y-76338397D01*
X34691208Y-76338397D01*
X34766514Y-76580000D01*
X34691208Y-76821603D01*
X35540000Y-77670395D01*
X36388792Y-76821603D01*
X36313486Y-76580000D01*
X36388792Y-76338397D01*
X37231208Y-76338397D01*
X37306514Y-76580000D01*
X37231208Y-76821603D01*
X38080000Y-77670395D01*
X38928792Y-76821603D01*
X38853486Y-76580000D01*
X38928792Y-76338397D01*
X39771208Y-76338397D01*
X39846514Y-76580000D01*
X39771208Y-76821603D01*
X40620000Y-77670395D01*
X41468792Y-76821603D01*
X41393486Y-76580000D01*
X41468792Y-76338397D01*
X40620000Y-75489605D01*
X39771208Y-76338397D01*
X38928792Y-76338397D01*
X38080000Y-75489605D01*
X37231208Y-76338397D01*
X36388792Y-76338397D01*
X35540000Y-75489605D01*
X34691208Y-76338397D01*
X34071710Y-76338397D01*
X34153475Y-76256632D01*
X34269311Y-76083271D01*
X34511603Y-76158792D01*
X35360395Y-75310000D01*
X35719605Y-75310000D01*
X36568397Y-76158792D01*
X36810000Y-76083486D01*
X37051603Y-76158792D01*
X37900395Y-75310000D01*
X38259605Y-75310000D01*
X39108397Y-76158792D01*
X39350000Y-76083486D01*
X39591603Y-76158792D01*
X40440395Y-75310000D01*
X39591603Y-74461208D01*
X39350000Y-74536514D01*
X39108397Y-74461208D01*
X38259605Y-75310000D01*
X37900395Y-75310000D01*
X37051603Y-74461208D01*
X36810000Y-74536514D01*
X36568397Y-74461208D01*
X35719605Y-75310000D01*
X35360395Y-75310000D01*
X34511603Y-74461208D01*
X34269311Y-74536729D01*
X34153475Y-74363368D01*
X34071710Y-74281603D01*
X34691208Y-74281603D01*
X35540000Y-75130395D01*
X36388792Y-74281603D01*
X37231208Y-74281603D01*
X38080000Y-75130395D01*
X38928792Y-74281603D01*
X38851157Y-74032528D01*
X38587117Y-73906629D01*
X38303589Y-73834661D01*
X38011469Y-73819389D01*
X37721981Y-73861401D01*
X37446253Y-73959081D01*
X37308843Y-74032528D01*
X37231208Y-74281603D01*
X36388792Y-74281603D01*
X36311157Y-74032528D01*
X36047117Y-73906629D01*
X35763589Y-73834661D01*
X35471469Y-73819389D01*
X35181981Y-73861401D01*
X34906253Y-73959081D01*
X34768843Y-74032528D01*
X34691208Y-74281603D01*
X34071710Y-74281603D01*
X33946632Y-74156525D01*
X33703411Y-73994010D01*
X33433158Y-73882068D01*
X33146260Y-73825000D01*
X32853740Y-73825000D01*
X32566842Y-73882068D01*
X32296589Y-73994010D01*
X32053368Y-74156525D01*
X31846525Y-74363368D01*
X31684010Y-74606589D01*
X31572068Y-74876842D01*
X31515000Y-75163740D01*
X31515000Y-75456260D01*
X31572068Y-75743158D01*
X31684010Y-76013411D01*
X31846525Y-76256632D01*
X32033608Y-76443715D01*
X31906614Y-76511595D01*
X31772038Y-76622038D01*
X31661595Y-76756614D01*
X31579528Y-76910150D01*
X31528992Y-77076746D01*
X31511928Y-77250000D01*
X20710000Y-77250000D01*
X20710000Y-70492702D01*
X34086903Y-70492702D01*
X34158486Y-70736671D01*
X34413996Y-70857571D01*
X34688184Y-70926300D01*
X34970512Y-70940217D01*
X35250130Y-70898787D01*
X35516292Y-70803603D01*
X35641514Y-70736671D01*
X35713097Y-70492702D01*
X34900000Y-69679605D01*
X34086903Y-70492702D01*
X20710000Y-70492702D01*
X20710000Y-69570512D01*
X33459783Y-69570512D01*
X33501213Y-69850130D01*
X33596397Y-70116292D01*
X33663329Y-70241514D01*
X33907298Y-70313097D01*
X34720395Y-69500000D01*
X35079605Y-69500000D01*
X35892702Y-70313097D01*
X36136671Y-70241514D01*
X36257571Y-69986004D01*
X36326300Y-69711816D01*
X36340217Y-69429488D01*
X36298787Y-69149870D01*
X36203603Y-68883708D01*
X36136671Y-68758486D01*
X35892702Y-68686903D01*
X35079605Y-69500000D01*
X34720395Y-69500000D01*
X33907298Y-68686903D01*
X33663329Y-68758486D01*
X33542429Y-69013996D01*
X33473700Y-69288184D01*
X33459783Y-69570512D01*
X20710000Y-69570512D01*
X20710000Y-68507298D01*
X34086903Y-68507298D01*
X34900000Y-69320395D01*
X35713097Y-68507298D01*
X35641514Y-68263329D01*
X35386004Y-68142429D01*
X35111816Y-68073700D01*
X34829488Y-68059783D01*
X34549870Y-68101213D01*
X34283708Y-68196397D01*
X34158486Y-68263329D01*
X34086903Y-68507298D01*
X20710000Y-68507298D01*
X20710000Y-65818665D01*
X30065000Y-65818665D01*
X30065000Y-66101335D01*
X30120147Y-66378574D01*
X30228320Y-66639727D01*
X30385363Y-66874759D01*
X30585241Y-67074637D01*
X30820273Y-67231680D01*
X31081426Y-67339853D01*
X31358665Y-67395000D01*
X31641335Y-67395000D01*
X31918574Y-67339853D01*
X32179727Y-67231680D01*
X32414759Y-67074637D01*
X32614637Y-66874759D01*
X32674612Y-66785000D01*
X34212070Y-66785000D01*
X34265363Y-66864759D01*
X34465241Y-67064637D01*
X34700273Y-67221680D01*
X34961426Y-67329853D01*
X35238665Y-67385000D01*
X35521335Y-67385000D01*
X35798574Y-67329853D01*
X36059727Y-67221680D01*
X36294759Y-67064637D01*
X36494637Y-66864759D01*
X36651680Y-66629727D01*
X36759853Y-66368574D01*
X36815000Y-66091335D01*
X36815000Y-65808665D01*
X36759853Y-65531426D01*
X36651680Y-65270273D01*
X36494637Y-65035241D01*
X36294759Y-64835363D01*
X36062241Y-64680000D01*
X36294759Y-64524637D01*
X36494637Y-64324759D01*
X36651680Y-64089727D01*
X36759853Y-63828574D01*
X36815000Y-63551335D01*
X36815000Y-63268665D01*
X36759853Y-62991426D01*
X36651680Y-62730273D01*
X36494637Y-62495241D01*
X36294759Y-62295363D01*
X36059727Y-62138320D01*
X36049135Y-62133933D01*
X36235131Y-62022385D01*
X36443519Y-61833414D01*
X36611037Y-61607420D01*
X36731246Y-61353087D01*
X36771904Y-61219039D01*
X36649915Y-60997000D01*
X35507000Y-60997000D01*
X35507000Y-61017000D01*
X35253000Y-61017000D01*
X35253000Y-60997000D01*
X34110085Y-60997000D01*
X33988096Y-61219039D01*
X34028754Y-61353087D01*
X34148963Y-61607420D01*
X34316481Y-61833414D01*
X34524869Y-62022385D01*
X34710865Y-62133933D01*
X34700273Y-62138320D01*
X34465241Y-62295363D01*
X34265363Y-62495241D01*
X34108320Y-62730273D01*
X34000147Y-62991426D01*
X33945000Y-63268665D01*
X33945000Y-63551335D01*
X34000147Y-63828574D01*
X34108320Y-64089727D01*
X34265363Y-64324759D01*
X34465241Y-64524637D01*
X34697759Y-64680000D01*
X34465241Y-64835363D01*
X34265363Y-65035241D01*
X34212070Y-65115000D01*
X32661248Y-65115000D01*
X32614637Y-65045241D01*
X32414759Y-64845363D01*
X32179727Y-64688320D01*
X31918574Y-64580147D01*
X31641335Y-64525000D01*
X31358665Y-64525000D01*
X31081426Y-64580147D01*
X30820273Y-64688320D01*
X30585241Y-64845363D01*
X30385363Y-65045241D01*
X30228320Y-65280273D01*
X30120147Y-65541426D01*
X30065000Y-65818665D01*
X20710000Y-65818665D01*
X20710000Y-42358665D01*
X30065000Y-42358665D01*
X30065000Y-42641335D01*
X30120147Y-42918574D01*
X30228320Y-43179727D01*
X30385363Y-43414759D01*
X30585241Y-43614637D01*
X30820273Y-43771680D01*
X31081426Y-43879853D01*
X31358665Y-43935000D01*
X31641335Y-43935000D01*
X31880296Y-43887467D01*
X30938574Y-44829189D01*
X30906710Y-44855339D01*
X30880562Y-44887201D01*
X30802364Y-44982485D01*
X30724828Y-45127544D01*
X30677082Y-45284942D01*
X30660960Y-45448630D01*
X30665001Y-45489658D01*
X30665000Y-51492070D01*
X30585241Y-51545363D01*
X30385363Y-51745241D01*
X30228320Y-51980273D01*
X30120147Y-52241426D01*
X30065000Y-52518665D01*
X30065000Y-52801335D01*
X30120147Y-53078574D01*
X30228320Y-53339727D01*
X30385363Y-53574759D01*
X30585241Y-53774637D01*
X30665001Y-53827931D01*
X30665000Y-54632070D01*
X30585241Y-54685363D01*
X30385363Y-54885241D01*
X30228320Y-55120273D01*
X30120147Y-55381426D01*
X30065000Y-55658665D01*
X30065000Y-55941335D01*
X30120147Y-56218574D01*
X30228320Y-56479727D01*
X30385363Y-56714759D01*
X30585241Y-56914637D01*
X30820273Y-57071680D01*
X31081426Y-57179853D01*
X31358665Y-57235000D01*
X31641335Y-57235000D01*
X31918574Y-57179853D01*
X32179727Y-57071680D01*
X32414759Y-56914637D01*
X32614637Y-56714759D01*
X32771680Y-56479727D01*
X32879853Y-56218574D01*
X32935000Y-55941335D01*
X32935000Y-55658665D01*
X32879853Y-55381426D01*
X32771680Y-55120273D01*
X32614637Y-54885241D01*
X32414759Y-54685363D01*
X32335000Y-54632070D01*
X32335000Y-53827930D01*
X32414759Y-53774637D01*
X32614637Y-53574759D01*
X32771680Y-53339727D01*
X32867388Y-53108665D01*
X33945000Y-53108665D01*
X33945000Y-53391335D01*
X34000147Y-53668574D01*
X34108320Y-53929727D01*
X34265363Y-54164759D01*
X34465241Y-54364637D01*
X34697759Y-54520000D01*
X34465241Y-54675363D01*
X34265363Y-54875241D01*
X34108320Y-55110273D01*
X34000147Y-55371426D01*
X33945000Y-55648665D01*
X33945000Y-55931335D01*
X34000147Y-56208574D01*
X34108320Y-56469727D01*
X34265363Y-56704759D01*
X34465241Y-56904637D01*
X34697759Y-57060000D01*
X34465241Y-57215363D01*
X34265363Y-57415241D01*
X34108320Y-57650273D01*
X34000147Y-57911426D01*
X33945000Y-58188665D01*
X33945000Y-58471335D01*
X34000147Y-58748574D01*
X34108320Y-59009727D01*
X34265363Y-59244759D01*
X34465241Y-59444637D01*
X34700273Y-59601680D01*
X34710865Y-59606067D01*
X34524869Y-59717615D01*
X34316481Y-59906586D01*
X34148963Y-60132580D01*
X34028754Y-60386913D01*
X33988096Y-60520961D01*
X34110085Y-60743000D01*
X35253000Y-60743000D01*
X35253000Y-60723000D01*
X35507000Y-60723000D01*
X35507000Y-60743000D01*
X36649915Y-60743000D01*
X36771904Y-60520961D01*
X36731246Y-60386913D01*
X36611037Y-60132580D01*
X36443519Y-59906586D01*
X36235131Y-59717615D01*
X36049135Y-59606067D01*
X36059727Y-59601680D01*
X36294759Y-59444637D01*
X36494637Y-59244759D01*
X36651680Y-59009727D01*
X36759853Y-58748574D01*
X36815000Y-58471335D01*
X36815000Y-58188665D01*
X36759853Y-57911426D01*
X36651680Y-57650273D01*
X36494637Y-57415241D01*
X36294759Y-57215363D01*
X36062241Y-57060000D01*
X36294759Y-56904637D01*
X36494637Y-56704759D01*
X36651680Y-56469727D01*
X36759853Y-56208574D01*
X36815000Y-55931335D01*
X36815000Y-55648665D01*
X36796285Y-55554582D01*
X40425000Y-51925869D01*
X40425001Y-68164230D01*
X40318574Y-68120147D01*
X40041335Y-68065000D01*
X39758665Y-68065000D01*
X39481426Y-68120147D01*
X39220273Y-68228320D01*
X38985241Y-68385363D01*
X38785363Y-68585241D01*
X38628320Y-68820273D01*
X38520147Y-69081426D01*
X38465000Y-69358665D01*
X38465000Y-69641335D01*
X38520147Y-69918574D01*
X38628320Y-70179727D01*
X38785363Y-70414759D01*
X38985241Y-70614637D01*
X39220273Y-70771680D01*
X39481426Y-70879853D01*
X39758665Y-70935000D01*
X40041335Y-70935000D01*
X40318574Y-70879853D01*
X40425001Y-70835770D01*
X40425001Y-73416521D01*
X40420719Y-73460000D01*
X40437805Y-73633490D01*
X40488412Y-73800313D01*
X40502413Y-73826508D01*
X40261981Y-73861401D01*
X39986253Y-73959081D01*
X39848843Y-74032528D01*
X39771208Y-74281603D01*
X40620000Y-75130395D01*
X40634143Y-75116253D01*
X40813748Y-75295858D01*
X40799605Y-75310000D01*
X41648397Y-76158792D01*
X41890689Y-76083271D01*
X42006525Y-76256632D01*
X42213368Y-76463475D01*
X42387760Y-76580000D01*
X42213368Y-76696525D01*
X42006525Y-76903368D01*
X41890689Y-77076729D01*
X41648397Y-77001208D01*
X40799605Y-77850000D01*
X41648397Y-78698792D01*
X41890689Y-78623271D01*
X42006525Y-78796632D01*
X42213368Y-79003475D01*
X42456589Y-79165990D01*
X42726842Y-79277932D01*
X43013740Y-79335000D01*
X43306260Y-79335000D01*
X43593158Y-79277932D01*
X43863411Y-79165990D01*
X44106632Y-79003475D01*
X44313475Y-78796632D01*
X44430000Y-78622240D01*
X44546525Y-78796632D01*
X44753368Y-79003475D01*
X44996589Y-79165990D01*
X45266842Y-79277932D01*
X45553740Y-79335000D01*
X45846260Y-79335000D01*
X46133158Y-79277932D01*
X46403411Y-79165990D01*
X46646632Y-79003475D01*
X46853475Y-78796632D01*
X46970000Y-78622240D01*
X47086525Y-78796632D01*
X47293368Y-79003475D01*
X47536589Y-79165990D01*
X47806842Y-79277932D01*
X48093740Y-79335000D01*
X48386260Y-79335000D01*
X48673158Y-79277932D01*
X48943411Y-79165990D01*
X49186632Y-79003475D01*
X49393475Y-78796632D01*
X49510000Y-78622240D01*
X49626525Y-78796632D01*
X49833368Y-79003475D01*
X50076589Y-79165990D01*
X50346842Y-79277932D01*
X50633740Y-79335000D01*
X50926260Y-79335000D01*
X51213158Y-79277932D01*
X51483411Y-79165990D01*
X51500418Y-79154626D01*
X81334231Y-79154626D01*
X83500000Y-81320395D01*
X85665769Y-79154626D01*
X85365589Y-78716172D01*
X84786644Y-78405704D01*
X84158254Y-78214148D01*
X83504569Y-78148866D01*
X82850707Y-78212366D01*
X82221797Y-78402208D01*
X81642008Y-78711096D01*
X81634411Y-78716172D01*
X81334231Y-79154626D01*
X51500418Y-79154626D01*
X51726632Y-79003475D01*
X51933475Y-78796632D01*
X52095990Y-78553411D01*
X52207932Y-78283158D01*
X52265000Y-77996260D01*
X52265000Y-77703740D01*
X52207932Y-77416842D01*
X52095990Y-77146589D01*
X51933475Y-76903368D01*
X51726632Y-76696525D01*
X51552240Y-76580000D01*
X51726632Y-76463475D01*
X51933475Y-76256632D01*
X52095990Y-76013411D01*
X52207932Y-75743158D01*
X52265000Y-75456260D01*
X52265000Y-75163740D01*
X52207932Y-74876842D01*
X52095990Y-74606589D01*
X51933475Y-74363368D01*
X51726632Y-74156525D01*
X51483411Y-73994010D01*
X51213158Y-73882068D01*
X50926260Y-73825000D01*
X50633740Y-73825000D01*
X50346842Y-73882068D01*
X50076589Y-73994010D01*
X49833368Y-74156525D01*
X49626525Y-74363368D01*
X49510000Y-74537760D01*
X49393475Y-74363368D01*
X49186632Y-74156525D01*
X48943411Y-73994010D01*
X48673158Y-73882068D01*
X48386260Y-73825000D01*
X48093740Y-73825000D01*
X47806842Y-73882068D01*
X47536589Y-73994010D01*
X47293368Y-74156525D01*
X47086525Y-74363368D01*
X46970000Y-74537760D01*
X46853475Y-74363368D01*
X46646632Y-74156525D01*
X46403411Y-73994010D01*
X46133158Y-73882068D01*
X45846260Y-73825000D01*
X45553740Y-73825000D01*
X45266842Y-73882068D01*
X44996589Y-73994010D01*
X44753368Y-74156525D01*
X44546525Y-74363368D01*
X44430000Y-74537760D01*
X44313475Y-74363368D01*
X44106632Y-74156525D01*
X43863411Y-73994010D01*
X43593158Y-73882068D01*
X43306260Y-73825000D01*
X43013740Y-73825000D01*
X42941040Y-73839461D01*
X42195000Y-73093422D01*
X42195000Y-70844054D01*
X42281426Y-70879853D01*
X42558665Y-70935000D01*
X42841335Y-70935000D01*
X43118574Y-70879853D01*
X43379727Y-70771680D01*
X43614759Y-70614637D01*
X43736694Y-70492702D01*
X46886903Y-70492702D01*
X46958486Y-70736671D01*
X47213996Y-70857571D01*
X47488184Y-70926300D01*
X47770512Y-70940217D01*
X48050130Y-70898787D01*
X48316292Y-70803603D01*
X48441514Y-70736671D01*
X48513097Y-70492702D01*
X49686903Y-70492702D01*
X49758486Y-70736671D01*
X50013996Y-70857571D01*
X50288184Y-70926300D01*
X50570512Y-70940217D01*
X50850130Y-70898787D01*
X51116292Y-70803603D01*
X51241514Y-70736671D01*
X51313097Y-70492702D01*
X50500000Y-69679605D01*
X49686903Y-70492702D01*
X48513097Y-70492702D01*
X47700000Y-69679605D01*
X46886903Y-70492702D01*
X43736694Y-70492702D01*
X43814637Y-70414759D01*
X43971680Y-70179727D01*
X44079853Y-69918574D01*
X44135000Y-69641335D01*
X44135000Y-69570512D01*
X46259783Y-69570512D01*
X46301213Y-69850130D01*
X46396397Y-70116292D01*
X46463329Y-70241514D01*
X46707298Y-70313097D01*
X47520395Y-69500000D01*
X47879605Y-69500000D01*
X48692702Y-70313097D01*
X48936671Y-70241514D01*
X49057571Y-69986004D01*
X49097653Y-69826101D01*
X49101213Y-69850130D01*
X49196397Y-70116292D01*
X49263329Y-70241514D01*
X49507298Y-70313097D01*
X50320395Y-69500000D01*
X50679605Y-69500000D01*
X51492702Y-70313097D01*
X51736671Y-70241514D01*
X51857571Y-69986004D01*
X51926300Y-69711816D01*
X51940217Y-69429488D01*
X51898787Y-69149870D01*
X51803603Y-68883708D01*
X51736671Y-68758486D01*
X51492702Y-68686903D01*
X50679605Y-69500000D01*
X50320395Y-69500000D01*
X49507298Y-68686903D01*
X49263329Y-68758486D01*
X49142429Y-69013996D01*
X49102347Y-69173899D01*
X49098787Y-69149870D01*
X49003603Y-68883708D01*
X48936671Y-68758486D01*
X48692702Y-68686903D01*
X47879605Y-69500000D01*
X47520395Y-69500000D01*
X46707298Y-68686903D01*
X46463329Y-68758486D01*
X46342429Y-69013996D01*
X46273700Y-69288184D01*
X46259783Y-69570512D01*
X44135000Y-69570512D01*
X44135000Y-69358665D01*
X44079853Y-69081426D01*
X43971680Y-68820273D01*
X43814637Y-68585241D01*
X43736694Y-68507298D01*
X46886903Y-68507298D01*
X47700000Y-69320395D01*
X48513097Y-68507298D01*
X49686903Y-68507298D01*
X50500000Y-69320395D01*
X51313097Y-68507298D01*
X51241514Y-68263329D01*
X50986004Y-68142429D01*
X50711816Y-68073700D01*
X50429488Y-68059783D01*
X50149870Y-68101213D01*
X49883708Y-68196397D01*
X49758486Y-68263329D01*
X49686903Y-68507298D01*
X48513097Y-68507298D01*
X48441514Y-68263329D01*
X48186004Y-68142429D01*
X47911816Y-68073700D01*
X47629488Y-68059783D01*
X47349870Y-68101213D01*
X47083708Y-68196397D01*
X46958486Y-68263329D01*
X46886903Y-68507298D01*
X43736694Y-68507298D01*
X43614759Y-68385363D01*
X43379727Y-68228320D01*
X43118574Y-68120147D01*
X42841335Y-68065000D01*
X42558665Y-68065000D01*
X42281426Y-68120147D01*
X42195000Y-68155946D01*
X42195000Y-67387580D01*
X42200000Y-67388072D01*
X43800000Y-67388072D01*
X43924482Y-67375812D01*
X44044180Y-67339502D01*
X44154494Y-67280537D01*
X44251185Y-67201185D01*
X44330537Y-67104494D01*
X44389502Y-66994180D01*
X44425812Y-66874482D01*
X44438072Y-66750000D01*
X44438072Y-66289039D01*
X45958096Y-66289039D01*
X45998754Y-66423087D01*
X46118963Y-66677420D01*
X46286481Y-66903414D01*
X46494869Y-67092385D01*
X46736119Y-67237070D01*
X47000960Y-67331909D01*
X47223000Y-67210624D01*
X47223000Y-66067000D01*
X47477000Y-66067000D01*
X47477000Y-67210624D01*
X47699040Y-67331909D01*
X47963881Y-67237070D01*
X48205131Y-67092385D01*
X48413519Y-66903414D01*
X48581037Y-66677420D01*
X48701246Y-66423087D01*
X48741904Y-66289039D01*
X48619915Y-66067000D01*
X47477000Y-66067000D01*
X47223000Y-66067000D01*
X46080085Y-66067000D01*
X45958096Y-66289039D01*
X44438072Y-66289039D01*
X44438072Y-65150000D01*
X44425812Y-65025518D01*
X44389502Y-64905820D01*
X44330537Y-64795506D01*
X44251185Y-64698815D01*
X44154494Y-64619463D01*
X44044180Y-64560498D01*
X43924482Y-64524188D01*
X43916039Y-64523357D01*
X44114637Y-64324759D01*
X44271680Y-64089727D01*
X44379853Y-63828574D01*
X44435000Y-63551335D01*
X44435000Y-63268665D01*
X44379853Y-62991426D01*
X44271680Y-62730273D01*
X44114637Y-62495241D01*
X43914759Y-62295363D01*
X43679727Y-62138320D01*
X43669135Y-62133933D01*
X43855131Y-62022385D01*
X44063519Y-61833414D01*
X44231037Y-61607420D01*
X44351246Y-61353087D01*
X44391904Y-61219039D01*
X44269915Y-60997000D01*
X43127000Y-60997000D01*
X43127000Y-61017000D01*
X42873000Y-61017000D01*
X42873000Y-60997000D01*
X42853000Y-60997000D01*
X42853000Y-60743000D01*
X42873000Y-60743000D01*
X42873000Y-60723000D01*
X43127000Y-60723000D01*
X43127000Y-60743000D01*
X44269915Y-60743000D01*
X44283284Y-60718665D01*
X45915000Y-60718665D01*
X45915000Y-61001335D01*
X45970147Y-61278574D01*
X46078320Y-61539727D01*
X46235363Y-61774759D01*
X46435241Y-61974637D01*
X46667759Y-62130000D01*
X46435241Y-62285363D01*
X46235363Y-62485241D01*
X46078320Y-62720273D01*
X45970147Y-62981426D01*
X45915000Y-63258665D01*
X45915000Y-63541335D01*
X45970147Y-63818574D01*
X46078320Y-64079727D01*
X46235363Y-64314759D01*
X46435241Y-64514637D01*
X46670273Y-64671680D01*
X46680865Y-64676067D01*
X46494869Y-64787615D01*
X46286481Y-64976586D01*
X46118963Y-65202580D01*
X45998754Y-65456913D01*
X45958096Y-65590961D01*
X46080085Y-65813000D01*
X47223000Y-65813000D01*
X47223000Y-65793000D01*
X47477000Y-65793000D01*
X47477000Y-65813000D01*
X48619915Y-65813000D01*
X48741904Y-65590961D01*
X48701246Y-65456913D01*
X48581037Y-65202580D01*
X48413519Y-64976586D01*
X48205131Y-64787615D01*
X48019135Y-64676067D01*
X48029727Y-64671680D01*
X48264759Y-64514637D01*
X48464637Y-64314759D01*
X48621680Y-64079727D01*
X48729853Y-63818574D01*
X48785000Y-63541335D01*
X48785000Y-63258665D01*
X48729853Y-62981426D01*
X48621680Y-62720273D01*
X48464637Y-62485241D01*
X48264759Y-62285363D01*
X48032241Y-62130000D01*
X48264759Y-61974637D01*
X48464637Y-61774759D01*
X48621680Y-61539727D01*
X48729853Y-61278574D01*
X48785000Y-61001335D01*
X48785000Y-60718665D01*
X48729853Y-60441426D01*
X48621680Y-60180273D01*
X48464637Y-59945241D01*
X48264759Y-59745363D01*
X48029727Y-59588320D01*
X48019135Y-59583933D01*
X48205131Y-59472385D01*
X48413519Y-59283414D01*
X48581037Y-59057420D01*
X48701246Y-58803087D01*
X48741904Y-58669039D01*
X48619915Y-58447000D01*
X47477000Y-58447000D01*
X47477000Y-58467000D01*
X47223000Y-58467000D01*
X47223000Y-58447000D01*
X46080085Y-58447000D01*
X45958096Y-58669039D01*
X45998754Y-58803087D01*
X46118963Y-59057420D01*
X46286481Y-59283414D01*
X46494869Y-59472385D01*
X46680865Y-59583933D01*
X46670273Y-59588320D01*
X46435241Y-59745363D01*
X46235363Y-59945241D01*
X46078320Y-60180273D01*
X45970147Y-60441426D01*
X45915000Y-60718665D01*
X44283284Y-60718665D01*
X44391904Y-60520961D01*
X44351246Y-60386913D01*
X44231037Y-60132580D01*
X44063519Y-59906586D01*
X43855131Y-59717615D01*
X43669135Y-59606067D01*
X43679727Y-59601680D01*
X43914759Y-59444637D01*
X44114637Y-59244759D01*
X44271680Y-59009727D01*
X44379853Y-58748574D01*
X44435000Y-58471335D01*
X44435000Y-58188665D01*
X44416286Y-58094582D01*
X45895869Y-56615000D01*
X46182070Y-56615000D01*
X46235363Y-56694759D01*
X46435241Y-56894637D01*
X46670273Y-57051680D01*
X46680865Y-57056067D01*
X46494869Y-57167615D01*
X46286481Y-57356586D01*
X46118963Y-57582580D01*
X45998754Y-57836913D01*
X45958096Y-57970961D01*
X46080085Y-58193000D01*
X47223000Y-58193000D01*
X47223000Y-58173000D01*
X47477000Y-58173000D01*
X47477000Y-58193000D01*
X48619915Y-58193000D01*
X48741904Y-57970961D01*
X48701246Y-57836913D01*
X48581037Y-57582580D01*
X48413519Y-57356586D01*
X48205131Y-57167615D01*
X48019135Y-57056067D01*
X48029727Y-57051680D01*
X48264759Y-56894637D01*
X48464637Y-56694759D01*
X48621680Y-56459727D01*
X48729853Y-56198574D01*
X48785000Y-55921335D01*
X48785000Y-55638665D01*
X48729853Y-55361426D01*
X48621680Y-55100273D01*
X48464637Y-54865241D01*
X48264759Y-54665363D01*
X48032241Y-54510000D01*
X48264759Y-54354637D01*
X48464637Y-54154759D01*
X48621680Y-53919727D01*
X48729853Y-53658574D01*
X48785000Y-53381335D01*
X48785000Y-53098665D01*
X48729853Y-52821426D01*
X48621680Y-52560273D01*
X48464637Y-52325241D01*
X48266039Y-52126643D01*
X48274482Y-52125812D01*
X48394180Y-52089502D01*
X48504494Y-52030537D01*
X48601185Y-51951185D01*
X48680537Y-51854494D01*
X48739502Y-51744180D01*
X48775812Y-51624482D01*
X48788072Y-51500000D01*
X48785000Y-50985750D01*
X48626250Y-50827000D01*
X47477000Y-50827000D01*
X47477000Y-50847000D01*
X47223000Y-50847000D01*
X47223000Y-50827000D01*
X46073750Y-50827000D01*
X45915000Y-50985750D01*
X45911928Y-51500000D01*
X45924188Y-51624482D01*
X45960498Y-51744180D01*
X46019463Y-51854494D01*
X46098815Y-51951185D01*
X46195506Y-52030537D01*
X46305820Y-52089502D01*
X46425518Y-52125812D01*
X46433961Y-52126643D01*
X46235363Y-52325241D01*
X46078320Y-52560273D01*
X45970147Y-52821426D01*
X45915000Y-53098665D01*
X45915000Y-53381335D01*
X45970147Y-53658574D01*
X46078320Y-53919727D01*
X46235363Y-54154759D01*
X46435241Y-54354637D01*
X46667759Y-54510000D01*
X46435241Y-54665363D01*
X46235363Y-54865241D01*
X46182070Y-54945000D01*
X45591018Y-54945000D01*
X45550000Y-54940960D01*
X45508982Y-54945000D01*
X45508981Y-54945000D01*
X45386311Y-54957082D01*
X45305878Y-54981481D01*
X45228913Y-55004828D01*
X45083854Y-55082364D01*
X45037662Y-55120273D01*
X44956709Y-55186709D01*
X44930563Y-55218568D01*
X44435000Y-55714131D01*
X44435000Y-55648665D01*
X44379853Y-55371426D01*
X44271680Y-55110273D01*
X44114637Y-54875241D01*
X43914759Y-54675363D01*
X43682241Y-54520000D01*
X43914759Y-54364637D01*
X44114637Y-54164759D01*
X44271680Y-53929727D01*
X44379853Y-53668574D01*
X44435000Y-53391335D01*
X44435000Y-53108665D01*
X44379853Y-52831426D01*
X44271680Y-52570273D01*
X44114637Y-52335241D01*
X43914759Y-52135363D01*
X43682241Y-51980000D01*
X43914759Y-51824637D01*
X44114637Y-51624759D01*
X44271680Y-51389727D01*
X44379853Y-51128574D01*
X44435000Y-50851335D01*
X44435000Y-50568665D01*
X44379853Y-50291426D01*
X44271680Y-50030273D01*
X44184635Y-49900000D01*
X45911928Y-49900000D01*
X45915000Y-50414250D01*
X46073750Y-50573000D01*
X47223000Y-50573000D01*
X47223000Y-49423750D01*
X47477000Y-49423750D01*
X47477000Y-50573000D01*
X48626250Y-50573000D01*
X48785000Y-50414250D01*
X48788072Y-49900000D01*
X48775812Y-49775518D01*
X48739502Y-49655820D01*
X48680537Y-49545506D01*
X48601185Y-49448815D01*
X48504494Y-49369463D01*
X48394180Y-49310498D01*
X48274482Y-49274188D01*
X48150000Y-49261928D01*
X47635750Y-49265000D01*
X47477000Y-49423750D01*
X47223000Y-49423750D01*
X47064250Y-49265000D01*
X46550000Y-49261928D01*
X46425518Y-49274188D01*
X46305820Y-49310498D01*
X46195506Y-49369463D01*
X46098815Y-49448815D01*
X46019463Y-49545506D01*
X45960498Y-49655820D01*
X45924188Y-49775518D01*
X45911928Y-49900000D01*
X44184635Y-49900000D01*
X44114637Y-49795241D01*
X43914759Y-49595363D01*
X43679727Y-49438320D01*
X43675152Y-49436425D01*
X47505049Y-45606528D01*
X47538817Y-45578815D01*
X47567819Y-45543477D01*
X47649410Y-45444058D01*
X47651658Y-45439853D01*
X47731589Y-45290311D01*
X47782195Y-45123488D01*
X47795000Y-44993475D01*
X47795000Y-44993467D01*
X47799281Y-44949998D01*
X47795000Y-44906529D01*
X47795000Y-40794612D01*
X47839813Y-40824555D01*
X47844828Y-40841086D01*
X47922364Y-40986145D01*
X48026709Y-41113291D01*
X48058579Y-41139446D01*
X49683714Y-42764583D01*
X49665000Y-42858665D01*
X49665000Y-43141335D01*
X49720147Y-43418574D01*
X49828320Y-43679727D01*
X49985363Y-43914759D01*
X50185241Y-44114637D01*
X50325001Y-44208021D01*
X50325000Y-45832070D01*
X50245241Y-45885363D01*
X50045363Y-46085241D01*
X49888320Y-46320273D01*
X49780147Y-46581426D01*
X49725000Y-46858665D01*
X49725000Y-47141335D01*
X49780147Y-47418574D01*
X49888320Y-47679727D01*
X50045363Y-47914759D01*
X50245241Y-48114637D01*
X50480273Y-48271680D01*
X50741426Y-48379853D01*
X51018665Y-48435000D01*
X51301335Y-48435000D01*
X51578574Y-48379853D01*
X51839727Y-48271680D01*
X52074759Y-48114637D01*
X52274637Y-47914759D01*
X52431680Y-47679727D01*
X52539853Y-47418574D01*
X52595000Y-47141335D01*
X52595000Y-46858665D01*
X52539853Y-46581426D01*
X52431680Y-46320273D01*
X52274637Y-46085241D01*
X52074759Y-45885363D01*
X51995000Y-45832070D01*
X51995000Y-44127840D01*
X52014759Y-44114637D01*
X52214637Y-43914759D01*
X52371680Y-43679727D01*
X52479853Y-43418574D01*
X52535000Y-43141335D01*
X52535000Y-42858665D01*
X52479853Y-42581426D01*
X52371680Y-42320273D01*
X52214637Y-42085241D01*
X52014759Y-41885363D01*
X51779727Y-41728320D01*
X51518574Y-41620147D01*
X51241335Y-41565000D01*
X50958665Y-41565000D01*
X50864583Y-41583714D01*
X49767077Y-40486209D01*
X49891680Y-40299727D01*
X49999853Y-40038574D01*
X50055000Y-39761335D01*
X50055000Y-39695868D01*
X53444868Y-43085736D01*
X53385363Y-43145241D01*
X53228320Y-43380273D01*
X53120147Y-43641426D01*
X53065000Y-43918665D01*
X53065000Y-44201335D01*
X53120147Y-44478574D01*
X53228320Y-44739727D01*
X53385363Y-44974759D01*
X53585241Y-45174637D01*
X53820273Y-45331680D01*
X54081426Y-45439853D01*
X54358665Y-45495000D01*
X54641335Y-45495000D01*
X54918574Y-45439853D01*
X55179727Y-45331680D01*
X55414759Y-45174637D01*
X55614637Y-44974759D01*
X55771680Y-44739727D01*
X55879853Y-44478574D01*
X55935000Y-44201335D01*
X55935000Y-43918665D01*
X55879853Y-43641426D01*
X55771680Y-43380273D01*
X55614637Y-43145241D01*
X55414759Y-42945363D01*
X55332163Y-42890174D01*
X55322918Y-42796312D01*
X55320287Y-42787637D01*
X55275172Y-42638913D01*
X55197636Y-42493854D01*
X55119439Y-42398570D01*
X55119437Y-42398568D01*
X55093291Y-42366709D01*
X55061432Y-42340563D01*
X50036285Y-37315418D01*
X50055000Y-37221335D01*
X50055000Y-36938665D01*
X49999853Y-36661426D01*
X49891680Y-36400273D01*
X49734637Y-36165241D01*
X49534759Y-35965363D01*
X49302241Y-35810000D01*
X49534759Y-35654637D01*
X49734637Y-35454759D01*
X49787930Y-35375000D01*
X53818982Y-35375000D01*
X53860000Y-35379040D01*
X53901018Y-35375000D01*
X53901019Y-35375000D01*
X54023689Y-35362918D01*
X54181087Y-35315172D01*
X54202214Y-35303879D01*
X54358665Y-35335000D01*
X54641335Y-35335000D01*
X54735418Y-35316285D01*
X56990564Y-37571433D01*
X57016710Y-37603292D01*
X57048569Y-37629438D01*
X57048571Y-37629440D01*
X57108856Y-37678914D01*
X57143855Y-37707637D01*
X57288914Y-37785173D01*
X57446312Y-37832919D01*
X57568982Y-37845001D01*
X57568983Y-37845001D01*
X57610001Y-37849041D01*
X57651019Y-37845001D01*
X57891115Y-37845001D01*
X57882068Y-37866842D01*
X57825000Y-38153740D01*
X57825000Y-38446260D01*
X57882068Y-38733158D01*
X57994010Y-39003411D01*
X58042759Y-39076370D01*
X56478574Y-40640557D01*
X56446710Y-40666707D01*
X56365907Y-40765166D01*
X56342364Y-40793853D01*
X56264828Y-40938912D01*
X56217082Y-41096310D01*
X56200960Y-41259998D01*
X56205001Y-41301027D01*
X56205000Y-49965378D01*
X56084637Y-49785241D01*
X55884759Y-49585363D01*
X55649727Y-49428320D01*
X55388574Y-49320147D01*
X55111335Y-49265000D01*
X54828665Y-49265000D01*
X54551426Y-49320147D01*
X54290273Y-49428320D01*
X54055241Y-49585363D01*
X53855363Y-49785241D01*
X53835479Y-49815000D01*
X52733466Y-49815000D01*
X52689999Y-49810719D01*
X52646533Y-49815000D01*
X52646523Y-49815000D01*
X52516510Y-49827805D01*
X52349687Y-49878411D01*
X52195941Y-49960589D01*
X52195939Y-49960590D01*
X52195940Y-49960590D01*
X52094953Y-50043468D01*
X52094951Y-50043470D01*
X52061183Y-50071183D01*
X52033470Y-50104951D01*
X50544951Y-51593471D01*
X50511184Y-51621183D01*
X50483471Y-51654951D01*
X50483468Y-51654954D01*
X50400590Y-51755941D01*
X50318412Y-51909687D01*
X50267805Y-52076510D01*
X50250719Y-52250000D01*
X50255001Y-52293479D01*
X50255000Y-65096531D01*
X50250719Y-65140000D01*
X50255000Y-65183469D01*
X50255000Y-65183476D01*
X50267805Y-65313489D01*
X50318411Y-65480312D01*
X50400589Y-65634058D01*
X50511183Y-65768817D01*
X50544956Y-65796534D01*
X54071983Y-69323561D01*
X54065000Y-69358665D01*
X54065000Y-69641335D01*
X54120147Y-69918574D01*
X54228320Y-70179727D01*
X54385363Y-70414759D01*
X54585241Y-70614637D01*
X54820273Y-70771680D01*
X55081426Y-70879853D01*
X55358665Y-70935000D01*
X55641335Y-70935000D01*
X55918574Y-70879853D01*
X56179727Y-70771680D01*
X56414759Y-70614637D01*
X56614637Y-70414759D01*
X56771680Y-70179727D01*
X56879853Y-69918574D01*
X56935000Y-69641335D01*
X56935000Y-69358665D01*
X56879853Y-69081426D01*
X56771680Y-68820273D01*
X56614637Y-68585241D01*
X56414759Y-68385363D01*
X56179727Y-68228320D01*
X55918574Y-68120147D01*
X55641335Y-68065000D01*
X55358665Y-68065000D01*
X55323561Y-68071983D01*
X54576399Y-67324821D01*
X54828665Y-67375000D01*
X55111335Y-67375000D01*
X55388574Y-67319853D01*
X55649727Y-67211680D01*
X55884759Y-67054637D01*
X56084637Y-66854759D01*
X56241680Y-66619727D01*
X56349853Y-66358574D01*
X56405000Y-66081335D01*
X56405000Y-65798665D01*
X56402282Y-65785001D01*
X57891115Y-65785001D01*
X57882068Y-65806842D01*
X57825000Y-66093740D01*
X57825000Y-66386260D01*
X57882068Y-66673158D01*
X57994010Y-66943411D01*
X58156525Y-67186632D01*
X58363368Y-67393475D01*
X58537760Y-67510000D01*
X58363368Y-67626525D01*
X58156525Y-67833368D01*
X57994010Y-68076589D01*
X57882068Y-68346842D01*
X57825000Y-68633740D01*
X57825000Y-68926260D01*
X57882068Y-69213158D01*
X57994010Y-69483411D01*
X58156525Y-69726632D01*
X58363368Y-69933475D01*
X58545534Y-70055195D01*
X58428645Y-70124822D01*
X58212412Y-70319731D01*
X58038359Y-70553080D01*
X57913175Y-70815901D01*
X57868524Y-70963110D01*
X57989845Y-71193000D01*
X59183000Y-71193000D01*
X59183000Y-71173000D01*
X59437000Y-71173000D01*
X59437000Y-71193000D01*
X59457000Y-71193000D01*
X59457000Y-71447000D01*
X59437000Y-71447000D01*
X59437000Y-71467000D01*
X59183000Y-71467000D01*
X59183000Y-71447000D01*
X57989845Y-71447000D01*
X57868524Y-71676890D01*
X57913175Y-71824099D01*
X58038359Y-72086920D01*
X58212412Y-72320269D01*
X58428645Y-72515178D01*
X58545534Y-72584805D01*
X58363368Y-72706525D01*
X58156525Y-72913368D01*
X57994010Y-73156589D01*
X57882068Y-73426842D01*
X57825000Y-73713740D01*
X57825000Y-74006260D01*
X57882068Y-74293158D01*
X57994010Y-74563411D01*
X58156525Y-74806632D01*
X58363368Y-75013475D01*
X58537760Y-75130000D01*
X58363368Y-75246525D01*
X58156525Y-75453368D01*
X57994010Y-75696589D01*
X57882068Y-75966842D01*
X57825000Y-76253740D01*
X57825000Y-76546260D01*
X57882068Y-76833158D01*
X57994010Y-77103411D01*
X58156525Y-77346632D01*
X58363368Y-77553475D01*
X58606589Y-77715990D01*
X58876842Y-77827932D01*
X59163740Y-77885000D01*
X59456260Y-77885000D01*
X59743158Y-77827932D01*
X60013411Y-77715990D01*
X60256632Y-77553475D01*
X60388487Y-77421620D01*
X60410498Y-77494180D01*
X60469463Y-77604494D01*
X60548815Y-77701185D01*
X60645506Y-77780537D01*
X60755820Y-77839502D01*
X60875518Y-77875812D01*
X61000000Y-77888072D01*
X62700000Y-77888072D01*
X62824482Y-77875812D01*
X62944180Y-77839502D01*
X63054494Y-77780537D01*
X63151185Y-77701185D01*
X63230537Y-77604494D01*
X63289502Y-77494180D01*
X63325812Y-77374482D01*
X63338072Y-77250000D01*
X63338072Y-75550000D01*
X63325812Y-75425518D01*
X63289502Y-75305820D01*
X63230537Y-75195506D01*
X63151185Y-75098815D01*
X63054494Y-75019463D01*
X62944180Y-74960498D01*
X62871620Y-74938487D01*
X63003475Y-74806632D01*
X63165990Y-74563411D01*
X63277932Y-74293158D01*
X63335000Y-74006260D01*
X63335000Y-73713740D01*
X63277932Y-73426842D01*
X63165990Y-73156589D01*
X63003475Y-72913368D01*
X62796632Y-72706525D01*
X62622240Y-72590000D01*
X62796632Y-72473475D01*
X63003475Y-72266632D01*
X63165990Y-72023411D01*
X63277932Y-71753158D01*
X63332710Y-71477770D01*
X76049000Y-71477770D01*
X76049000Y-73122229D01*
X76069098Y-73326290D01*
X76148523Y-73588118D01*
X76277501Y-73829419D01*
X76451077Y-74040922D01*
X76662580Y-74214499D01*
X76903881Y-74343477D01*
X77165709Y-74422902D01*
X77438000Y-74449720D01*
X77710290Y-74422902D01*
X77972118Y-74343477D01*
X78213419Y-74214499D01*
X78424922Y-74040923D01*
X78598499Y-73829420D01*
X78727477Y-73588119D01*
X78806902Y-73326291D01*
X78827000Y-73122230D01*
X78827000Y-71477770D01*
X81549000Y-71477770D01*
X81549000Y-73122229D01*
X81569098Y-73326290D01*
X81648523Y-73588118D01*
X81777501Y-73829419D01*
X81951077Y-74040922D01*
X82162580Y-74214499D01*
X82403881Y-74343477D01*
X82665709Y-74422902D01*
X82938000Y-74449720D01*
X83210290Y-74422902D01*
X83472118Y-74343477D01*
X83713419Y-74214499D01*
X83924922Y-74040923D01*
X84098499Y-73829420D01*
X84227477Y-73588119D01*
X84306902Y-73326291D01*
X84327000Y-73122230D01*
X84327000Y-72005672D01*
X84445631Y-72125974D01*
X84671909Y-72279469D01*
X84923785Y-72385870D01*
X84996186Y-72400286D01*
X85211000Y-72277677D01*
X85211000Y-70427000D01*
X83949000Y-70427000D01*
X83949000Y-70588415D01*
X83924923Y-70559077D01*
X83713420Y-70385501D01*
X83472119Y-70256523D01*
X83210291Y-70177098D01*
X82938000Y-70150280D01*
X82665710Y-70177098D01*
X82403882Y-70256523D01*
X82162581Y-70385501D01*
X81951078Y-70559077D01*
X81777502Y-70770580D01*
X81648524Y-71011881D01*
X81569098Y-71273709D01*
X81549000Y-71477770D01*
X78827000Y-71477770D01*
X78806902Y-71273709D01*
X78727477Y-71011881D01*
X78598499Y-70770580D01*
X78424923Y-70559077D01*
X78213420Y-70385501D01*
X77972119Y-70256523D01*
X77710291Y-70177098D01*
X77438000Y-70150280D01*
X77165710Y-70177098D01*
X76903882Y-70256523D01*
X76662581Y-70385501D01*
X76451078Y-70559077D01*
X76277502Y-70770580D01*
X76148524Y-71011881D01*
X76069098Y-71273709D01*
X76049000Y-71477770D01*
X63332710Y-71477770D01*
X63335000Y-71466260D01*
X63335000Y-71173740D01*
X63277932Y-70886842D01*
X63165990Y-70616589D01*
X63003475Y-70373368D01*
X62796632Y-70166525D01*
X62622240Y-70050000D01*
X62796632Y-69933475D01*
X63003475Y-69726632D01*
X63165990Y-69483411D01*
X63192669Y-69419000D01*
X83949000Y-69419000D01*
X83949000Y-70173000D01*
X85211000Y-70173000D01*
X85211000Y-68322323D01*
X84996186Y-68199714D01*
X84923785Y-68214130D01*
X84671909Y-68320531D01*
X84445631Y-68474026D01*
X84253646Y-68668716D01*
X84103332Y-68897120D01*
X84000466Y-69150460D01*
X83949000Y-69419000D01*
X63192669Y-69419000D01*
X63277932Y-69213158D01*
X63335000Y-68926260D01*
X63335000Y-68633740D01*
X63277932Y-68346842D01*
X63165990Y-68076589D01*
X63003475Y-67833368D01*
X62796632Y-67626525D01*
X62614466Y-67504805D01*
X62731355Y-67435178D01*
X62947588Y-67240269D01*
X63121641Y-67006920D01*
X63246825Y-66744099D01*
X63291476Y-66596890D01*
X63170155Y-66367000D01*
X61977000Y-66367000D01*
X61977000Y-66387000D01*
X61723000Y-66387000D01*
X61723000Y-66367000D01*
X61703000Y-66367000D01*
X61703000Y-66113000D01*
X61723000Y-66113000D01*
X61723000Y-66093000D01*
X61977000Y-66093000D01*
X61977000Y-66113000D01*
X63170155Y-66113000D01*
X63291476Y-65883110D01*
X63261718Y-65785001D01*
X80696981Y-65785001D01*
X80737999Y-65789041D01*
X80779017Y-65785001D01*
X80779018Y-65785001D01*
X80901688Y-65772919D01*
X81059086Y-65725173D01*
X81204145Y-65647637D01*
X81331290Y-65543292D01*
X81357445Y-65511422D01*
X82189812Y-64679055D01*
X82403881Y-64793477D01*
X82665709Y-64872902D01*
X82938000Y-64899720D01*
X83210290Y-64872902D01*
X83472118Y-64793477D01*
X83713419Y-64664499D01*
X83924922Y-64490923D01*
X84098499Y-64279420D01*
X84227477Y-64038119D01*
X84306902Y-63776291D01*
X84327000Y-63572230D01*
X84327000Y-62455672D01*
X84445631Y-62575974D01*
X84671909Y-62729469D01*
X84923785Y-62835870D01*
X84996186Y-62850286D01*
X85211000Y-62727677D01*
X85211000Y-60877000D01*
X83949000Y-60877000D01*
X83949000Y-61038415D01*
X83924923Y-61009077D01*
X83713420Y-60835501D01*
X83472119Y-60706523D01*
X83210291Y-60627098D01*
X82938000Y-60600280D01*
X82665710Y-60627098D01*
X82403882Y-60706523D01*
X82162581Y-60835501D01*
X81951078Y-61009077D01*
X81777502Y-61220580D01*
X81648524Y-61461881D01*
X81569098Y-61723709D01*
X81549000Y-61927770D01*
X81549000Y-62958132D01*
X80392132Y-64115001D01*
X78686383Y-64115001D01*
X78727477Y-64038119D01*
X78806902Y-63776291D01*
X78827000Y-63572230D01*
X78827000Y-61927770D01*
X78806902Y-61723709D01*
X78727477Y-61461881D01*
X78598499Y-61220580D01*
X78424923Y-61009077D01*
X78213420Y-60835501D01*
X77972119Y-60706523D01*
X77710291Y-60627098D01*
X77438000Y-60600280D01*
X77165710Y-60627098D01*
X76903882Y-60706523D01*
X76662581Y-60835501D01*
X76451078Y-61009077D01*
X76277502Y-61220580D01*
X76148524Y-61461881D01*
X76069098Y-61723709D01*
X76049000Y-61927770D01*
X76049000Y-63572229D01*
X76069098Y-63776290D01*
X76148523Y-64038118D01*
X76189618Y-64115001D01*
X63281544Y-64115001D01*
X63335000Y-63846260D01*
X63335000Y-63553740D01*
X63277932Y-63266842D01*
X63165990Y-62996589D01*
X63003475Y-62753368D01*
X62796632Y-62546525D01*
X62622240Y-62430000D01*
X62796632Y-62313475D01*
X63003475Y-62106632D01*
X63165990Y-61863411D01*
X63277932Y-61593158D01*
X63335000Y-61306260D01*
X63335000Y-61013740D01*
X63277932Y-60726842D01*
X63165990Y-60456589D01*
X63003475Y-60213368D01*
X62796632Y-60006525D01*
X62622240Y-59890000D01*
X62653668Y-59869000D01*
X83949000Y-59869000D01*
X83949000Y-60623000D01*
X85211000Y-60623000D01*
X85211000Y-58772323D01*
X84996186Y-58649714D01*
X84923785Y-58664130D01*
X84671909Y-58770531D01*
X84445631Y-58924026D01*
X84253646Y-59118716D01*
X84103332Y-59347120D01*
X84000466Y-59600460D01*
X83949000Y-59869000D01*
X62653668Y-59869000D01*
X62796632Y-59773475D01*
X63003475Y-59566632D01*
X63165990Y-59323411D01*
X63277932Y-59053158D01*
X63335000Y-58766260D01*
X63335000Y-58473740D01*
X63277932Y-58186842D01*
X63165990Y-57916589D01*
X63003475Y-57673368D01*
X62796632Y-57466525D01*
X62622240Y-57350000D01*
X62796632Y-57233475D01*
X63003475Y-57026632D01*
X63165990Y-56783411D01*
X63277932Y-56513158D01*
X63335000Y-56226260D01*
X63335000Y-55933740D01*
X63277932Y-55646842D01*
X63165990Y-55376589D01*
X63003475Y-55133368D01*
X62796632Y-54926525D01*
X62622240Y-54810000D01*
X62796632Y-54693475D01*
X63003475Y-54486632D01*
X63165990Y-54243411D01*
X63277932Y-53973158D01*
X63335000Y-53686260D01*
X63335000Y-53393740D01*
X63277932Y-53106842D01*
X63165990Y-52836589D01*
X63003475Y-52593368D01*
X62796632Y-52386525D01*
X62633869Y-52277770D01*
X76049000Y-52277770D01*
X76049000Y-53922229D01*
X76069098Y-54126290D01*
X76148523Y-54388118D01*
X76277501Y-54629419D01*
X76451077Y-54840922D01*
X76662580Y-55014499D01*
X76903881Y-55143477D01*
X77165709Y-55222902D01*
X77438000Y-55249720D01*
X77710290Y-55222902D01*
X77972118Y-55143477D01*
X78213419Y-55014499D01*
X78424922Y-54840923D01*
X78598499Y-54629420D01*
X78727477Y-54388119D01*
X78806902Y-54126291D01*
X78827000Y-53922230D01*
X78827000Y-52277770D01*
X78806902Y-52073709D01*
X78727477Y-51811881D01*
X78598499Y-51570580D01*
X78424923Y-51359077D01*
X78213420Y-51185501D01*
X77972119Y-51056523D01*
X77710291Y-50977098D01*
X77438000Y-50950280D01*
X77165710Y-50977098D01*
X76903882Y-51056523D01*
X76662581Y-51185501D01*
X76451078Y-51359077D01*
X76277502Y-51570580D01*
X76148524Y-51811881D01*
X76069098Y-52073709D01*
X76049000Y-52277770D01*
X62633869Y-52277770D01*
X62622240Y-52270000D01*
X62796632Y-52153475D01*
X63003475Y-51946632D01*
X63165990Y-51703411D01*
X63277932Y-51433158D01*
X63335000Y-51146260D01*
X63335000Y-50853740D01*
X63277932Y-50566842D01*
X63165990Y-50296589D01*
X63003475Y-50053368D01*
X62796632Y-49846525D01*
X62622240Y-49730000D01*
X62796632Y-49613475D01*
X63003475Y-49406632D01*
X63165990Y-49163411D01*
X63277932Y-48893158D01*
X63335000Y-48606260D01*
X63335000Y-48313740D01*
X63277932Y-48026842D01*
X63165990Y-47756589D01*
X63003475Y-47513368D01*
X62796632Y-47306525D01*
X62614466Y-47184805D01*
X62731355Y-47115178D01*
X62947588Y-46920269D01*
X63121641Y-46686920D01*
X63246825Y-46424099D01*
X63291476Y-46276890D01*
X63170155Y-46047000D01*
X61977000Y-46047000D01*
X61977000Y-46067000D01*
X61723000Y-46067000D01*
X61723000Y-46047000D01*
X61703000Y-46047000D01*
X61703000Y-45793000D01*
X61723000Y-45793000D01*
X61723000Y-45773000D01*
X61977000Y-45773000D01*
X61977000Y-45793000D01*
X63170155Y-45793000D01*
X63291476Y-45563110D01*
X63246825Y-45415901D01*
X63121641Y-45153080D01*
X62947588Y-44919731D01*
X62731355Y-44724822D01*
X62614466Y-44655195D01*
X62796632Y-44533475D01*
X63003475Y-44326632D01*
X63165990Y-44083411D01*
X63277932Y-43813158D01*
X63335000Y-43526260D01*
X63335000Y-43233740D01*
X63277932Y-42946842D01*
X63165990Y-42676589D01*
X63003475Y-42433368D01*
X62796632Y-42226525D01*
X62622240Y-42110000D01*
X62796632Y-41993475D01*
X63003475Y-41786632D01*
X63165990Y-41543411D01*
X63277932Y-41273158D01*
X63335000Y-40986260D01*
X63335000Y-40693740D01*
X63277932Y-40406842D01*
X63165990Y-40136589D01*
X63003475Y-39893368D01*
X62796632Y-39686525D01*
X62622240Y-39570000D01*
X62796632Y-39453475D01*
X63003475Y-39246632D01*
X63165990Y-39003411D01*
X63258706Y-38779573D01*
X71540559Y-47061427D01*
X71566709Y-47093291D01*
X71693854Y-47197636D01*
X71838913Y-47275172D01*
X71996311Y-47322918D01*
X72118981Y-47335000D01*
X72118991Y-47335000D01*
X72159999Y-47339039D01*
X72201007Y-47335000D01*
X75992133Y-47335000D01*
X81549000Y-52891869D01*
X81549000Y-53922229D01*
X81569098Y-54126290D01*
X81648523Y-54388118D01*
X81777501Y-54629419D01*
X81951077Y-54840922D01*
X82162580Y-55014499D01*
X82403881Y-55143477D01*
X82665709Y-55222902D01*
X82938000Y-55249720D01*
X83210290Y-55222902D01*
X83472118Y-55143477D01*
X83713419Y-55014499D01*
X83924922Y-54840923D01*
X84098499Y-54629420D01*
X84227477Y-54388119D01*
X84306902Y-54126291D01*
X84327000Y-53922230D01*
X84327000Y-52805672D01*
X84445631Y-52925974D01*
X84671909Y-53079469D01*
X84923785Y-53185870D01*
X84996186Y-53200286D01*
X85211000Y-53077677D01*
X85211000Y-51227000D01*
X83949000Y-51227000D01*
X83949000Y-51388415D01*
X83924923Y-51359077D01*
X83713420Y-51185501D01*
X83472119Y-51056523D01*
X83210291Y-50977098D01*
X82938000Y-50950280D01*
X82665710Y-50977098D01*
X82403882Y-51056523D01*
X82189814Y-51170945D01*
X81237869Y-50219000D01*
X83949000Y-50219000D01*
X83949000Y-50973000D01*
X85211000Y-50973000D01*
X85211000Y-49122323D01*
X84996186Y-48999714D01*
X84923785Y-49014130D01*
X84671909Y-49120531D01*
X84445631Y-49274026D01*
X84253646Y-49468716D01*
X84103332Y-49697120D01*
X84000466Y-49950460D01*
X83949000Y-50219000D01*
X81237869Y-50219000D01*
X76957446Y-45938579D01*
X76931291Y-45906709D01*
X76804146Y-45802364D01*
X76659087Y-45724828D01*
X76501689Y-45677082D01*
X76379019Y-45665000D01*
X76379018Y-45665000D01*
X76338000Y-45660960D01*
X76296982Y-45665000D01*
X72505868Y-45665000D01*
X69518638Y-42677770D01*
X76049000Y-42677770D01*
X76049000Y-44322229D01*
X76069098Y-44526290D01*
X76148523Y-44788118D01*
X76277501Y-45029419D01*
X76451077Y-45240922D01*
X76662580Y-45414499D01*
X76903881Y-45543477D01*
X77165709Y-45622902D01*
X77438000Y-45649720D01*
X77710290Y-45622902D01*
X77972118Y-45543477D01*
X78213419Y-45414499D01*
X78424922Y-45240923D01*
X78598499Y-45029420D01*
X78727477Y-44788119D01*
X78806902Y-44526291D01*
X78827000Y-44322230D01*
X78827000Y-42677770D01*
X81549000Y-42677770D01*
X81549000Y-44322229D01*
X81569098Y-44526290D01*
X81648523Y-44788118D01*
X81777501Y-45029419D01*
X81951077Y-45240922D01*
X82162580Y-45414499D01*
X82403881Y-45543477D01*
X82665709Y-45622902D01*
X82938000Y-45649720D01*
X83210290Y-45622902D01*
X83472118Y-45543477D01*
X83713419Y-45414499D01*
X83924922Y-45240923D01*
X84098499Y-45029420D01*
X84227477Y-44788119D01*
X84306902Y-44526291D01*
X84327000Y-44322230D01*
X84327000Y-43205672D01*
X84445631Y-43325974D01*
X84671909Y-43479469D01*
X84923785Y-43585870D01*
X84996186Y-43600286D01*
X85211000Y-43477677D01*
X85211000Y-41627000D01*
X83949000Y-41627000D01*
X83949000Y-41788415D01*
X83924923Y-41759077D01*
X83713420Y-41585501D01*
X83472119Y-41456523D01*
X83210291Y-41377098D01*
X82938000Y-41350280D01*
X82665710Y-41377098D01*
X82403882Y-41456523D01*
X82162581Y-41585501D01*
X81951078Y-41759077D01*
X81777502Y-41970580D01*
X81648524Y-42211881D01*
X81569098Y-42473709D01*
X81549000Y-42677770D01*
X78827000Y-42677770D01*
X78806902Y-42473709D01*
X78727477Y-42211881D01*
X78598499Y-41970580D01*
X78424923Y-41759077D01*
X78213420Y-41585501D01*
X77972119Y-41456523D01*
X77710291Y-41377098D01*
X77438000Y-41350280D01*
X77165710Y-41377098D01*
X76903882Y-41456523D01*
X76662581Y-41585501D01*
X76451078Y-41759077D01*
X76277502Y-41970580D01*
X76148524Y-42211881D01*
X76069098Y-42473709D01*
X76049000Y-42677770D01*
X69518638Y-42677770D01*
X67459868Y-40619000D01*
X83949000Y-40619000D01*
X83949000Y-41373000D01*
X85211000Y-41373000D01*
X85211000Y-39522323D01*
X84996186Y-39399714D01*
X84923785Y-39414130D01*
X84671909Y-39520531D01*
X84445631Y-39674026D01*
X84253646Y-39868716D01*
X84103332Y-40097120D01*
X84000466Y-40350460D01*
X83949000Y-40619000D01*
X67459868Y-40619000D01*
X65871263Y-39030395D01*
X66070512Y-39040217D01*
X66350130Y-38998787D01*
X66616292Y-38903603D01*
X66741514Y-38836671D01*
X66813097Y-38592702D01*
X66000000Y-37779605D01*
X65985858Y-37793748D01*
X65806253Y-37614143D01*
X65820395Y-37600000D01*
X66179605Y-37600000D01*
X66992702Y-38413097D01*
X67236671Y-38341514D01*
X67357571Y-38086004D01*
X67426300Y-37811816D01*
X67440217Y-37529488D01*
X67429724Y-37458665D01*
X68565000Y-37458665D01*
X68565000Y-37741335D01*
X68620147Y-38018574D01*
X68728320Y-38279727D01*
X68885363Y-38514759D01*
X69085241Y-38714637D01*
X69320273Y-38871680D01*
X69581426Y-38979853D01*
X69858665Y-39035000D01*
X70141335Y-39035000D01*
X70418574Y-38979853D01*
X70679727Y-38871680D01*
X70914759Y-38714637D01*
X71114637Y-38514759D01*
X71167930Y-38435000D01*
X79196982Y-38435000D01*
X79238000Y-38439040D01*
X79279018Y-38435000D01*
X79279019Y-38435000D01*
X79401689Y-38422918D01*
X79559087Y-38375172D01*
X79704146Y-38297636D01*
X79831291Y-38193291D01*
X79857446Y-38161421D01*
X82189813Y-35829055D01*
X82403881Y-35943477D01*
X82665709Y-36022902D01*
X82938000Y-36049720D01*
X83210290Y-36022902D01*
X83472118Y-35943477D01*
X83713419Y-35814499D01*
X83924922Y-35640923D01*
X84098499Y-35429420D01*
X84227477Y-35188119D01*
X84306902Y-34926291D01*
X84327000Y-34722230D01*
X84327000Y-33605672D01*
X84445631Y-33725974D01*
X84671909Y-33879469D01*
X84923785Y-33985870D01*
X84996186Y-34000286D01*
X85211000Y-33877677D01*
X85211000Y-32027000D01*
X83949000Y-32027000D01*
X83949000Y-32188415D01*
X83924923Y-32159077D01*
X83713420Y-31985501D01*
X83472119Y-31856523D01*
X83210291Y-31777098D01*
X82938000Y-31750280D01*
X82665710Y-31777098D01*
X82403882Y-31856523D01*
X82162581Y-31985501D01*
X81951078Y-32159077D01*
X81777502Y-32370580D01*
X81648524Y-32611881D01*
X81569098Y-32873709D01*
X81549000Y-33077770D01*
X81549000Y-34108132D01*
X78892133Y-36765000D01*
X71167930Y-36765000D01*
X71114637Y-36685241D01*
X70914759Y-36485363D01*
X70679727Y-36328320D01*
X70418574Y-36220147D01*
X70141335Y-36165000D01*
X69858665Y-36165000D01*
X69581426Y-36220147D01*
X69320273Y-36328320D01*
X69085241Y-36485363D01*
X68885363Y-36685241D01*
X68728320Y-36920273D01*
X68620147Y-37181426D01*
X68565000Y-37458665D01*
X67429724Y-37458665D01*
X67398787Y-37249870D01*
X67303603Y-36983708D01*
X67236671Y-36858486D01*
X66992702Y-36786903D01*
X66179605Y-37600000D01*
X65820395Y-37600000D01*
X65007298Y-36786903D01*
X64763329Y-36858486D01*
X64642429Y-37113996D01*
X64573700Y-37388184D01*
X64559783Y-37670512D01*
X64568202Y-37727335D01*
X63448165Y-36607298D01*
X65186903Y-36607298D01*
X66000000Y-37420395D01*
X66813097Y-36607298D01*
X66741514Y-36363329D01*
X66486004Y-36242429D01*
X66211816Y-36173700D01*
X65929488Y-36159783D01*
X65649870Y-36201213D01*
X65383708Y-36296397D01*
X65258486Y-36363329D01*
X65186903Y-36607298D01*
X63448165Y-36607298D01*
X63289447Y-36448580D01*
X63263292Y-36416710D01*
X63205112Y-36368963D01*
X63277932Y-36193158D01*
X63335000Y-35906260D01*
X63335000Y-35613740D01*
X63277932Y-35326842D01*
X63165990Y-35056589D01*
X63003475Y-34813368D01*
X62796632Y-34606525D01*
X62622240Y-34490000D01*
X62796632Y-34373475D01*
X63003475Y-34166632D01*
X63165990Y-33923411D01*
X63277932Y-33653158D01*
X63335000Y-33366260D01*
X63335000Y-33077770D01*
X76049000Y-33077770D01*
X76049000Y-34722229D01*
X76069098Y-34926290D01*
X76148523Y-35188118D01*
X76277501Y-35429419D01*
X76451077Y-35640922D01*
X76662580Y-35814499D01*
X76903881Y-35943477D01*
X77165709Y-36022902D01*
X77438000Y-36049720D01*
X77710290Y-36022902D01*
X77972118Y-35943477D01*
X78213419Y-35814499D01*
X78424922Y-35640923D01*
X78598499Y-35429420D01*
X78727477Y-35188119D01*
X78806902Y-34926291D01*
X78827000Y-34722230D01*
X78827000Y-33077770D01*
X78806902Y-32873709D01*
X78727477Y-32611881D01*
X78598499Y-32370580D01*
X78424923Y-32159077D01*
X78213420Y-31985501D01*
X77972119Y-31856523D01*
X77710291Y-31777098D01*
X77438000Y-31750280D01*
X77165710Y-31777098D01*
X76903882Y-31856523D01*
X76662581Y-31985501D01*
X76451078Y-32159077D01*
X76277502Y-32370580D01*
X76148524Y-32611881D01*
X76069098Y-32873709D01*
X76049000Y-33077770D01*
X63335000Y-33077770D01*
X63335000Y-33073740D01*
X63277932Y-32786842D01*
X63165990Y-32516589D01*
X63003475Y-32273368D01*
X62796632Y-32066525D01*
X62622240Y-31950000D01*
X62796632Y-31833475D01*
X63003475Y-31626632D01*
X63138571Y-31424446D01*
X63226146Y-31377636D01*
X63353291Y-31273291D01*
X63379446Y-31241421D01*
X63601867Y-31019000D01*
X83949000Y-31019000D01*
X83949000Y-31773000D01*
X85211000Y-31773000D01*
X85211000Y-29922323D01*
X84996186Y-29799714D01*
X84923785Y-29814130D01*
X84671909Y-29920531D01*
X84445631Y-30074026D01*
X84253646Y-30268716D01*
X84103332Y-30497120D01*
X84000466Y-30750460D01*
X83949000Y-31019000D01*
X63601867Y-31019000D01*
X65764583Y-28856286D01*
X65858665Y-28875000D01*
X66141335Y-28875000D01*
X66418574Y-28819853D01*
X66679727Y-28711680D01*
X66914759Y-28554637D01*
X67114637Y-28354759D01*
X67167930Y-28275000D01*
X68832070Y-28275000D01*
X68885363Y-28354759D01*
X69085241Y-28554637D01*
X69320273Y-28711680D01*
X69581426Y-28819853D01*
X69858665Y-28875000D01*
X70141335Y-28875000D01*
X70418574Y-28819853D01*
X70679727Y-28711680D01*
X70914759Y-28554637D01*
X71114637Y-28354759D01*
X71271680Y-28119727D01*
X71379853Y-27858574D01*
X71435000Y-27581335D01*
X71435000Y-27298665D01*
X71379853Y-27021426D01*
X71271680Y-26760273D01*
X71114637Y-26525241D01*
X70914759Y-26325363D01*
X70679727Y-26168320D01*
X70418574Y-26060147D01*
X70141335Y-26005000D01*
X69858665Y-26005000D01*
X69581426Y-26060147D01*
X69320273Y-26168320D01*
X69085241Y-26325363D01*
X68885363Y-26525241D01*
X68832070Y-26605000D01*
X67167930Y-26605000D01*
X67114637Y-26525241D01*
X66914759Y-26325363D01*
X66679727Y-26168320D01*
X66418574Y-26060147D01*
X66141335Y-26005000D01*
X65858665Y-26005000D01*
X65581426Y-26060147D01*
X65320273Y-26168320D01*
X65085241Y-26325363D01*
X64885363Y-26525241D01*
X64728320Y-26760273D01*
X64620147Y-27021426D01*
X64565000Y-27298665D01*
X64565000Y-27581335D01*
X64583714Y-27675417D01*
X62758252Y-29500880D01*
X62614466Y-29404805D01*
X62731355Y-29335178D01*
X62947588Y-29140269D01*
X63121641Y-28906920D01*
X63246825Y-28644099D01*
X63291476Y-28496890D01*
X63170155Y-28267000D01*
X61977000Y-28267000D01*
X61977000Y-28287000D01*
X61723000Y-28287000D01*
X61723000Y-28267000D01*
X61703000Y-28267000D01*
X61703000Y-28013000D01*
X61723000Y-28013000D01*
X61723000Y-26819186D01*
X61977000Y-26819186D01*
X61977000Y-28013000D01*
X63170155Y-28013000D01*
X63291476Y-27783110D01*
X63246825Y-27635901D01*
X63121641Y-27373080D01*
X62947588Y-27139731D01*
X62731355Y-26944822D01*
X62481252Y-26795843D01*
X62206891Y-26698519D01*
X61977000Y-26819186D01*
X61723000Y-26819186D01*
X61493109Y-26698519D01*
X61218748Y-26795843D01*
X60968645Y-26944822D01*
X60752412Y-27139731D01*
X60581100Y-27369406D01*
X60463475Y-27193368D01*
X60256632Y-26986525D01*
X60013411Y-26824010D01*
X59743158Y-26712068D01*
X59456260Y-26655000D01*
X59163740Y-26655000D01*
X58876842Y-26712068D01*
X58606589Y-26824010D01*
X58363368Y-26986525D01*
X58156525Y-27193368D01*
X57994010Y-27436589D01*
X57882068Y-27706842D01*
X57825000Y-27993740D01*
X57825000Y-28286260D01*
X57882068Y-28573158D01*
X57994010Y-28843411D01*
X58156525Y-29086632D01*
X58363368Y-29293475D01*
X58537760Y-29410000D01*
X58363368Y-29526525D01*
X58156525Y-29733368D01*
X57994010Y-29976589D01*
X57882068Y-30246842D01*
X57825000Y-30533740D01*
X57825000Y-30826260D01*
X57882068Y-31113158D01*
X57994010Y-31383411D01*
X58156525Y-31626632D01*
X58363368Y-31833475D01*
X58537760Y-31950000D01*
X58363368Y-32066525D01*
X58156525Y-32273368D01*
X57994010Y-32516589D01*
X57882068Y-32786842D01*
X57825000Y-33073740D01*
X57825000Y-33366260D01*
X57882068Y-33653158D01*
X57994010Y-33923411D01*
X58156525Y-34166632D01*
X58363368Y-34373475D01*
X58545534Y-34495195D01*
X58428645Y-34564822D01*
X58212412Y-34759731D01*
X58038359Y-34993080D01*
X57913175Y-35255901D01*
X57868524Y-35403110D01*
X57989845Y-35633000D01*
X59183000Y-35633000D01*
X59183000Y-35613000D01*
X59437000Y-35613000D01*
X59437000Y-35633000D01*
X59457000Y-35633000D01*
X59457000Y-35887000D01*
X59437000Y-35887000D01*
X59437000Y-35907000D01*
X59183000Y-35907000D01*
X59183000Y-35887000D01*
X57989845Y-35887000D01*
X57878623Y-36097754D01*
X55916285Y-34135418D01*
X55935000Y-34041335D01*
X55935000Y-33758665D01*
X55879853Y-33481426D01*
X55771680Y-33220273D01*
X55614637Y-32985241D01*
X55414759Y-32785363D01*
X55179727Y-32628320D01*
X54982691Y-32546705D01*
X55114637Y-32414759D01*
X55271680Y-32179727D01*
X55379853Y-31918574D01*
X55435000Y-31641335D01*
X55435000Y-31358665D01*
X55379853Y-31081426D01*
X55271680Y-30820273D01*
X55114637Y-30585241D01*
X54914759Y-30385363D01*
X54679727Y-30228320D01*
X54418574Y-30120147D01*
X54141335Y-30065000D01*
X53858665Y-30065000D01*
X53581426Y-30120147D01*
X53320273Y-30228320D01*
X53085241Y-30385363D01*
X52885363Y-30585241D01*
X52728320Y-30820273D01*
X52620147Y-31081426D01*
X52565000Y-31358665D01*
X52565000Y-31641335D01*
X52620147Y-31918574D01*
X52728320Y-32179727D01*
X52885363Y-32414759D01*
X53085241Y-32614637D01*
X53320273Y-32771680D01*
X53517309Y-32853295D01*
X53385363Y-32985241D01*
X53228320Y-33220273D01*
X53120147Y-33481426D01*
X53075675Y-33705000D01*
X49787930Y-33705000D01*
X49734637Y-33625241D01*
X49534759Y-33425363D01*
X49302241Y-33270000D01*
X49534759Y-33114637D01*
X49734637Y-32914759D01*
X49891680Y-32679727D01*
X49999853Y-32418574D01*
X50055000Y-32141335D01*
X50055000Y-31858665D01*
X49999853Y-31581426D01*
X49891680Y-31320273D01*
X49734637Y-31085241D01*
X49534759Y-30885363D01*
X49299727Y-30728320D01*
X49038574Y-30620147D01*
X48761335Y-30565000D01*
X48478665Y-30565000D01*
X48201426Y-30620147D01*
X47940273Y-30728320D01*
X47705241Y-30885363D01*
X47505363Y-31085241D01*
X47348320Y-31320273D01*
X47240147Y-31581426D01*
X47185000Y-31858665D01*
X47185000Y-32141335D01*
X47191983Y-32176439D01*
X46314956Y-33053466D01*
X46281183Y-33081183D01*
X46170589Y-33215942D01*
X46088411Y-33369688D01*
X46054515Y-33481426D01*
X46039391Y-33531284D01*
X46037805Y-33536511D01*
X46025000Y-33666524D01*
X46025000Y-33666531D01*
X46020719Y-33710000D01*
X46025000Y-33753469D01*
X46025001Y-44583418D01*
X41035001Y-49573419D01*
X41035001Y-48435000D01*
X41141335Y-48435000D01*
X41418574Y-48379853D01*
X41679727Y-48271680D01*
X41914759Y-48114637D01*
X42114637Y-47914759D01*
X42271680Y-47679727D01*
X42379853Y-47418574D01*
X42435000Y-47141335D01*
X42435000Y-46858665D01*
X42379853Y-46581426D01*
X42271680Y-46320273D01*
X42114637Y-46085241D01*
X41914759Y-45885363D01*
X41679727Y-45728320D01*
X41418574Y-45620147D01*
X41141335Y-45565000D01*
X40858665Y-45565000D01*
X40581426Y-45620147D01*
X40320273Y-45728320D01*
X40085241Y-45885363D01*
X39885363Y-46085241D01*
X39728320Y-46320273D01*
X39620147Y-46581426D01*
X39565000Y-46858665D01*
X39565000Y-47141335D01*
X39583604Y-47234863D01*
X39512843Y-47321086D01*
X39502365Y-47333854D01*
X39424829Y-47478913D01*
X39377083Y-47636311D01*
X39360961Y-47799999D01*
X39365001Y-47841018D01*
X39365002Y-50624129D01*
X36815000Y-53174132D01*
X36815000Y-53108665D01*
X36759853Y-52831426D01*
X36651680Y-52570273D01*
X36494637Y-52335241D01*
X36294759Y-52135363D01*
X36059727Y-51978320D01*
X36049135Y-51973933D01*
X36235131Y-51862385D01*
X36443519Y-51673414D01*
X36611037Y-51447420D01*
X36731246Y-51193087D01*
X36771904Y-51059039D01*
X36649915Y-50837000D01*
X35507000Y-50837000D01*
X35507000Y-50857000D01*
X35253000Y-50857000D01*
X35253000Y-50837000D01*
X34110085Y-50837000D01*
X33988096Y-51059039D01*
X34028754Y-51193087D01*
X34148963Y-51447420D01*
X34316481Y-51673414D01*
X34524869Y-51862385D01*
X34710865Y-51973933D01*
X34700273Y-51978320D01*
X34465241Y-52135363D01*
X34265363Y-52335241D01*
X34108320Y-52570273D01*
X34000147Y-52831426D01*
X33945000Y-53108665D01*
X32867388Y-53108665D01*
X32879853Y-53078574D01*
X32935000Y-52801335D01*
X32935000Y-52518665D01*
X32879853Y-52241426D01*
X32771680Y-51980273D01*
X32614637Y-51745241D01*
X32414759Y-51545363D01*
X32335000Y-51492070D01*
X32335000Y-50360961D01*
X33988096Y-50360961D01*
X34110085Y-50583000D01*
X35253000Y-50583000D01*
X35253000Y-49439376D01*
X35507000Y-49439376D01*
X35507000Y-50583000D01*
X36649915Y-50583000D01*
X36771904Y-50360961D01*
X36731246Y-50226913D01*
X36611037Y-49972580D01*
X36443519Y-49746586D01*
X36235131Y-49557615D01*
X35993881Y-49412930D01*
X35729040Y-49318091D01*
X35507000Y-49439376D01*
X35253000Y-49439376D01*
X35030960Y-49318091D01*
X34766119Y-49412930D01*
X34524869Y-49557615D01*
X34316481Y-49746586D01*
X34148963Y-49972580D01*
X34028754Y-50226913D01*
X33988096Y-50360961D01*
X32335000Y-50360961D01*
X32335000Y-48492702D01*
X36186903Y-48492702D01*
X36258486Y-48736671D01*
X36513996Y-48857571D01*
X36788184Y-48926300D01*
X37070512Y-48940217D01*
X37350130Y-48898787D01*
X37616292Y-48803603D01*
X37741514Y-48736671D01*
X37813097Y-48492702D01*
X37000000Y-47679605D01*
X36186903Y-48492702D01*
X32335000Y-48492702D01*
X32335000Y-47570512D01*
X35559783Y-47570512D01*
X35601213Y-47850130D01*
X35696397Y-48116292D01*
X35763329Y-48241514D01*
X36007298Y-48313097D01*
X36820395Y-47500000D01*
X37179605Y-47500000D01*
X37992702Y-48313097D01*
X38236671Y-48241514D01*
X38357571Y-47986004D01*
X38426300Y-47711816D01*
X38440217Y-47429488D01*
X38398787Y-47149870D01*
X38303603Y-46883708D01*
X38236671Y-46758486D01*
X37992702Y-46686903D01*
X37179605Y-47500000D01*
X36820395Y-47500000D01*
X36007298Y-46686903D01*
X35763329Y-46758486D01*
X35642429Y-47013996D01*
X35573700Y-47288184D01*
X35559783Y-47570512D01*
X32335000Y-47570512D01*
X32335000Y-46507298D01*
X36186903Y-46507298D01*
X37000000Y-47320395D01*
X37813097Y-46507298D01*
X37741514Y-46263329D01*
X37486004Y-46142429D01*
X37211816Y-46073700D01*
X36929488Y-46059783D01*
X36649870Y-46101213D01*
X36383708Y-46196397D01*
X36258486Y-46263329D01*
X36186903Y-46507298D01*
X32335000Y-46507298D01*
X32335000Y-45794497D01*
X35565000Y-42564497D01*
X35565000Y-42641335D01*
X35620147Y-42918574D01*
X35728320Y-43179727D01*
X35885363Y-43414759D01*
X36085241Y-43614637D01*
X36320273Y-43771680D01*
X36581426Y-43879853D01*
X36858665Y-43935000D01*
X37141335Y-43935000D01*
X37418574Y-43879853D01*
X37679727Y-43771680D01*
X37914759Y-43614637D01*
X38114637Y-43414759D01*
X38271680Y-43179727D01*
X38379853Y-42918574D01*
X38391769Y-42858665D01*
X39505000Y-42858665D01*
X39505000Y-43141335D01*
X39560147Y-43418574D01*
X39668320Y-43679727D01*
X39825363Y-43914759D01*
X40025241Y-44114637D01*
X40260273Y-44271680D01*
X40521426Y-44379853D01*
X40798665Y-44435000D01*
X41081335Y-44435000D01*
X41358574Y-44379853D01*
X41619727Y-44271680D01*
X41854759Y-44114637D01*
X42054637Y-43914759D01*
X42211680Y-43679727D01*
X42319853Y-43418574D01*
X42375000Y-43141335D01*
X42375000Y-42858665D01*
X42319853Y-42581426D01*
X42211680Y-42320273D01*
X42054637Y-42085241D01*
X41854759Y-41885363D01*
X41619727Y-41728320D01*
X41358574Y-41620147D01*
X41081335Y-41565000D01*
X40798665Y-41565000D01*
X40521426Y-41620147D01*
X40260273Y-41728320D01*
X40025241Y-41885363D01*
X39825363Y-42085241D01*
X39668320Y-42320273D01*
X39560147Y-42581426D01*
X39505000Y-42858665D01*
X38391769Y-42858665D01*
X38435000Y-42641335D01*
X38435000Y-42358665D01*
X38379853Y-42081426D01*
X38271680Y-41820273D01*
X38114637Y-41585241D01*
X37914759Y-41385363D01*
X37679727Y-41228320D01*
X37418574Y-41120147D01*
X37141335Y-41065000D01*
X37064498Y-41065000D01*
X40010051Y-38119447D01*
X40085241Y-38194637D01*
X40317759Y-38350000D01*
X40085241Y-38505363D01*
X39885363Y-38705241D01*
X39728320Y-38940273D01*
X39620147Y-39201426D01*
X39565000Y-39478665D01*
X39565000Y-39761335D01*
X39620147Y-40038574D01*
X39728320Y-40299727D01*
X39885363Y-40534759D01*
X40085241Y-40734637D01*
X40320273Y-40891680D01*
X40581426Y-40999853D01*
X40858665Y-41055000D01*
X41141335Y-41055000D01*
X41418574Y-40999853D01*
X41679727Y-40891680D01*
X41914759Y-40734637D01*
X42114637Y-40534759D01*
X42271680Y-40299727D01*
X42379853Y-40038574D01*
X42435000Y-39761335D01*
X42435000Y-39478665D01*
X42379853Y-39201426D01*
X42271680Y-38940273D01*
X42114637Y-38705241D01*
X41914759Y-38505363D01*
X41682241Y-38350000D01*
X41914759Y-38194637D01*
X42114637Y-37994759D01*
X42271680Y-37759727D01*
X42379853Y-37498574D01*
X42435000Y-37221335D01*
X42435000Y-36938665D01*
X42379853Y-36661426D01*
X42271680Y-36400273D01*
X42114637Y-36165241D01*
X41914759Y-35965363D01*
X41682241Y-35810000D01*
X41914759Y-35654637D01*
X42114637Y-35454759D01*
X42271680Y-35219727D01*
X42379853Y-34958574D01*
X42435000Y-34681335D01*
X42435000Y-34398665D01*
X42416286Y-34304582D01*
X43231433Y-33489436D01*
X43263291Y-33463291D01*
X43294050Y-33425812D01*
X43367636Y-33336146D01*
X43445172Y-33191087D01*
X43445172Y-33191086D01*
X43492918Y-33033689D01*
X43505000Y-32911019D01*
X43505000Y-32911018D01*
X43509040Y-32870000D01*
X43505000Y-32828982D01*
X43505000Y-31211018D01*
X43509040Y-31170000D01*
X43492918Y-31006311D01*
X43445172Y-30848913D01*
X43367636Y-30703854D01*
X43263291Y-30576709D01*
X43231427Y-30550559D01*
X41029907Y-28349039D01*
X48268096Y-28349039D01*
X48308754Y-28483087D01*
X48428963Y-28737420D01*
X48596481Y-28963414D01*
X48804869Y-29152385D01*
X49046119Y-29297070D01*
X49310960Y-29391909D01*
X49533000Y-29270624D01*
X49533000Y-28127000D01*
X49787000Y-28127000D01*
X49787000Y-29270624D01*
X50009040Y-29391909D01*
X50273881Y-29297070D01*
X50515131Y-29152385D01*
X50723519Y-28963414D01*
X50891037Y-28737420D01*
X51011246Y-28483087D01*
X51051904Y-28349039D01*
X50929915Y-28127000D01*
X49787000Y-28127000D01*
X49533000Y-28127000D01*
X48390085Y-28127000D01*
X48268096Y-28349039D01*
X41029907Y-28349039D01*
X40916285Y-28235418D01*
X40935000Y-28141335D01*
X40935000Y-27858665D01*
X40893685Y-27650961D01*
X48268096Y-27650961D01*
X48390085Y-27873000D01*
X49533000Y-27873000D01*
X49533000Y-26729376D01*
X49787000Y-26729376D01*
X49787000Y-27873000D01*
X50929915Y-27873000D01*
X51051904Y-27650961D01*
X51011246Y-27516913D01*
X50999803Y-27492702D01*
X53186903Y-27492702D01*
X53258486Y-27736671D01*
X53513996Y-27857571D01*
X53788184Y-27926300D01*
X54070512Y-27940217D01*
X54350130Y-27898787D01*
X54616292Y-27803603D01*
X54741514Y-27736671D01*
X54813097Y-27492702D01*
X54000000Y-26679605D01*
X53186903Y-27492702D01*
X50999803Y-27492702D01*
X50891037Y-27262580D01*
X50723519Y-27036586D01*
X50515131Y-26847615D01*
X50273881Y-26702930D01*
X50009040Y-26608091D01*
X49787000Y-26729376D01*
X49533000Y-26729376D01*
X49310960Y-26608091D01*
X49046119Y-26702930D01*
X48804869Y-26847615D01*
X48596481Y-27036586D01*
X48428963Y-27262580D01*
X48308754Y-27516913D01*
X48268096Y-27650961D01*
X40893685Y-27650961D01*
X40879853Y-27581426D01*
X40771680Y-27320273D01*
X40614637Y-27085241D01*
X40414759Y-26885363D01*
X40179727Y-26728320D01*
X39918574Y-26620147D01*
X39669046Y-26570512D01*
X52559783Y-26570512D01*
X52601213Y-26850130D01*
X52696397Y-27116292D01*
X52763329Y-27241514D01*
X53007298Y-27313097D01*
X53820395Y-26500000D01*
X54179605Y-26500000D01*
X54992702Y-27313097D01*
X55236671Y-27241514D01*
X55357571Y-26986004D01*
X55426300Y-26711816D01*
X55440217Y-26429488D01*
X55398787Y-26149870D01*
X55303603Y-25883708D01*
X55283114Y-25845374D01*
X81334231Y-25845374D01*
X81634411Y-26283828D01*
X82213356Y-26594296D01*
X82841746Y-26785852D01*
X83495431Y-26851134D01*
X84149293Y-26787634D01*
X84778203Y-26597792D01*
X85357992Y-26288904D01*
X85365589Y-26283828D01*
X85665769Y-25845374D01*
X83500000Y-23679605D01*
X81334231Y-25845374D01*
X55283114Y-25845374D01*
X55236671Y-25758486D01*
X54992702Y-25686903D01*
X54179605Y-26500000D01*
X53820395Y-26500000D01*
X53007298Y-25686903D01*
X52763329Y-25758486D01*
X52642429Y-26013996D01*
X52573700Y-26288184D01*
X52559783Y-26570512D01*
X39669046Y-26570512D01*
X39641335Y-26565000D01*
X39358665Y-26565000D01*
X39081426Y-26620147D01*
X38820273Y-26728320D01*
X38585241Y-26885363D01*
X38385363Y-27085241D01*
X38332070Y-27165000D01*
X36381018Y-27165000D01*
X36339999Y-27160960D01*
X36298981Y-27165000D01*
X36176311Y-27177082D01*
X36018913Y-27224828D01*
X35873854Y-27302364D01*
X35746709Y-27406709D01*
X35720558Y-27438574D01*
X35235418Y-27923714D01*
X35141335Y-27905000D01*
X34858665Y-27905000D01*
X34581426Y-27960147D01*
X34320273Y-28068320D01*
X34085241Y-28225363D01*
X33885363Y-28425241D01*
X33728320Y-28660273D01*
X33620147Y-28921426D01*
X33565000Y-29198665D01*
X33565000Y-29481335D01*
X33620147Y-29758574D01*
X33728320Y-30019727D01*
X33885363Y-30254759D01*
X34085241Y-30454637D01*
X34320273Y-30611680D01*
X34581426Y-30719853D01*
X34858665Y-30775000D01*
X35141335Y-30775000D01*
X35418574Y-30719853D01*
X35679727Y-30611680D01*
X35914759Y-30454637D01*
X36114637Y-30254759D01*
X36271680Y-30019727D01*
X36379853Y-29758574D01*
X36435000Y-29481335D01*
X36435000Y-29198665D01*
X36416286Y-29104582D01*
X36685868Y-28835000D01*
X38332070Y-28835000D01*
X38385363Y-28914759D01*
X38585241Y-29114637D01*
X38820273Y-29271680D01*
X39081426Y-29379853D01*
X39358665Y-29435000D01*
X39641335Y-29435000D01*
X39735418Y-29416285D01*
X40881060Y-30561928D01*
X40200000Y-30561928D01*
X40075518Y-30574188D01*
X39955820Y-30610498D01*
X39845506Y-30669463D01*
X39748815Y-30748815D01*
X39669463Y-30845506D01*
X39610498Y-30955820D01*
X39574188Y-31075518D01*
X39561928Y-31200000D01*
X39561928Y-32257204D01*
X34438579Y-37380554D01*
X34406709Y-37406709D01*
X34309771Y-37524829D01*
X34302364Y-37533855D01*
X34224828Y-37678914D01*
X34177082Y-37836312D01*
X34160960Y-38000000D01*
X34165000Y-38041019D01*
X34165000Y-38332070D01*
X34085241Y-38385363D01*
X33885363Y-38585241D01*
X33728320Y-38820273D01*
X33620147Y-39081426D01*
X33565000Y-39358665D01*
X33565000Y-39641335D01*
X33620147Y-39918574D01*
X33728320Y-40179727D01*
X33885363Y-40414759D01*
X34085241Y-40614637D01*
X34320273Y-40771680D01*
X34581426Y-40879853D01*
X34837060Y-40930702D01*
X32887467Y-42880296D01*
X32935000Y-42641335D01*
X32935000Y-42358665D01*
X32879853Y-42081426D01*
X32771680Y-41820273D01*
X32614637Y-41585241D01*
X32414759Y-41385363D01*
X32179727Y-41228320D01*
X31918574Y-41120147D01*
X31641335Y-41065000D01*
X31358665Y-41065000D01*
X31081426Y-41120147D01*
X30820273Y-41228320D01*
X30585241Y-41385363D01*
X30385363Y-41585241D01*
X30228320Y-41820273D01*
X30120147Y-42081426D01*
X30065000Y-42358665D01*
X20710000Y-42358665D01*
X20710000Y-25845374D01*
X21334231Y-25845374D01*
X21634411Y-26283828D01*
X22213356Y-26594296D01*
X22841746Y-26785852D01*
X23495431Y-26851134D01*
X24149293Y-26787634D01*
X24778203Y-26597792D01*
X25357992Y-26288904D01*
X25365589Y-26283828D01*
X25665769Y-25845374D01*
X23500000Y-23679605D01*
X21334231Y-25845374D01*
X20710000Y-25845374D01*
X20710000Y-25355935D01*
X20711096Y-25357992D01*
X20716172Y-25365589D01*
X21154626Y-25665769D01*
X23320395Y-23500000D01*
X23679605Y-23500000D01*
X25845374Y-25665769D01*
X26076842Y-25507298D01*
X53186903Y-25507298D01*
X54000000Y-26320395D01*
X54813097Y-25507298D01*
X54741514Y-25263329D01*
X54486004Y-25142429D01*
X54211816Y-25073700D01*
X53929488Y-25059783D01*
X53649870Y-25101213D01*
X53383708Y-25196397D01*
X53258486Y-25263329D01*
X53186903Y-25507298D01*
X26076842Y-25507298D01*
X26283828Y-25365589D01*
X26594296Y-24786644D01*
X26785852Y-24158254D01*
X26815771Y-23858665D01*
X38065000Y-23858665D01*
X38065000Y-24141335D01*
X38120147Y-24418574D01*
X38228320Y-24679727D01*
X38385363Y-24914759D01*
X38585241Y-25114637D01*
X38820273Y-25271680D01*
X39081426Y-25379853D01*
X39358665Y-25435000D01*
X39641335Y-25435000D01*
X39918574Y-25379853D01*
X40179727Y-25271680D01*
X40414759Y-25114637D01*
X40614637Y-24914759D01*
X40771680Y-24679727D01*
X40879853Y-24418574D01*
X40893684Y-24349039D01*
X48268096Y-24349039D01*
X48308754Y-24483087D01*
X48428963Y-24737420D01*
X48596481Y-24963414D01*
X48804869Y-25152385D01*
X49046119Y-25297070D01*
X49310960Y-25391909D01*
X49533000Y-25270624D01*
X49533000Y-24127000D01*
X49787000Y-24127000D01*
X49787000Y-25270624D01*
X50009040Y-25391909D01*
X50273881Y-25297070D01*
X50515131Y-25152385D01*
X50723519Y-24963414D01*
X50891037Y-24737420D01*
X51011246Y-24483087D01*
X51051904Y-24349039D01*
X50929915Y-24127000D01*
X49787000Y-24127000D01*
X49533000Y-24127000D01*
X48390085Y-24127000D01*
X48268096Y-24349039D01*
X40893684Y-24349039D01*
X40935000Y-24141335D01*
X40935000Y-23858665D01*
X40893685Y-23650961D01*
X48268096Y-23650961D01*
X48390085Y-23873000D01*
X49533000Y-23873000D01*
X49533000Y-22729376D01*
X49787000Y-22729376D01*
X49787000Y-23873000D01*
X50929915Y-23873000D01*
X51051904Y-23650961D01*
X51011246Y-23516913D01*
X51001093Y-23495431D01*
X80148866Y-23495431D01*
X80212366Y-24149293D01*
X80402208Y-24778203D01*
X80711096Y-25357992D01*
X80716172Y-25365589D01*
X81154626Y-25665769D01*
X83320395Y-23500000D01*
X81154626Y-21334231D01*
X80716172Y-21634411D01*
X80405704Y-22213356D01*
X80214148Y-22841746D01*
X80148866Y-23495431D01*
X51001093Y-23495431D01*
X50891037Y-23262580D01*
X50723519Y-23036586D01*
X50515131Y-22847615D01*
X50273881Y-22702930D01*
X50009040Y-22608091D01*
X49787000Y-22729376D01*
X49533000Y-22729376D01*
X49310960Y-22608091D01*
X49046119Y-22702930D01*
X48804869Y-22847615D01*
X48596481Y-23036586D01*
X48428963Y-23262580D01*
X48308754Y-23516913D01*
X48268096Y-23650961D01*
X40893685Y-23650961D01*
X40879853Y-23581426D01*
X40771680Y-23320273D01*
X40614637Y-23085241D01*
X40414759Y-22885363D01*
X40179727Y-22728320D01*
X39918574Y-22620147D01*
X39641335Y-22565000D01*
X39358665Y-22565000D01*
X39081426Y-22620147D01*
X38820273Y-22728320D01*
X38585241Y-22885363D01*
X38385363Y-23085241D01*
X38228320Y-23320273D01*
X38120147Y-23581426D01*
X38065000Y-23858665D01*
X26815771Y-23858665D01*
X26851134Y-23504569D01*
X26787634Y-22850707D01*
X26597792Y-22221797D01*
X26288904Y-21642008D01*
X26283828Y-21634411D01*
X25845374Y-21334231D01*
X23679605Y-23500000D01*
X23320395Y-23500000D01*
X23306253Y-23485858D01*
X23485858Y-23306253D01*
X23500000Y-23320395D01*
X25665769Y-21154626D01*
X25365589Y-20716172D01*
X25354080Y-20710000D01*
X81644065Y-20710000D01*
X81642008Y-20711096D01*
G36*
X53855363Y-51614759D02*
G01*
X54055241Y-51814637D01*
X54290273Y-51971680D01*
X54300865Y-51976067D01*
X54114869Y-52087615D01*
X53906481Y-52276586D01*
X53738963Y-52502580D01*
X53618754Y-52756913D01*
X53578096Y-52890961D01*
X53700085Y-53113000D01*
X54843000Y-53113000D01*
X54843000Y-53093000D01*
X55097000Y-53093000D01*
X55097000Y-53113000D01*
X55117000Y-53113000D01*
X55117000Y-53367000D01*
X55097000Y-53367000D01*
X55097000Y-53387000D01*
X54843000Y-53387000D01*
X54843000Y-53367000D01*
X53700085Y-53367000D01*
X53578096Y-53589039D01*
X53618754Y-53723087D01*
X53738963Y-53977420D01*
X53906481Y-54203414D01*
X54114869Y-54392385D01*
X54300865Y-54503933D01*
X54290273Y-54508320D01*
X54055241Y-54665363D01*
X53855363Y-54865241D01*
X53698320Y-55100273D01*
X53590147Y-55361426D01*
X53535000Y-55638665D01*
X53535000Y-55921335D01*
X53590147Y-56198574D01*
X53698320Y-56459727D01*
X53855363Y-56694759D01*
X54055241Y-56894637D01*
X54287759Y-57050000D01*
X54055241Y-57205363D01*
X53855363Y-57405241D01*
X53698320Y-57640273D01*
X53590147Y-57901426D01*
X53535000Y-58178665D01*
X53535000Y-58461335D01*
X53590147Y-58738574D01*
X53698320Y-58999727D01*
X53855363Y-59234759D01*
X54055241Y-59434637D01*
X54290273Y-59591680D01*
X54300865Y-59596067D01*
X54114869Y-59707615D01*
X53906481Y-59896586D01*
X53738963Y-60122580D01*
X53618754Y-60376913D01*
X53578096Y-60510961D01*
X53700085Y-60733000D01*
X54843000Y-60733000D01*
X54843000Y-60713000D01*
X55097000Y-60713000D01*
X55097000Y-60733000D01*
X56239915Y-60733000D01*
X56361904Y-60510961D01*
X56321246Y-60376913D01*
X56201037Y-60122580D01*
X56033519Y-59896586D01*
X55825131Y-59707615D01*
X55639135Y-59596067D01*
X55649727Y-59591680D01*
X55884759Y-59434637D01*
X56084637Y-59234759D01*
X56241680Y-58999727D01*
X56349853Y-58738574D01*
X56405000Y-58461335D01*
X56405000Y-58178665D01*
X56349853Y-57901426D01*
X56241680Y-57640273D01*
X56084637Y-57405241D01*
X55884759Y-57205363D01*
X55652241Y-57050000D01*
X55884759Y-56894637D01*
X56084637Y-56694759D01*
X56241680Y-56459727D01*
X56349853Y-56198574D01*
X56405000Y-55921335D01*
X56405000Y-55638665D01*
X56386285Y-55544582D01*
X57601428Y-54329440D01*
X57633291Y-54303291D01*
X57737636Y-54176146D01*
X57815172Y-54031087D01*
X57862918Y-53873689D01*
X57875000Y-53751019D01*
X57875000Y-53751018D01*
X57879040Y-53710001D01*
X57875000Y-53668982D01*
X57875000Y-53667002D01*
X57989844Y-53667002D01*
X57868524Y-53896890D01*
X57913175Y-54044099D01*
X58038359Y-54306920D01*
X58212412Y-54540269D01*
X58428645Y-54735178D01*
X58545534Y-54804805D01*
X58363368Y-54926525D01*
X58156525Y-55133368D01*
X57994010Y-55376589D01*
X57882068Y-55646842D01*
X57825000Y-55933740D01*
X57825000Y-56226260D01*
X57882068Y-56513158D01*
X57994010Y-56783411D01*
X58156525Y-57026632D01*
X58363368Y-57233475D01*
X58537760Y-57350000D01*
X58363368Y-57466525D01*
X58156525Y-57673368D01*
X57994010Y-57916589D01*
X57882068Y-58186842D01*
X57825000Y-58473740D01*
X57825000Y-58766260D01*
X57882068Y-59053158D01*
X57994010Y-59323411D01*
X58156525Y-59566632D01*
X58363368Y-59773475D01*
X58545534Y-59895195D01*
X58428645Y-59964822D01*
X58212412Y-60159731D01*
X58038359Y-60393080D01*
X57913175Y-60655901D01*
X57868524Y-60803110D01*
X57989845Y-61033000D01*
X59183000Y-61033000D01*
X59183000Y-61013000D01*
X59437000Y-61013000D01*
X59437000Y-61033000D01*
X59457000Y-61033000D01*
X59457000Y-61287000D01*
X59437000Y-61287000D01*
X59437000Y-61307000D01*
X59183000Y-61307000D01*
X59183000Y-61287000D01*
X57989845Y-61287000D01*
X57868524Y-61516890D01*
X57898282Y-61614999D01*
X56188007Y-61614999D01*
X56201037Y-61597420D01*
X56321246Y-61343087D01*
X56361904Y-61209039D01*
X56239915Y-60987000D01*
X55097000Y-60987000D01*
X55097000Y-61007000D01*
X54843000Y-61007000D01*
X54843000Y-60987000D01*
X53700085Y-60987000D01*
X53578096Y-61209039D01*
X53618754Y-61343087D01*
X53738963Y-61597420D01*
X53906481Y-61823414D01*
X54114869Y-62012385D01*
X54300865Y-62123933D01*
X54290273Y-62128320D01*
X54055241Y-62285363D01*
X53855363Y-62485241D01*
X53698320Y-62720273D01*
X53590147Y-62981426D01*
X53535000Y-63258665D01*
X53535000Y-63541335D01*
X53590147Y-63818574D01*
X53698320Y-64079727D01*
X53855363Y-64314759D01*
X54055241Y-64514637D01*
X54287759Y-64670000D01*
X54055241Y-64825363D01*
X53855363Y-65025241D01*
X53698320Y-65260273D01*
X53590147Y-65521426D01*
X53535000Y-65798665D01*
X53535000Y-66081335D01*
X53585180Y-66333601D01*
X52025000Y-64773422D01*
X52025000Y-52616578D01*
X53056579Y-51585000D01*
X53835479Y-51585000D01*
X53855363Y-51614759D01*
G37*
X53855363Y-51614759D02*
X54055241Y-51814637D01*
X54290273Y-51971680D01*
X54300865Y-51976067D01*
X54114869Y-52087615D01*
X53906481Y-52276586D01*
X53738963Y-52502580D01*
X53618754Y-52756913D01*
X53578096Y-52890961D01*
X53700085Y-53113000D01*
X54843000Y-53113000D01*
X54843000Y-53093000D01*
X55097000Y-53093000D01*
X55097000Y-53113000D01*
X55117000Y-53113000D01*
X55117000Y-53367000D01*
X55097000Y-53367000D01*
X55097000Y-53387000D01*
X54843000Y-53387000D01*
X54843000Y-53367000D01*
X53700085Y-53367000D01*
X53578096Y-53589039D01*
X53618754Y-53723087D01*
X53738963Y-53977420D01*
X53906481Y-54203414D01*
X54114869Y-54392385D01*
X54300865Y-54503933D01*
X54290273Y-54508320D01*
X54055241Y-54665363D01*
X53855363Y-54865241D01*
X53698320Y-55100273D01*
X53590147Y-55361426D01*
X53535000Y-55638665D01*
X53535000Y-55921335D01*
X53590147Y-56198574D01*
X53698320Y-56459727D01*
X53855363Y-56694759D01*
X54055241Y-56894637D01*
X54287759Y-57050000D01*
X54055241Y-57205363D01*
X53855363Y-57405241D01*
X53698320Y-57640273D01*
X53590147Y-57901426D01*
X53535000Y-58178665D01*
X53535000Y-58461335D01*
X53590147Y-58738574D01*
X53698320Y-58999727D01*
X53855363Y-59234759D01*
X54055241Y-59434637D01*
X54290273Y-59591680D01*
X54300865Y-59596067D01*
X54114869Y-59707615D01*
X53906481Y-59896586D01*
X53738963Y-60122580D01*
X53618754Y-60376913D01*
X53578096Y-60510961D01*
X53700085Y-60733000D01*
X54843000Y-60733000D01*
X54843000Y-60713000D01*
X55097000Y-60713000D01*
X55097000Y-60733000D01*
X56239915Y-60733000D01*
X56361904Y-60510961D01*
X56321246Y-60376913D01*
X56201037Y-60122580D01*
X56033519Y-59896586D01*
X55825131Y-59707615D01*
X55639135Y-59596067D01*
X55649727Y-59591680D01*
X55884759Y-59434637D01*
X56084637Y-59234759D01*
X56241680Y-58999727D01*
X56349853Y-58738574D01*
X56405000Y-58461335D01*
X56405000Y-58178665D01*
X56349853Y-57901426D01*
X56241680Y-57640273D01*
X56084637Y-57405241D01*
X55884759Y-57205363D01*
X55652241Y-57050000D01*
X55884759Y-56894637D01*
X56084637Y-56694759D01*
X56241680Y-56459727D01*
X56349853Y-56198574D01*
X56405000Y-55921335D01*
X56405000Y-55638665D01*
X56386285Y-55544582D01*
X57601428Y-54329440D01*
X57633291Y-54303291D01*
X57737636Y-54176146D01*
X57815172Y-54031087D01*
X57862918Y-53873689D01*
X57875000Y-53751019D01*
X57875000Y-53751018D01*
X57879040Y-53710001D01*
X57875000Y-53668982D01*
X57875000Y-53667002D01*
X57989844Y-53667002D01*
X57868524Y-53896890D01*
X57913175Y-54044099D01*
X58038359Y-54306920D01*
X58212412Y-54540269D01*
X58428645Y-54735178D01*
X58545534Y-54804805D01*
X58363368Y-54926525D01*
X58156525Y-55133368D01*
X57994010Y-55376589D01*
X57882068Y-55646842D01*
X57825000Y-55933740D01*
X57825000Y-56226260D01*
X57882068Y-56513158D01*
X57994010Y-56783411D01*
X58156525Y-57026632D01*
X58363368Y-57233475D01*
X58537760Y-57350000D01*
X58363368Y-57466525D01*
X58156525Y-57673368D01*
X57994010Y-57916589D01*
X57882068Y-58186842D01*
X57825000Y-58473740D01*
X57825000Y-58766260D01*
X57882068Y-59053158D01*
X57994010Y-59323411D01*
X58156525Y-59566632D01*
X58363368Y-59773475D01*
X58545534Y-59895195D01*
X58428645Y-59964822D01*
X58212412Y-60159731D01*
X58038359Y-60393080D01*
X57913175Y-60655901D01*
X57868524Y-60803110D01*
X57989845Y-61033000D01*
X59183000Y-61033000D01*
X59183000Y-61013000D01*
X59437000Y-61013000D01*
X59437000Y-61033000D01*
X59457000Y-61033000D01*
X59457000Y-61287000D01*
X59437000Y-61287000D01*
X59437000Y-61307000D01*
X59183000Y-61307000D01*
X59183000Y-61287000D01*
X57989845Y-61287000D01*
X57868524Y-61516890D01*
X57898282Y-61614999D01*
X56188007Y-61614999D01*
X56201037Y-61597420D01*
X56321246Y-61343087D01*
X56361904Y-61209039D01*
X56239915Y-60987000D01*
X55097000Y-60987000D01*
X55097000Y-61007000D01*
X54843000Y-61007000D01*
X54843000Y-60987000D01*
X53700085Y-60987000D01*
X53578096Y-61209039D01*
X53618754Y-61343087D01*
X53738963Y-61597420D01*
X53906481Y-61823414D01*
X54114869Y-62012385D01*
X54300865Y-62123933D01*
X54290273Y-62128320D01*
X54055241Y-62285363D01*
X53855363Y-62485241D01*
X53698320Y-62720273D01*
X53590147Y-62981426D01*
X53535000Y-63258665D01*
X53535000Y-63541335D01*
X53590147Y-63818574D01*
X53698320Y-64079727D01*
X53855363Y-64314759D01*
X54055241Y-64514637D01*
X54287759Y-64670000D01*
X54055241Y-64825363D01*
X53855363Y-65025241D01*
X53698320Y-65260273D01*
X53590147Y-65521426D01*
X53535000Y-65798665D01*
X53535000Y-66081335D01*
X53585180Y-66333601D01*
X52025000Y-64773422D01*
X52025000Y-52616578D01*
X53056579Y-51585000D01*
X53835479Y-51585000D01*
X53855363Y-51614759D01*
G36*
X59437000Y-53413000D02*
G01*
X59457000Y-53413000D01*
X59457000Y-53667000D01*
X59437000Y-53667000D01*
X59437000Y-53687000D01*
X59183000Y-53687000D01*
X59183000Y-53667000D01*
X59163000Y-53667000D01*
X59163000Y-53413000D01*
X59183000Y-53413000D01*
X59183000Y-53393000D01*
X59437000Y-53393000D01*
X59437000Y-53413000D01*
G37*
X59437000Y-53413000D02*
X59457000Y-53413000D01*
X59457000Y-53667000D01*
X59437000Y-53667000D01*
X59437000Y-53687000D01*
X59183000Y-53687000D01*
X59183000Y-53667000D01*
X59163000Y-53667000D01*
X59163000Y-53413000D01*
X59183000Y-53413000D01*
X59183000Y-53393000D01*
X59437000Y-53393000D01*
X59437000Y-53413000D01*
G36*
X59437000Y-40713000D02*
G01*
X59457000Y-40713000D01*
X59457000Y-40967000D01*
X59437000Y-40967000D01*
X59437000Y-40987000D01*
X59183000Y-40987000D01*
X59183000Y-40967000D01*
X59163000Y-40967000D01*
X59163000Y-40713000D01*
X59183000Y-40713000D01*
X59183000Y-40693000D01*
X59437000Y-40693000D01*
X59437000Y-40713000D01*
G37*
X59437000Y-40713000D02*
X59457000Y-40713000D01*
X59457000Y-40967000D01*
X59437000Y-40967000D01*
X59437000Y-40987000D01*
X59183000Y-40987000D01*
X59183000Y-40967000D01*
X59163000Y-40967000D01*
X59163000Y-40713000D01*
X59183000Y-40713000D01*
X59183000Y-40693000D01*
X59437000Y-40693000D01*
X59437000Y-40713000D01*
M02*
