G04 #@! TF.GenerationSoftware,KiCad,Pcbnew,(5.1.6)-1*
G04 #@! TF.CreationDate,2020-11-07T02:00:21+01:00*
G04 #@! TF.ProjectId,Mouse module 2,4d6f7573-6520-46d6-9f64-756c6520322e,rev?*
G04 #@! TF.SameCoordinates,Original*
G04 #@! TF.FileFunction,Legend,Top*
G04 #@! TF.FilePolarity,Positive*
%FSLAX46Y46*%
G04 Gerber Fmt 4.6, Leading zero omitted, Abs format (unit mm)*
G04 Created by KiCad (PCBNEW (5.1.6)-1) date 2020-11-07 02:00:21*
%MOMM*%
%LPD*%
G01*
G04 APERTURE LIST*
%ADD10C,0.340000*%
%ADD11C,0.127000*%
%ADD12C,0.120000*%
%ADD13C,0.150000*%
G04 APERTURE END LIST*
D10*
X85508000Y-75100000D02*
G75*
G03*
X85508000Y-75100000I-170000J0D01*
G01*
D11*
X86538000Y-74200000D02*
X86538000Y-74500000D01*
X86538000Y-68200000D02*
X86538000Y-74200000D01*
X86538000Y-66300000D02*
X86538000Y-68200000D01*
X72538000Y-66300000D02*
X86538000Y-66300000D01*
X72538000Y-74500000D02*
X72538000Y-66300000D01*
X86538000Y-74500000D02*
X72538000Y-74500000D01*
D10*
X85508000Y-65550000D02*
G75*
G03*
X85508000Y-65550000I-170000J0D01*
G01*
D11*
X86538000Y-64650000D02*
X86538000Y-64950000D01*
X86538000Y-58650000D02*
X86538000Y-64650000D01*
X86538000Y-56750000D02*
X86538000Y-58650000D01*
X72538000Y-56750000D02*
X86538000Y-56750000D01*
X72538000Y-64950000D02*
X72538000Y-56750000D01*
X86538000Y-64950000D02*
X72538000Y-64950000D01*
D10*
X85508000Y-55900000D02*
G75*
G03*
X85508000Y-55900000I-170000J0D01*
G01*
D11*
X86538000Y-55000000D02*
X86538000Y-55300000D01*
X86538000Y-49000000D02*
X86538000Y-55000000D01*
X86538000Y-47100000D02*
X86538000Y-49000000D01*
X72538000Y-47100000D02*
X86538000Y-47100000D01*
X72538000Y-55300000D02*
X72538000Y-47100000D01*
X86538000Y-55300000D02*
X72538000Y-55300000D01*
D10*
X85508000Y-46300000D02*
G75*
G03*
X85508000Y-46300000I-170000J0D01*
G01*
D11*
X86538000Y-45400000D02*
X86538000Y-45700000D01*
X86538000Y-39400000D02*
X86538000Y-45400000D01*
X86538000Y-37500000D02*
X86538000Y-39400000D01*
X72538000Y-37500000D02*
X86538000Y-37500000D01*
X72538000Y-45700000D02*
X72538000Y-37500000D01*
X86538000Y-45700000D02*
X72538000Y-45700000D01*
D10*
X85508000Y-36700000D02*
G75*
G03*
X85508000Y-36700000I-170000J0D01*
G01*
D11*
X86538000Y-35800000D02*
X86538000Y-36100000D01*
X86538000Y-29800000D02*
X86538000Y-35800000D01*
X86538000Y-27900000D02*
X86538000Y-29800000D01*
X72538000Y-27900000D02*
X86538000Y-27900000D01*
X72538000Y-36100000D02*
X72538000Y-27900000D01*
X86538000Y-36100000D02*
X72538000Y-36100000D01*
D12*
X50530000Y-68130000D02*
X55470000Y-68130000D01*
X50530000Y-70870000D02*
X55470000Y-70870000D01*
X50530000Y-68130000D02*
X50530000Y-68445000D01*
X50530000Y-70555000D02*
X50530000Y-70870000D01*
X55470000Y-68130000D02*
X55470000Y-68445000D01*
X55470000Y-70555000D02*
X55470000Y-70870000D01*
X47670000Y-70870000D02*
X42730000Y-70870000D01*
X47670000Y-68130000D02*
X42730000Y-68130000D01*
X47670000Y-70870000D02*
X47670000Y-70555000D01*
X47670000Y-68445000D02*
X47670000Y-68130000D01*
X42730000Y-70870000D02*
X42730000Y-70555000D01*
X42730000Y-68445000D02*
X42730000Y-68130000D01*
X38055000Y-42530000D02*
X38370000Y-42530000D01*
X35630000Y-42530000D02*
X35945000Y-42530000D01*
X38055000Y-47470000D02*
X38370000Y-47470000D01*
X35630000Y-47470000D02*
X35945000Y-47470000D01*
X38370000Y-47470000D02*
X38370000Y-42530000D01*
X35630000Y-47470000D02*
X35630000Y-42530000D01*
X39870000Y-70555000D02*
X39870000Y-70870000D01*
X39870000Y-68130000D02*
X39870000Y-68445000D01*
X34930000Y-70555000D02*
X34930000Y-70870000D01*
X34930000Y-68130000D02*
X34930000Y-68445000D01*
X34930000Y-70870000D02*
X39870000Y-70870000D01*
X34930000Y-68130000D02*
X39870000Y-68130000D01*
X55370000Y-26530000D02*
X55370000Y-31470000D01*
X52630000Y-26530000D02*
X52630000Y-31470000D01*
X55370000Y-26530000D02*
X55055000Y-26530000D01*
X52945000Y-26530000D02*
X52630000Y-26530000D01*
X55370000Y-31470000D02*
X55055000Y-31470000D01*
X52945000Y-31470000D02*
X52630000Y-31470000D01*
X27790000Y-81140000D02*
X27790000Y-72020000D01*
X27790000Y-72020000D02*
X55990000Y-72020000D01*
X55990000Y-72020000D02*
X55990000Y-81140000D01*
X55990000Y-81140000D02*
X27790000Y-81140000D01*
X39840000Y-81140000D02*
X39840000Y-79830000D01*
X39840000Y-79830000D02*
X29090000Y-79830000D01*
X29090000Y-79830000D02*
X29090000Y-73330000D01*
X29090000Y-73330000D02*
X54690000Y-73330000D01*
X54690000Y-73330000D02*
X54690000Y-79830000D01*
X54690000Y-79830000D02*
X43940000Y-79830000D01*
X43940000Y-79830000D02*
X43940000Y-79830000D01*
X43940000Y-79830000D02*
X43940000Y-81140000D01*
X33000000Y-81530000D02*
X32500000Y-82530000D01*
X32500000Y-82530000D02*
X33500000Y-82530000D01*
X33500000Y-82530000D02*
X33000000Y-81530000D01*
X70000000Y-36560000D02*
X70000000Y-35790000D01*
X70000000Y-28480000D02*
X70000000Y-29250000D01*
X71370000Y-35790000D02*
X71370000Y-29250000D01*
X68630000Y-35790000D02*
X71370000Y-35790000D01*
X68630000Y-29250000D02*
X68630000Y-35790000D01*
X71370000Y-29250000D02*
X68630000Y-29250000D01*
X64630000Y-35790000D02*
X67370000Y-35790000D01*
X67370000Y-35790000D02*
X67370000Y-29250000D01*
X67370000Y-29250000D02*
X64630000Y-29250000D01*
X64630000Y-29250000D02*
X64630000Y-35790000D01*
X66000000Y-36560000D02*
X66000000Y-35790000D01*
X66000000Y-28480000D02*
X66000000Y-29250000D01*
X49290000Y-44370000D02*
X49290000Y-41630000D01*
X49290000Y-41630000D02*
X42750000Y-41630000D01*
X42750000Y-41630000D02*
X42750000Y-44370000D01*
X42750000Y-44370000D02*
X49290000Y-44370000D01*
X50060000Y-43000000D02*
X49290000Y-43000000D01*
X41980000Y-43000000D02*
X42750000Y-43000000D01*
X42810000Y-45630000D02*
X42810000Y-48370000D01*
X42810000Y-48370000D02*
X49350000Y-48370000D01*
X49350000Y-48370000D02*
X49350000Y-45630000D01*
X49350000Y-45630000D02*
X42810000Y-45630000D01*
X42040000Y-47000000D02*
X42810000Y-47000000D01*
X50120000Y-47000000D02*
X49350000Y-47000000D01*
X41310000Y-26630000D02*
X41310000Y-29370000D01*
X41310000Y-29370000D02*
X47850000Y-29370000D01*
X47850000Y-29370000D02*
X47850000Y-26630000D01*
X47850000Y-26630000D02*
X41310000Y-26630000D01*
X40540000Y-28000000D02*
X41310000Y-28000000D01*
X48620000Y-28000000D02*
X47850000Y-28000000D01*
X31500000Y-64920000D02*
X31500000Y-64150000D01*
X31500000Y-56840000D02*
X31500000Y-57610000D01*
X32870000Y-64150000D02*
X32870000Y-57610000D01*
X30130000Y-64150000D02*
X32870000Y-64150000D01*
X30130000Y-57610000D02*
X30130000Y-64150000D01*
X32870000Y-57610000D02*
X30130000Y-57610000D01*
X41310000Y-22630000D02*
X41310000Y-25370000D01*
X41310000Y-25370000D02*
X47850000Y-25370000D01*
X47850000Y-25370000D02*
X47850000Y-22630000D01*
X47850000Y-22630000D02*
X41310000Y-22630000D01*
X40540000Y-24000000D02*
X41310000Y-24000000D01*
X48620000Y-24000000D02*
X47850000Y-24000000D01*
X31500000Y-51620000D02*
X31500000Y-50850000D01*
X31500000Y-43540000D02*
X31500000Y-44310000D01*
X32870000Y-50850000D02*
X32870000Y-44310000D01*
X30130000Y-50850000D02*
X32870000Y-50850000D01*
X30130000Y-44310000D02*
X30130000Y-50850000D01*
X32870000Y-44310000D02*
X30130000Y-44310000D01*
X35000000Y-30380000D02*
X35000000Y-31150000D01*
X35000000Y-38460000D02*
X35000000Y-37690000D01*
X33630000Y-31150000D02*
X33630000Y-37690000D01*
X36370000Y-31150000D02*
X33630000Y-31150000D01*
X36370000Y-37690000D02*
X36370000Y-31150000D01*
X33630000Y-37690000D02*
X36370000Y-37690000D01*
X54500000Y-43020000D02*
X54500000Y-42250000D01*
X54500000Y-34940000D02*
X54500000Y-35710000D01*
X55870000Y-42250000D02*
X55870000Y-35710000D01*
X53130000Y-42250000D02*
X55870000Y-42250000D01*
X53130000Y-35710000D02*
X53130000Y-42250000D01*
X55870000Y-35710000D02*
X53130000Y-35710000D01*
X50160000Y-49370000D02*
X48510000Y-49370000D01*
X48510000Y-49370000D02*
X48510000Y-67270000D01*
X48510000Y-67270000D02*
X53810000Y-67270000D01*
X53810000Y-67270000D02*
X53810000Y-49370000D01*
X53810000Y-49370000D02*
X52160000Y-49370000D01*
X46020000Y-49310000D02*
X46020000Y-67330000D01*
X46020000Y-67330000D02*
X56300000Y-67330000D01*
X56300000Y-67330000D02*
X56300000Y-49310000D01*
X56300000Y-49310000D02*
X46020000Y-49310000D01*
X52160000Y-49370000D02*
G75*
G02*
X50160000Y-49370000I-1000000J0D01*
G01*
X43810000Y-30670000D02*
X42160000Y-30670000D01*
X42160000Y-30670000D02*
X42160000Y-40950000D01*
X42160000Y-40950000D02*
X47460000Y-40950000D01*
X47460000Y-40950000D02*
X47460000Y-30670000D01*
X47460000Y-30670000D02*
X45810000Y-30670000D01*
X39670000Y-30610000D02*
X39670000Y-41010000D01*
X39670000Y-41010000D02*
X49950000Y-41010000D01*
X49950000Y-41010000D02*
X49950000Y-30610000D01*
X49950000Y-30610000D02*
X39670000Y-30610000D01*
X45810000Y-30670000D02*
G75*
G02*
X43810000Y-30670000I-1000000J0D01*
G01*
X34050000Y-67340000D02*
X44330000Y-67340000D01*
X34050000Y-49320000D02*
X34050000Y-67340000D01*
X44330000Y-49320000D02*
X34050000Y-49320000D01*
X44330000Y-67340000D02*
X44330000Y-49320000D01*
X36540000Y-67280000D02*
X38190000Y-67280000D01*
X36540000Y-49380000D02*
X36540000Y-67280000D01*
X41840000Y-49380000D02*
X36540000Y-49380000D01*
X41840000Y-67280000D02*
X41840000Y-49380000D01*
X40190000Y-67280000D02*
X41840000Y-67280000D01*
X38190000Y-67280000D02*
G75*
G02*
X40190000Y-67280000I1000000J0D01*
G01*
D13*
X52833333Y-69857142D02*
X52785714Y-69904761D01*
X52642857Y-69952380D01*
X52547619Y-69952380D01*
X52404761Y-69904761D01*
X52309523Y-69809523D01*
X52261904Y-69714285D01*
X52214285Y-69523809D01*
X52214285Y-69380952D01*
X52261904Y-69190476D01*
X52309523Y-69095238D01*
X52404761Y-69000000D01*
X52547619Y-68952380D01*
X52642857Y-68952380D01*
X52785714Y-69000000D01*
X52833333Y-69047619D01*
X53785714Y-69952380D02*
X53214285Y-69952380D01*
X53500000Y-69952380D02*
X53500000Y-68952380D01*
X53404761Y-69095238D01*
X53309523Y-69190476D01*
X53214285Y-69238095D01*
X45033333Y-69857142D02*
X44985714Y-69904761D01*
X44842857Y-69952380D01*
X44747619Y-69952380D01*
X44604761Y-69904761D01*
X44509523Y-69809523D01*
X44461904Y-69714285D01*
X44414285Y-69523809D01*
X44414285Y-69380952D01*
X44461904Y-69190476D01*
X44509523Y-69095238D01*
X44604761Y-69000000D01*
X44747619Y-68952380D01*
X44842857Y-68952380D01*
X44985714Y-69000000D01*
X45033333Y-69047619D01*
X45414285Y-69047619D02*
X45461904Y-69000000D01*
X45557142Y-68952380D01*
X45795238Y-68952380D01*
X45890476Y-69000000D01*
X45938095Y-69047619D01*
X45985714Y-69142857D01*
X45985714Y-69238095D01*
X45938095Y-69380952D01*
X45366666Y-69952380D01*
X45985714Y-69952380D01*
X37407142Y-45166666D02*
X37454761Y-45214285D01*
X37502380Y-45357142D01*
X37502380Y-45452380D01*
X37454761Y-45595238D01*
X37359523Y-45690476D01*
X37264285Y-45738095D01*
X37073809Y-45785714D01*
X36930952Y-45785714D01*
X36740476Y-45738095D01*
X36645238Y-45690476D01*
X36550000Y-45595238D01*
X36502380Y-45452380D01*
X36502380Y-45357142D01*
X36550000Y-45214285D01*
X36597619Y-45166666D01*
X36502380Y-44833333D02*
X36502380Y-44214285D01*
X36883333Y-44547619D01*
X36883333Y-44404761D01*
X36930952Y-44309523D01*
X36978571Y-44261904D01*
X37073809Y-44214285D01*
X37311904Y-44214285D01*
X37407142Y-44261904D01*
X37454761Y-44309523D01*
X37502380Y-44404761D01*
X37502380Y-44690476D01*
X37454761Y-44785714D01*
X37407142Y-44833333D01*
X37233333Y-69857142D02*
X37185714Y-69904761D01*
X37042857Y-69952380D01*
X36947619Y-69952380D01*
X36804761Y-69904761D01*
X36709523Y-69809523D01*
X36661904Y-69714285D01*
X36614285Y-69523809D01*
X36614285Y-69380952D01*
X36661904Y-69190476D01*
X36709523Y-69095238D01*
X36804761Y-69000000D01*
X36947619Y-68952380D01*
X37042857Y-68952380D01*
X37185714Y-69000000D01*
X37233333Y-69047619D01*
X38090476Y-69285714D02*
X38090476Y-69952380D01*
X37852380Y-68904761D02*
X37614285Y-69619047D01*
X38233333Y-69619047D01*
X54357142Y-29166666D02*
X54404761Y-29214285D01*
X54452380Y-29357142D01*
X54452380Y-29452380D01*
X54404761Y-29595238D01*
X54309523Y-29690476D01*
X54214285Y-29738095D01*
X54023809Y-29785714D01*
X53880952Y-29785714D01*
X53690476Y-29738095D01*
X53595238Y-29690476D01*
X53500000Y-29595238D01*
X53452380Y-29452380D01*
X53452380Y-29357142D01*
X53500000Y-29214285D01*
X53547619Y-29166666D01*
X53452380Y-28261904D02*
X53452380Y-28738095D01*
X53928571Y-28785714D01*
X53880952Y-28738095D01*
X53833333Y-28642857D01*
X53833333Y-28404761D01*
X53880952Y-28309523D01*
X53928571Y-28261904D01*
X54023809Y-28214285D01*
X54261904Y-28214285D01*
X54357142Y-28261904D01*
X54404761Y-28309523D01*
X54452380Y-28404761D01*
X54452380Y-28642857D01*
X54404761Y-28738095D01*
X54357142Y-28785714D01*
X70552380Y-32686666D02*
X70076190Y-33020000D01*
X70552380Y-33258095D02*
X69552380Y-33258095D01*
X69552380Y-32877142D01*
X69600000Y-32781904D01*
X69647619Y-32734285D01*
X69742857Y-32686666D01*
X69885714Y-32686666D01*
X69980952Y-32734285D01*
X70028571Y-32781904D01*
X70076190Y-32877142D01*
X70076190Y-33258095D01*
X70552380Y-31734285D02*
X70552380Y-32305714D01*
X70552380Y-32020000D02*
X69552380Y-32020000D01*
X69695238Y-32115238D01*
X69790476Y-32210476D01*
X69838095Y-32305714D01*
X66627379Y-32686666D02*
X66151189Y-33020000D01*
X66627379Y-33258095D02*
X65627379Y-33258095D01*
X65627379Y-32877142D01*
X65674999Y-32781904D01*
X65722618Y-32734285D01*
X65817856Y-32686666D01*
X65960713Y-32686666D01*
X66055951Y-32734285D01*
X66103570Y-32781904D01*
X66151189Y-32877142D01*
X66151189Y-33258095D01*
X65722618Y-32305714D02*
X65674999Y-32258095D01*
X65627379Y-32162857D01*
X65627379Y-31924761D01*
X65674999Y-31829523D01*
X65722618Y-31781904D01*
X65817856Y-31734285D01*
X65913094Y-31734285D01*
X66055951Y-31781904D01*
X66627379Y-32353333D01*
X66627379Y-31734285D01*
X45853333Y-43577381D02*
X45520000Y-43101191D01*
X45281904Y-43577381D02*
X45281904Y-42577381D01*
X45662857Y-42577381D01*
X45758095Y-42625001D01*
X45805714Y-42672620D01*
X45853333Y-42767858D01*
X45853333Y-42910715D01*
X45805714Y-43005953D01*
X45758095Y-43053572D01*
X45662857Y-43101191D01*
X45281904Y-43101191D01*
X46186666Y-42577381D02*
X46805714Y-42577381D01*
X46472380Y-42958334D01*
X46615238Y-42958334D01*
X46710476Y-43005953D01*
X46758095Y-43053572D01*
X46805714Y-43148810D01*
X46805714Y-43386905D01*
X46758095Y-43482143D01*
X46710476Y-43529762D01*
X46615238Y-43577381D01*
X46329523Y-43577381D01*
X46234285Y-43529762D01*
X46186666Y-43482143D01*
X45908332Y-47677379D02*
X45574999Y-47201189D01*
X45336903Y-47677379D02*
X45336903Y-46677379D01*
X45717856Y-46677379D01*
X45813094Y-46724999D01*
X45860713Y-46772618D01*
X45908332Y-46867856D01*
X45908332Y-47010713D01*
X45860713Y-47105951D01*
X45813094Y-47153570D01*
X45717856Y-47201189D01*
X45336903Y-47201189D01*
X46765475Y-47010713D02*
X46765475Y-47677379D01*
X46527379Y-46629760D02*
X46289284Y-47344046D01*
X46908332Y-47344046D01*
X44413333Y-28577379D02*
X44080000Y-28101189D01*
X43841904Y-28577379D02*
X43841904Y-27577379D01*
X44222857Y-27577379D01*
X44318095Y-27624999D01*
X44365714Y-27672618D01*
X44413333Y-27767856D01*
X44413333Y-27910713D01*
X44365714Y-28005951D01*
X44318095Y-28053570D01*
X44222857Y-28101189D01*
X43841904Y-28101189D01*
X45318095Y-27577379D02*
X44841904Y-27577379D01*
X44794285Y-28053570D01*
X44841904Y-28005951D01*
X44937142Y-27958332D01*
X45175238Y-27958332D01*
X45270476Y-28005951D01*
X45318095Y-28053570D01*
X45365714Y-28148808D01*
X45365714Y-28386903D01*
X45318095Y-28482141D01*
X45270476Y-28529760D01*
X45175238Y-28577379D01*
X44937142Y-28577379D01*
X44841904Y-28529760D01*
X44794285Y-28482141D01*
X31952380Y-61046666D02*
X31476190Y-61380000D01*
X31952380Y-61618095D02*
X30952380Y-61618095D01*
X30952380Y-61237142D01*
X31000000Y-61141904D01*
X31047619Y-61094285D01*
X31142857Y-61046666D01*
X31285714Y-61046666D01*
X31380952Y-61094285D01*
X31428571Y-61141904D01*
X31476190Y-61237142D01*
X31476190Y-61618095D01*
X30952380Y-60189523D02*
X30952380Y-60380000D01*
X31000000Y-60475238D01*
X31047619Y-60522857D01*
X31190476Y-60618095D01*
X31380952Y-60665714D01*
X31761904Y-60665714D01*
X31857142Y-60618095D01*
X31904761Y-60570476D01*
X31952380Y-60475238D01*
X31952380Y-60284761D01*
X31904761Y-60189523D01*
X31857142Y-60141904D01*
X31761904Y-60094285D01*
X31523809Y-60094285D01*
X31428571Y-60141904D01*
X31380952Y-60189523D01*
X31333333Y-60284761D01*
X31333333Y-60475238D01*
X31380952Y-60570476D01*
X31428571Y-60618095D01*
X31523809Y-60665714D01*
X44413333Y-24377379D02*
X44080000Y-23901189D01*
X43841904Y-24377379D02*
X43841904Y-23377379D01*
X44222857Y-23377379D01*
X44318095Y-23424999D01*
X44365714Y-23472618D01*
X44413333Y-23567856D01*
X44413333Y-23710713D01*
X44365714Y-23805951D01*
X44318095Y-23853570D01*
X44222857Y-23901189D01*
X43841904Y-23901189D01*
X44746666Y-23377379D02*
X45413333Y-23377379D01*
X44984761Y-24377379D01*
X31827381Y-47741665D02*
X31351191Y-48074999D01*
X31827381Y-48313094D02*
X30827381Y-48313094D01*
X30827381Y-47932141D01*
X30875001Y-47836903D01*
X30922620Y-47789284D01*
X31017858Y-47741665D01*
X31160715Y-47741665D01*
X31255953Y-47789284D01*
X31303572Y-47836903D01*
X31351191Y-47932141D01*
X31351191Y-48313094D01*
X31255953Y-47170237D02*
X31208334Y-47265475D01*
X31160715Y-47313094D01*
X31065477Y-47360713D01*
X31017858Y-47360713D01*
X30922620Y-47313094D01*
X30875001Y-47265475D01*
X30827381Y-47170237D01*
X30827381Y-46979760D01*
X30875001Y-46884522D01*
X30922620Y-46836903D01*
X31017858Y-46789284D01*
X31065477Y-46789284D01*
X31160715Y-46836903D01*
X31208334Y-46884522D01*
X31255953Y-46979760D01*
X31255953Y-47170237D01*
X31303572Y-47265475D01*
X31351191Y-47313094D01*
X31446429Y-47360713D01*
X31636905Y-47360713D01*
X31732143Y-47313094D01*
X31779762Y-47265475D01*
X31827381Y-47170237D01*
X31827381Y-46979760D01*
X31779762Y-46884522D01*
X31732143Y-46836903D01*
X31636905Y-46789284D01*
X31446429Y-46789284D01*
X31351191Y-46836903D01*
X31303572Y-46884522D01*
X31255953Y-46979760D01*
X35427379Y-34586666D02*
X34951189Y-34920000D01*
X35427379Y-35158095D02*
X34427379Y-35158095D01*
X34427379Y-34777142D01*
X34474999Y-34681904D01*
X34522618Y-34634285D01*
X34617856Y-34586666D01*
X34760713Y-34586666D01*
X34855951Y-34634285D01*
X34903570Y-34681904D01*
X34951189Y-34777142D01*
X34951189Y-35158095D01*
X35427379Y-34110476D02*
X35427379Y-33920000D01*
X35379760Y-33824761D01*
X35332141Y-33777142D01*
X35189284Y-33681904D01*
X34998808Y-33634285D01*
X34617856Y-33634285D01*
X34522618Y-33681904D01*
X34474999Y-33729523D01*
X34427379Y-33824761D01*
X34427379Y-34015238D01*
X34474999Y-34110476D01*
X34522618Y-34158095D01*
X34617856Y-34205714D01*
X34855951Y-34205714D01*
X34951189Y-34158095D01*
X34998808Y-34110476D01*
X35046427Y-34015238D01*
X35046427Y-33824761D01*
X34998808Y-33729523D01*
X34951189Y-33681904D01*
X34855951Y-33634285D01*
X54777381Y-39617856D02*
X54301191Y-39951189D01*
X54777381Y-40189284D02*
X53777381Y-40189284D01*
X53777381Y-39808332D01*
X53825001Y-39713094D01*
X53872620Y-39665475D01*
X53967858Y-39617856D01*
X54110715Y-39617856D01*
X54205953Y-39665475D01*
X54253572Y-39713094D01*
X54301191Y-39808332D01*
X54301191Y-40189284D01*
X54777381Y-38665475D02*
X54777381Y-39236903D01*
X54777381Y-38951189D02*
X53777381Y-38951189D01*
X53920239Y-39046427D01*
X54015477Y-39141665D01*
X54063096Y-39236903D01*
X53777381Y-38046427D02*
X53777381Y-37951189D01*
X53825001Y-37855951D01*
X53872620Y-37808332D01*
X53967858Y-37760713D01*
X54158334Y-37713094D01*
X54396429Y-37713094D01*
X54586905Y-37760713D01*
X54682143Y-37808332D01*
X54729762Y-37855951D01*
X54777381Y-37951189D01*
X54777381Y-38046427D01*
X54729762Y-38141665D01*
X54682143Y-38189284D01*
X54586905Y-38236903D01*
X54396429Y-38284522D01*
X54158334Y-38284522D01*
X53967858Y-38236903D01*
X53872620Y-38189284D01*
X53825001Y-38141665D01*
X53777381Y-38046427D01*
X50488095Y-57752380D02*
X50488095Y-58561904D01*
X50535714Y-58657142D01*
X50583333Y-58704761D01*
X50678571Y-58752380D01*
X50869047Y-58752380D01*
X50964285Y-58704761D01*
X51011904Y-58657142D01*
X51059523Y-58561904D01*
X51059523Y-57752380D01*
X52059523Y-58752380D02*
X51488095Y-58752380D01*
X51773809Y-58752380D02*
X51773809Y-57752380D01*
X51678571Y-57895238D01*
X51583333Y-57990476D01*
X51488095Y-58038095D01*
X44048095Y-35452380D02*
X44048095Y-36261904D01*
X44095714Y-36357142D01*
X44143333Y-36404761D01*
X44238571Y-36452380D01*
X44429047Y-36452380D01*
X44524285Y-36404761D01*
X44571904Y-36357142D01*
X44619523Y-36261904D01*
X44619523Y-35452380D01*
X45048095Y-35547619D02*
X45095714Y-35500000D01*
X45190952Y-35452380D01*
X45429047Y-35452380D01*
X45524285Y-35500000D01*
X45571904Y-35547619D01*
X45619523Y-35642857D01*
X45619523Y-35738095D01*
X45571904Y-35880952D01*
X45000476Y-36452380D01*
X45619523Y-36452380D01*
X38388095Y-57852380D02*
X38388095Y-58661904D01*
X38435714Y-58757142D01*
X38483333Y-58804761D01*
X38578571Y-58852380D01*
X38769047Y-58852380D01*
X38864285Y-58804761D01*
X38911904Y-58757142D01*
X38959523Y-58661904D01*
X38959523Y-57852380D01*
X39340476Y-57852380D02*
X39959523Y-57852380D01*
X39626190Y-58233333D01*
X39769047Y-58233333D01*
X39864285Y-58280952D01*
X39911904Y-58328571D01*
X39959523Y-58423809D01*
X39959523Y-58661904D01*
X39911904Y-58757142D01*
X39864285Y-58804761D01*
X39769047Y-58852380D01*
X39483333Y-58852380D01*
X39388095Y-58804761D01*
X39340476Y-58757142D01*
M02*
