M48
; DRILL file {KiCad (5.1.6)-1} date 11/07/20 02:01:08
; FORMAT={-:-/ absolute / inch / decimal}
; #@! TF.CreationDate,2020-11-07T02:01:08+01:00
; #@! TF.GenerationSoftware,Kicad,Pcbnew,(5.1.6)-1
; #@! TF.FileFunction,Plated,1,2,PTH
FMAT,2
INCH
T1C0.0315
T2C0.0394
T3C0.1063
%
G90
G05
T1
X1.374Y-2.7362
X1.5709Y-2.7362
X2.5984Y-1.0803
X2.5984Y-1.4803
X1.4567Y-1.6732
X1.4567Y-1.8701
X1.378Y-1.1551
X1.378Y-1.5551
X2.7559Y-1.0803
X2.7559Y-1.4803
X1.5551Y-0.9449
X1.9551Y-0.9449
X1.3929Y-1.9965
X1.3929Y-2.0965
X1.3929Y-2.1965
X1.3929Y-2.2965
X1.3929Y-2.3965
X1.3929Y-2.4965
X1.3929Y-2.5965
X1.6929Y-1.9965
X1.6929Y-2.0965
X1.6929Y-2.1965
X1.6929Y-2.2965
X1.6929Y-2.3965
X1.6929Y-2.4965
X1.6929Y-2.5965
X2.126Y-1.0433
X2.126Y-1.2402
X1.9882Y-2.7362
X2.185Y-2.7362
X1.2402Y-2.1969
X1.2402Y-2.5969
X1.8642Y-1.9961
X1.8642Y-2.0961
X1.8642Y-2.1961
X1.8642Y-2.2961
X1.8642Y-2.3961
X1.8642Y-2.4961
X1.8642Y-2.5961
X2.1642Y-1.9961
X2.1642Y-2.0961
X2.1642Y-2.1961
X2.1642Y-2.2961
X2.1642Y-2.3961
X2.1642Y-2.4961
X2.1642Y-2.5961
X1.5551Y-1.1024
X1.9551Y-1.1024
X1.2402Y-1.6732
X1.2402Y-2.0732
X1.6142Y-1.8504
X2.0142Y-1.8504
X1.6142Y-1.2598
X1.6142Y-1.3598
X1.6142Y-1.4598
X1.6142Y-1.5598
X1.9142Y-1.2598
X1.9142Y-1.3598
X1.9142Y-1.4598
X1.9142Y-1.5598
X2.1457Y-1.3346
X2.1457Y-1.7346
X1.6811Y-2.7362
X1.878Y-2.7362
X1.6118Y-1.6929
X2.0118Y-1.6929
T2
X1.2992Y-2.965
X1.2992Y-3.065
X1.3992Y-2.965
X1.3992Y-3.065
X1.4992Y-2.965
X1.4992Y-3.065
X1.5992Y-2.965
X1.5992Y-3.065
X1.6992Y-2.965
X1.6992Y-3.065
X1.7992Y-2.965
X1.7992Y-3.065
X1.8992Y-2.965
X1.8992Y-3.065
X1.9992Y-2.965
X1.9992Y-3.065
X2.335Y-1.1079
X2.335Y-1.2079
X2.335Y-1.3079
X2.335Y-1.4079
X2.335Y-1.5079
X2.335Y-1.6079
X2.335Y-1.7079
X2.335Y-1.8079
X2.335Y-1.9079
X2.335Y-2.0079
X2.335Y-2.1079
X2.335Y-2.2079
X2.335Y-2.3079
X2.335Y-2.4079
X2.335Y-2.5079
X2.335Y-2.6079
X2.335Y-2.7079
X2.335Y-2.8079
X2.335Y-2.9079
X2.335Y-3.0079
X2.435Y-1.1079
X2.435Y-1.2079
X2.435Y-1.3079
X2.435Y-1.4079
X2.435Y-1.5079
X2.435Y-1.6079
X2.435Y-1.7079
X2.435Y-1.8079
X2.435Y-1.9079
X2.435Y-2.0079
X2.435Y-2.1079
X2.435Y-2.2079
X2.435Y-2.3079
X2.435Y-2.4079
X2.435Y-2.5079
X2.435Y-2.6079
X2.435Y-2.7079
X2.435Y-2.8079
X2.435Y-2.9079
X2.435Y-3.0079
T3
X0.9252Y-3.2087
X3.2874Y-3.2087
X0.9252Y-0.9252
X3.2874Y-0.9252
T2
G00X3.0487Y-1.3543
M15
G01X3.0487Y-1.315
M16
G05
G00X3.2653Y-1.3543
M15
G01X3.2653Y-1.315
M16
G05
G00X3.3598Y-1.2756
M15
G01X3.3598Y-1.2362
M16
G05
G00X3.0487Y-2.4902
M15
G01X3.0487Y-2.4508
M16
G05
G00X3.2653Y-2.4902
M15
G01X3.2653Y-2.4508
M16
G05
G00X3.3598Y-2.4114
M15
G01X3.3598Y-2.372
M16
G05
G00X3.0487Y-2.8661
M15
G01X3.0487Y-2.8268
M16
G05
G00X3.2653Y-2.8661
M15
G01X3.2653Y-2.8268
M16
G05
G00X3.3598Y-2.7874
M15
G01X3.3598Y-2.748
M16
G05
G00X3.0487Y-1.7323
M15
G01X3.0487Y-1.6929
M16
G05
G00X3.2653Y-1.7323
M15
G01X3.2653Y-1.6929
M16
G05
G00X3.3598Y-1.6535
M15
G01X3.3598Y-1.6142
M16
G05
G00X3.0487Y-2.1102
M15
G01X3.0487Y-2.0709
M16
G05
G00X3.2653Y-2.1102
M15
G01X3.2653Y-2.0709
M16
G05
G00X3.3598Y-2.0315
M15
G01X3.3598Y-1.9921
M16
G05
T0
M30
